<?xml version="1.0" standalone="no"?>
<!DOCTYPE svg PUBLIC "-//W3C//DTD SVG 1.1//EN" "http://www.w3.org/Graphics/SVG/1.1/DTD/svg11.dtd" >
<svg>
<metadata>
Created by FontForge 20110222 at Thu Nov  1 22:14:30 2012
 By Stefan Warting
(c) 1998-2012 Typodermic Fonts Inc. See attached license agreement. If license agreement is missing visit typodermicfonts.com
</metadata>
<defs>
<font id="WorldofWater-Regular" horiz-adv-x="589" >
  <font-face 
    font-family="World of Water"
    font-weight="400"
    font-stretch="normal"
    units-per-em="1000"
    panose-1="2 0 4 0 0 0 0 0 0 0"
    ascent="760"
    descent="-240"
    x-height="478"
    cap-height="700"
    bbox="-173 -239 1195 957"
    underline-thickness="20"
    underline-position="-123"
    unicode-range="U+0017-FB02"
  />
<missing-glyph horiz-adv-x="775" 
d="M140 -219q-97 0 -97 84v807q0 85 97 85h493q98 0 98 -85v-807q0 -84 -98 -84h-493zM333 133q4 17 8 28.5t9.5 19.5t12.5 13.5t18 11.5q17 9 42.5 17t53 18.5t55 25t49.5 36t35.5 51.5t13.5 73q0 27 -11.5 54t-36.5 52t-65 46t-97 37q-63 17 -111 22.5t-78 5.5l-29 -109
q38 -2 81 -6t102 -20q56 -15 80 -39t24 -47q0 -29 -19 -49t-50 -32q-35 -13 -74 -23.5t-64 -24.5q-14 -8 -24.5 -18t-19.5 -25t-16.5 -35.5t-14.5 -48.5zM232 -80q17 0 31 7.5t24.5 20t16.5 28.5t6 33q0 30 -20.5 53.5t-56.5 23.5q-32 0 -55 -25t-23 -63q0 -31 20.5 -54.5
t56.5 -23.5z" />
    <glyph glyph-name=".notdef" unicode="&#x28;P&#x29;" horiz-adv-x="775" 
d="M140 -219q-97 0 -97 84v807q0 85 97 85h493q98 0 98 -85v-807q0 -84 -98 -84h-493zM333 133q4 17 8 28.5t9.5 19.5t12.5 13.5t18 11.5q17 9 42.5 17t53 18.5t55 25t49.5 36t35.5 51.5t13.5 73q0 27 -11.5 54t-36.5 52t-65 46t-97 37q-63 17 -111 22.5t-78 5.5l-29 -109
q38 -2 81 -6t102 -20q56 -15 80 -39t24 -47q0 -29 -19 -49t-50 -32q-35 -13 -74 -23.5t-64 -24.5q-14 -8 -24.5 -18t-19.5 -25t-16.5 -35.5t-14.5 -48.5zM232 -80q17 0 31 7.5t24.5 20t16.5 28.5t6 33q0 30 -20.5 53.5t-56.5 23.5q-32 0 -55 -25t-23 -63q0 -31 20.5 -54.5
t56.5 -23.5z" />
    <glyph glyph-name="copyright" unicode="&#x28;C&#x29;" horiz-adv-x="761" 
d="M381 -12q-77 0 -139.5 28t-106.5 77t-67.5 115t-23.5 142t23.5 142t67.5 115t106.5 77t139.5 28t139 -28t106 -77t67.5 -115t23.5 -142t-23.5 -142t-67.5 -115t-106 -77t-139 -28zM381 74q115 0 178 71.5t63 204.5t-63 204t-178 71q-116 0 -179 -71t-63 -204t63 -204.5
t179 -71.5zM475 183q-13 -2 -28.5 -4t-31.5 -2q-39 0 -73.5 9.5t-60 30t-40.5 53t-15 79.5q0 49 14.5 85t40 59.5t60 35t73.5 11.5q16 0 31 -2t28 -4v-60q-11 3 -23.5 4.5t-30.5 1.5q-57 0 -89 -30.5t-32 -98.5q0 -60 32 -87t90 -27q18 0 31 1.5t24 4.5v-60z" />
    <glyph glyph-name="registered" unicode="&#x28;R&#x29;" horiz-adv-x="761" 
d="M381 -12q-77 0 -139.5 28t-106.5 77t-67.5 115t-23.5 142t23.5 142t67.5 115t106.5 77t139.5 28t139 -28t106 -77t67.5 -115t23.5 -142t-23.5 -142t-67.5 -115t-106 -77t-139 -28zM381 74q115 0 178 71.5t63 204.5t-63 204t-178 71q-116 0 -179 -71t-63 -204t63 -204.5
t179 -71.5zM429 183q-4 54 -12 83.5t-25 46.5q-26 0 -42 3.5t-27 10.5v-144h-71v232q0 54 29 89.5t99 35.5q52 0 88 -28.5t36 -86.5q0 -28 -14.5 -53t-40.5 -41q9 -7 17.5 -16.5t15.5 -25.5t12 -41.5t7 -64.5h-72zM323 393q12 -15 27.5 -22t32.5 -7q25 0 39 17.5t14 43.5
q0 32 -15.5 46.5t-38.5 14.5q-28 0 -43.5 -17t-15.5 -54v-22z" />
    <glyph glyph-name="uni0017" horiz-adv-x="252" 
 />
    <glyph glyph-name="space" unicode=" " horiz-adv-x="252" 
 />
    <glyph glyph-name="exclam" unicode="!" horiz-adv-x="277" 
d="M138 -12q-34 0 -55 24.5t-21 59.5t21 58.5t56 23.5q34 0 55 -23.5t21 -58.5t-21 -59.5t-56 -24.5zM67 223v477h142v-477h-142z" />
    <glyph glyph-name="quotedbl" unicode="&#x22;" horiz-adv-x="452" 
d="M45 448v252h121v-252h-121zM286 448v252h121v-252h-121z" />
    <glyph glyph-name="numbersign" unicode="#" horiz-adv-x="586" 
d="M295 0l36 176h-144l-36 -176h-72l35 176h-84v79h100l40 193h-112v80h128l35 172h74l-36 -172h144l36 172h73l-36 -172h79v-80h-96l-41 -193h111v-79h-127l-37 -176h-70zM387 448h-144l-40 -193h144z" />
    <glyph glyph-name="dollar" unicode="$" horiz-adv-x="521" 
d="M235 0v88h-37q-52 0 -90.5 3t-64.5 8v112q27 -5 65.5 -8.5t91.5 -3.5q72 0 109.5 11t37.5 37q0 14 -10 23t-33 15t-49 10.5t-52.5 10t-52 12.5t-47.5 18q-29 15 -45 37.5t-16 64.5q0 30 14.5 54.5t40 43t61 30.5t77.5 18v115h70v-109h9q31 0 61 -2.5t61 -7.5v-108
q-26 5 -60 7.5t-81 2.5q-54 0 -86 -6.5t-32 -32.5q0 -13 10 -19t42 -12q48 -8 92.5 -17.5t82.5 -22.5q39 -14 57 -45.5t18 -66.5q0 -41 -14.5 -69.5t-38.5 -47.5t-55.5 -30t-65.5 -17v-96h-70z" />
    <glyph glyph-name="percent" unicode="%" horiz-adv-x="901" 
d="M216 320q-40 0 -71.5 15.5t-54 43t-34.5 64t-12 78.5t12 78.5t34.5 63.5t54 42.5t71.5 15.5q39 0 71 -15.5t54 -42.5t34 -63.5t12 -78.5t-12 -78.5t-34 -64t-54 -43t-71 -15.5zM216 393q38 0 59.5 33.5t21.5 94.5q0 60 -21.5 93.5t-59.5 33.5t-59 -33.5t-21 -93.5
q0 -61 21 -94.5t59 -33.5zM124 0l551 700h107l-552 -700h-106zM686 -17q-40 0 -71.5 15.5t-54 43t-34.5 64t-12 78.5t12 78.5t34.5 63.5t54 42.5t71.5 15.5q39 0 71 -15.5t54 -42.5t34 -63.5t12 -78.5t-12 -78.5t-34 -64t-54 -43t-71 -15.5zM686 56q38 0 59.5 33.5
t21.5 94.5q0 60 -21.5 93.5t-59.5 33.5t-59 -33.5t-21 -93.5q0 -61 21 -94.5t59 -33.5z" />
    <glyph glyph-name="ampersand" unicode="&#x26;" horiz-adv-x="665" 
d="M497 0l-34 50q-33 -29 -80 -45.5t-116 -16.5q-53 0 -95.5 17.5t-73.5 47.5t-47.5 70t-16.5 86q0 66 41 127t127 99q-21 34 -28.5 63.5t-7.5 56.5q0 71 53 114t142 43q30 0 50 -0.5t34 -2t24 -3t19 -2.5v-107q-11 2 -21.5 3.5t-22.5 2.5t-27 1.5t-37 0.5
q-45 0 -63.5 -13.5t-18.5 -39.5q0 -16 7 -36t24 -44l323 -472h-155zM261 348l1 -2q-46 -20 -67.5 -49.5t-21.5 -80.5t32.5 -84t91.5 -33q63 0 105 40z" />
    <glyph glyph-name="quotesingle" unicode="'" horiz-adv-x="211" 
d="M45 448v252h121v-252h-121z" />
    <glyph glyph-name="parenleft" unicode="(" horiz-adv-x="391" 
d="M237 -219q-48 58 -81 116t-53 119.5t-28.5 129t-8.5 145.5t8.5 145.5t28.5 129t53 119t81 116.5h134q-49 -64 -80.5 -120t-49.5 -114.5t-25 -124.5t-7 -151t7 -151t25 -124.5t49.5 -114.5t80.5 -120h-134z" />
    <glyph glyph-name="parenright" unicode=")" horiz-adv-x="391" 
d="M20 -219q49 64 80.5 120t49.5 114.5t25 124.5t7 151t-7 151t-25 124.5t-49.5 114.5t-80.5 120h134q48 -59 81 -116.5t53 -119t28.5 -129t8.5 -145.5t-8.5 -145.5t-28.5 -129t-53 -119.5t-81 -116h-134z" />
    <glyph glyph-name="asterisk" unicode="*" horiz-adv-x="543" 
d="M373 248l-101 155l-102 -156l-73 54l115 144l-179 48l29 87l172 -65l-9 185h91l-8 -184l173 66l28 -88l-178 -48l117 -144z" />
    <glyph glyph-name="plus" unicode="+" horiz-adv-x="721" 
d="M310 71v251h-250v101h250v249h101v-249h250v-101h-250v-251h-101z" />
    <glyph glyph-name="comma" unicode="," horiz-adv-x="270" 
d="M48 -89q20 29 31.5 51.5t17.5 45.5q-21 11 -31 30t-10 39q0 32 23.5 54t55.5 22q35 0 55 -24t20 -57q0 -72 -73 -161h-89z" />
    <glyph glyph-name="hyphen" unicode="-" horiz-adv-x="274" 
d="M25 270v100h224v-100h-224z" />
    <glyph glyph-name="period" unicode="." horiz-adv-x="273" 
d="M136 -12q-34 0 -55 24.5t-21 59.5t21 58.5t56 23.5q34 0 55 -23.5t21 -58.5t-21 -59.5t-56 -24.5z" />
    <glyph glyph-name="slash" unicode="/" horiz-adv-x="434" 
d="M25 -82l257 782h127l-258 -782h-126z" />
    <glyph glyph-name="zero" unicode="0" horiz-adv-x="706" 
d="M353 -12q-71 0 -128 28t-97.5 77t-62 115t-21.5 142t21.5 142t62 115t97.5 77t128 28t128 -28t97.5 -77t62 -115t21.5 -142t-21.5 -142t-62 -115t-97.5 -77t-128 -28zM353 102q77 0 119 64.5t42 183.5t-42 183.5t-119 64.5t-119 -64.5t-42 -183.5t42 -183.5t119 -64.5z
" />
    <glyph glyph-name="one" unicode="1" horiz-adv-x="351" 
d="M150 0v526q0 26 -12 40.5t-39 14.5h-79v119h95q52 0 86 -10.5t54 -30.5t28 -50t8 -70v-539h-141z" />
    <glyph glyph-name="two" unicode="2" horiz-adv-x="613" 
d="M60 0v179q0 66 21 105t60 61q17 10 44 20t56.5 20.5t58 20.5t49.5 20q38 18 52.5 37.5t14.5 54.5q0 34 -30 54.5t-109 20.5q-60 0 -109 -7t-98 -21v119q22 7 44 12t46.5 8.5t53.5 5.5t65 2q64 0 116 -14t89 -39t57 -60t20 -76q0 -62 -16.5 -98.5t-57.5 -64.5
q-21 -15 -46 -27.5t-50.5 -23.5t-49 -20t-41.5 -16q-57 -21 -77.5 -46.5t-20.5 -66.5v-41h337v-119h-479z" />
    <glyph glyph-name="three" unicode="3" horiz-adv-x="546" 
d="M47 115q15 -2 29.5 -5t31.5 -5.5t38 -4.5t50 -2q50 0 82.5 9t51 25.5t26 39t7.5 50.5q0 56 -37.5 76t-105.5 20h-97v107h85q58 0 88.5 23.5t30.5 65.5q0 16 -6 32.5t-20.5 29.5t-39.5 21t-62 8q-50 0 -88.5 -5t-63.5 -13v107q28 8 65 13t97 5q64 0 112 -15t80.5 -41
t48.5 -60t16 -73q0 -47 -24 -85.5t-62 -51.5q27 -6 49 -21t38.5 -36t25.5 -48t9 -57q0 -43 -18.5 -85t-55 -75.5t-92 -54.5t-130.5 -21q-63 0 -98 6t-61 11v110z" />
    <glyph glyph-name="four" unicode="4" horiz-adv-x="592" 
d="M331 0v270h-305v90l328 340h119v-332h96v-98h-96v-270h-142zM331 523l-149 -155h149v155z" />
    <glyph glyph-name="five" unicode="5" horiz-adv-x="590" 
d="M62 124q29 -6 71 -11.5t108 -5.5q50 0 82.5 6.5t51.5 19.5t26.5 31t7.5 42q0 22 -3.5 37.5t-11.5 26.5t-21 19t-32 16q-20 8 -46 16.5t-53 16.5t-52.5 16.5t-43.5 17.5q-48 23 -70 55.5t-22 91.5v181h468v-119h-327v-62q0 -24 8 -35t34 -20q54 -16 90 -27t61.5 -20
t44.5 -18.5t41 -22.5q37 -22 58.5 -66.5t21.5 -103.5q0 -44 -17 -83.5t-53 -69.5t-92.5 -47.5t-135.5 -17.5q-76 0 -119.5 4.5t-74.5 12.5v119z" />
    <glyph glyph-name="six" unicode="6" horiz-adv-x="600" 
d="M54 700h142v-274q22 14 51.5 22t68.5 8q55 0 99 -19.5t75.5 -52.5t48.5 -75t17 -87q0 -57 -19 -100.5t-52.5 -73.5t-78.5 -45t-96 -15q-70 0 -118.5 19t-79 52t-44.5 78.5t-14 99.5v463zM196 237q0 -74 31 -107.5t87 -33.5q46 0 76.5 32t30.5 94q0 58 -28 92t-77 34
q-33 0 -64 -14t-56 -46v-51z" />
    <glyph glyph-name="seven" unicode="7" horiz-adv-x="535" 
d="M67 0l297 581h-342v119h498v-87l-305 -613h-148z" />
    <glyph glyph-name="eight" unicode="8" horiz-adv-x="594" 
d="M416 368q27 -10 53 -28t46.5 -42t33 -53t12.5 -60q0 -89 -66.5 -143t-197.5 -54t-197.5 54t-66.5 143q0 31 12.5 60t33 53t46.5 42t53 28q-48 22 -76.5 64t-28.5 95q0 40 16.5 74t46 59t70.5 38.5t91 13.5q49 0 90.5 -13.5t71 -38.5t46 -59t16.5 -74q0 -53 -28.5 -95
t-76.5 -64zM297 324q-62 -16 -93 -44.5t-31 -73.5q0 -42 29.5 -70t94.5 -28t94.5 28t29.5 70q0 45 -31 73.5t-93 44.5zM297 422q40 13 63.5 38t23.5 67q0 37 -26 58t-61 21t-61 -21t-26 -58q0 -42 23.5 -67t63.5 -38z" />
    <glyph glyph-name="nine" unicode="9" horiz-adv-x="602" 
d="M404 0v274q-22 -14 -52 -22t-68 -8q-55 0 -99 19.5t-75.5 52.5t-48.5 75t-17 87q0 57 19 100.5t52.5 73.5t78.5 45t96 15q70 0 118.5 -19t79 -52t44.5 -78.5t14 -99.5v-463h-142zM404 463q0 74 -31 107.5t-87 33.5q-46 0 -76.5 -32t-30.5 -94q0 -58 28 -92t77 -34
q33 0 64 14t56 45v52z" />
    <glyph glyph-name="colon" unicode=":" horiz-adv-x="273" 
d="M136 -12q-34 0 -55 24.5t-21 59.5t21 58.5t56 23.5q34 0 55 -23.5t21 -58.5t-21 -59.5t-56 -24.5zM136 324q-34 0 -55 24.5t-21 59.5t21 58.5t56 23.5q34 0 55 -23.5t21 -58.5t-21 -59.5t-56 -24.5z" />
    <glyph glyph-name="semicolon" unicode=";" horiz-adv-x="270" 
d="M133 324q-34 0 -55 24.5t-21 59.5t21 58.5t56 23.5q34 0 55 -23.5t21 -58.5t-21 -59.5t-56 -24.5zM48 -89q20 29 31.5 51.5t17.5 45.5q-21 11 -31 30t-10 39q0 32 23.5 54t55.5 22q35 0 55 -24t20 -57q0 -72 -73 -161h-89z" />
    <glyph glyph-name="less" unicode="&#x3c;" horiz-adv-x="721" 
d="M60 305v135l601 213v-111l-494 -170l494 -169v-111z" />
    <glyph glyph-name="equal" unicode="=" horiz-adv-x="721" 
d="M60 202v101h601v-101h-601zM60 442v101h601v-101h-601z" />
    <glyph glyph-name="greater" unicode="&#x3e;" horiz-adv-x="721" 
d="M60 92v111l494 169l-494 170v111l601 -213v-135z" />
    <glyph glyph-name="question" unicode="?" horiz-adv-x="464" 
d="M110 223v23q0 42 8 69t31 50q10 10 24.5 20t31 20.5t33.5 20.5t32 21q15 10 24 19t14.5 18.5t7.5 20.5t2 27q0 13 -7.5 25t-22.5 21.5t-38.5 15t-56.5 5.5q-61 0 -104 -7t-80 -15v113q29 8 76.5 15t113.5 7q70 0 119 -14t79.5 -37t44.5 -53t14 -63q0 -53 -17 -86.5
t-40 -55.5q-15 -14 -33.5 -27.5t-37 -26t-34.5 -23.5t-26 -20q-18 -17 -23 -31t-5 -41v-11h-130zM177 -12q-34 0 -55 24.5t-21 59.5t21 58.5t56 23.5q34 0 55 -23.5t21 -58.5t-21 -59.5t-56 -24.5z" />
    <glyph glyph-name="at" unicode="@" horiz-adv-x="715" 
d="M642 -207q-24 -5 -59.5 -8.5t-90.5 -3.5q-217 0 -332.5 100t-115.5 302q0 101 26.5 176t75.5 124.5t119.5 73.5t158.5 24q55 0 100.5 -13.5t78 -41t50.5 -68.5t18 -96v-170q0 -95 -50 -141.5t-134 -46.5q-89 0 -138.5 52t-49.5 144q0 85 48 133t126 48q39 0 64.5 -13.5
t42.5 -31.5v24q0 51 -38 87.5t-114 36.5q-124 0 -191 -73t-67 -222q0 -73 23 -128.5t65 -92.5t101.5 -55.5t132.5 -18.5q32 0 55 1t40.5 3t30.5 5t24 6v-116zM488 84q39 0 62 27t23 81t-23 81t-62 27t-62 -27t-23 -81t23 -81t62 -27z" />
    <glyph glyph-name="A" unicode="A" horiz-adv-x="628" 
d="M5 0l246 700h125l246 -700h-617zM312 505l-122 -386h243z" />
    <glyph glyph-name="B" unicode="B" horiz-adv-x="581" 
d="M56 684q40 12 85 20t89 8q51 0 94 -11.5t74 -34t48.5 -56t17.5 -76.5q0 -66 -47 -120q36 -10 62.5 -30t44 -46.5t26 -57.5t8.5 -63q0 -51 -19 -93.5t-52.5 -72.5t-78.5 -46.5t-96 -16.5q-70 0 -118.5 19t-79 52t-44.5 78.5t-14 99.5v447zM198 237q0 -74 31 -107.5
t87 -33.5q23 0 42.5 9.5t34 25.5t22.5 37.5t8 44.5q0 103 -97 126q-26 -17 -58 -32t-70 -31v-39zM198 391q39 14 64 31.5t40 35.5t20.5 36t5.5 34q0 38 -22 58t-62 20q-14 0 -26 -1t-20 -5v-209z" />
    <glyph glyph-name="C" unicode="C" horiz-adv-x="581" 
d="M540 0q-24 -5 -55.5 -8.5t-63.5 -3.5q-78 0 -147 19t-120 60t-80.5 106t-29.5 158q0 97 29.5 168.5t80.5 119t119.5 70.5t145.5 23q32 0 62.5 -3.5t54.5 -8.5v-120q-21 6 -46 9.5t-60 3.5q-114 0 -178 -62t-64 -195q0 -120 64 -174.5t180 -54.5q35 0 61 3.5t47 9.5v-120z
" />
    <glyph glyph-name="D" unicode="D" horiz-adv-x="650" 
d="M60 684q46 14 96.5 21t127.5 7q158 0 240 -97t82 -271q0 -71 -19.5 -135.5t-59 -113.5t-100.5 -78t-143 -29q-77 0 -127.5 7t-96.5 21v668zM202 107q8 -3 23 -6t38 -3q61 0 99 21t60 57.5t30 85t8 103.5q0 116 -44.5 176.5t-152.5 60.5q-23 0 -38 -3t-23 -6v-486z" />
    <glyph glyph-name="E" unicode="E" horiz-adv-x="565" 
d="M60 0v700h466v-119h-324v-83h315v-113h-315v-266h326v-119h-468z" />
    <glyph glyph-name="F" unicode="F" horiz-adv-x="535" 
d="M60 0v700h454v-119h-312v-84h305v-105h-305v-392h-142z" />
    <glyph glyph-name="G" unicode="G" horiz-adv-x="636" 
d="M293 363v115h257q17 -21 31.5 -65.5t14.5 -122.5q0 -56 -14.5 -110t-46.5 -96.5t-85 -69t-129 -26.5q-61 0 -112 27t-87.5 73.5t-57 108t-20.5 131.5q0 91 24.5 162t71 120.5t113.5 75.5t153 26q32 0 63.5 -4.5t55.5 -9.5v-119q-17 5 -48.5 9.5t-65.5 4.5q-50 0 -91 -13
t-70 -44t-45.5 -82t-16.5 -126q0 -109 39 -165t105 -56q30 0 55 12.5t42 34.5t26.5 52.5t9.5 66.5t-4.5 56t-11.5 34h-156z" />
    <glyph glyph-name="H" unicode="H" horiz-adv-x="640" 
d="M438 0v368h-236v-368h-142v700h142v-222h236v222h142v-700h-142z" />
    <glyph glyph-name="I" unicode="I" horiz-adv-x="262" 
d="M60 0v700h142v-700h-142z" />
    <glyph glyph-name="J" unicode="J" horiz-adv-x="416" 
d="M220 700h142v-488q0 -108 -58.5 -166t-178.5 -58q-33 0 -61.5 4t-45.5 9v119q21 -6 44.5 -9.5t57.5 -3.5q54 0 77 26t23 65v502z" />
    <glyph glyph-name="K" unicode="K" horiz-adv-x="612" 
d="M428 0q0 42 -1.5 97.5t-7.5 107.5q-8 67 -31.5 91.5t-67.5 24.5q-35 0 -63.5 -3.5t-54.5 -11.5v-306h-142v700h142v-284q17 6 34.5 10t37.5 7l139 267h159l-157 -270q36 -8 61.5 -24t42 -41.5t26 -60.5t14.5 -80q8 -67 10 -118.5t2 -105.5h-143z" />
    <glyph glyph-name="L" unicode="L" horiz-adv-x="518" 
d="M236 0q-52 0 -86 10t-54 30.5t-28 50.5t-8 70v539h141v-526q0 -26 12 -40.5t39 -14.5h249v-119h-265z" />
    <glyph glyph-name="M" unicode="M" horiz-adv-x="735" 
d="M548 0v462l-180 -340l-178 340v-462h-132v700h150l162 -313l162 313h145v-700h-129z" />
    <glyph glyph-name="N" unicode="N" horiz-adv-x="637" 
d="M464 0l-279 462v-462h-128v700h144l254 -429v429h125v-700h-116z" />
    <glyph glyph-name="O" unicode="O" horiz-adv-x="586" 
d="M293 196q-55 0 -102 19.5t-81 54t-53 81.5t-19 103t19 103t53 81.5t81 54t102 19.5t102 -19.5t81 -54t53 -81.5t19 -103t-19 -103t-53 -81.5t-81 -54t-102 -19.5zM293 310q26 0 47 11t35.5 30t22.5 45.5t8 57.5t-8 57.5t-22.5 45.5t-35.5 30t-47 11t-47 -11t-35.5 -30
t-22.5 -45.5t-8 -57.5t8 -57.5t22.5 -45.5t35.5 -30t47 -11zM71 0v119h444v-119h-444z" />
    <glyph glyph-name="P" unicode="P" horiz-adv-x="586" 
d="M57 0v463q0 54 14 99.5t44.5 78.5t79 52t118.5 19q51 0 96 -15t78.5 -45t52.5 -73.5t19 -100.5q0 -45 -17 -87t-48.5 -75t-75.5 -52.5t-99 -19.5q-39 0 -68.5 8t-51.5 22v-274h-142zM199 411q25 -31 56 -45t64 -14q49 0 77 34t28 92q0 62 -30.5 94t-76.5 32
q-56 0 -87 -33.5t-31 -107.5v-52z" />
    <glyph glyph-name="Q" unicode="Q" horiz-adv-x="566" 
d="M495 -194q-14 -5 -37.5 -9t-50.5 -4q-100 0 -148 58t-48 166v188q-41 11 -74.5 34t-57.5 55t-37.5 72.5t-13.5 87.5q0 56 19 103t53 81.5t81 54t102 19.5t102 -19.5t81 -54t53 -81.5t19 -103q0 -47 -13.5 -87.5t-38 -73t-58.5 -55.5t-75 -34v-201q0 -39 16 -65t54 -26
q24 0 40.5 3.5t31.5 9.5v-119zM283 310q26 0 47 11t35.5 30t22.5 45.5t8 57.5t-8 57.5t-22.5 45.5t-35.5 30t-47 11t-47 -11t-35.5 -30t-22.5 -45.5t-8 -57.5t8 -57.5t22.5 -45.5t35.5 -30t47 -11z" />
    <glyph glyph-name="R" unicode="R" horiz-adv-x="599" 
d="M413 0q-3 54 -9 95t-15 71.5t-21.5 53t-28.5 40.5h-17q-39 0 -68.5 8t-51.5 22v-290h-142v463q0 54 14 99.5t44.5 78.5t79 52t118.5 19q51 0 96 -14.5t78.5 -43t52.5 -71t19 -99.5q0 -56 -28.5 -106.5t-79.5 -81.5q17 -14 34 -33t31 -52t24 -83.5t14 -127.5h-144z
M202 421q25 -31 56 -45t64 -14q49 0 77 34t28 88q0 62 -30.5 91t-76.5 29q-56 0 -87 -33.5t-31 -107.5v-42z" />
    <glyph glyph-name="S" unicode="S" horiz-adv-x="550" 
d="M36 120q32 -8 71.5 -11t84.5 -3q97 0 146 21.5t49 78.5q0 24 -14.5 41t-37.5 30q-24 13 -55 24t-64 23t-64.5 26.5t-56.5 34.5q-27 22 -43.5 52t-16.5 72q0 52 23.5 90.5t64.5 63.5t96 37t119 12q35 0 68.5 -2.5t67.5 -9.5v-119q-64 13 -131 13q-81 0 -129 -17.5
t-48 -60.5q0 -26 22 -43t56 -32q24 -11 51 -21t55 -21.5t54 -25t49 -30.5q32 -24 50.5 -57.5t18.5 -81.5q0 -70 -31.5 -112.5t-79.5 -65.5t-106 -30.5t-112 -7.5q-38 0 -80 2.5t-77 9.5v120z" />
    <glyph glyph-name="T" unicode="T" horiz-adv-x="558" 
d="M208 0v581h-194v119h530v-119h-194v-581h-142z" />
    <glyph glyph-name="U" unicode="U" horiz-adv-x="620" 
d="M429 700h136v-489q0 -51 -19.5 -92.5t-53.5 -70.5t-80.5 -44.5t-100.5 -15.5q-57 0 -104.5 15.5t-81 44.5t-52 70.5t-18.5 92.5v489h142v-489q0 -54 27.5 -82t87.5 -28t88.5 26.5t28.5 83.5v489z" />
    <glyph glyph-name="V" unicode="V" horiz-adv-x="618" 
d="M242 0l-237 700h154l153 -491l151 491h149l-236 -700h-134z" />
    <glyph glyph-name="W" unicode="W" horiz-adv-x="859" 
d="M525 0l-96 270l-95 -270h-127l-199 700h150l135 -515l81 228l-111 287h128l40 -130l41 130h123l-107 -280l84 -235l133 515h145l-198 -700h-127z" />
    <glyph glyph-name="X" unicode="X" horiz-adv-x="624" 
d="M452 0l-149 264l-142 -264h-154l220 376l-186 324h161l117 -211l118 211h151l-192 -320l220 -380h-164z" />
    <glyph glyph-name="Y" unicode="Y" 
d="M225 0v309l-225 391h167l135 -250l129 250h157l-220 -390v-310h-143z" />
    <glyph glyph-name="Z" unicode="Z" horiz-adv-x="610" 
d="M28 0v104l329 477h-298v119h485v-90l-331 -491h368v-119h-553z" />
    <glyph glyph-name="bracketleft" unicode="[" horiz-adv-x="368" 
d="M100 -219v1020h248v-93h-120v-831h120v-96h-248z" />
    <glyph glyph-name="backslash" unicode="\" horiz-adv-x="434" 
d="M283 -82l-258 782h127l257 -782h-126z" />
    <glyph glyph-name="bracketright" unicode="]" horiz-adv-x="368" 
d="M20 -219v96h120v831h-120v93h248v-1020h-248z" />
    <glyph glyph-name="asciicircum" unicode="^" horiz-adv-x="427" 
d="M293 360l-80 233l-80 -233h-108l121 340h135l120 -340h-108z" />
    <glyph glyph-name="underscore" unicode="_" horiz-adv-x="470" 
d="M-1 -139v99h472v-99h-472z" />
    <glyph glyph-name="grave" unicode="`" horiz-adv-x="304" 
d="M175 514l-164 221h151l131 -221h-118z" />
    <glyph glyph-name="a" unicode="a" 
d="M531 238q0 -63 -17 -110t-48.5 -78t-76 -46.5t-99.5 -15.5q-58 0 -104 20.5t-77.5 56t-48 84.5t-16.5 106q0 54 16.5 97.5t46.5 74t71.5 47t92.5 16.5t85 -17.5t55 -41.5v47h120v-240zM291 95q51 0 81 36t30 108t-30 108t-81 36t-81 -36t-30 -108t30 -108t81 -36z" />
    <glyph glyph-name="b" unicode="b" 
d="M58 700h136v-254q23 23 55.5 33.5t68.5 10.5q51 0 92.5 -16.5t71.5 -47t46.5 -74t16.5 -97.5q0 -57 -16.5 -106t-47 -84.5t-74.5 -56t-98 -20.5q-56 0 -102.5 17t-79.5 49t-51 78.5t-18 105.5v462zM298 95q51 0 81 36t30 108t-30 108t-81 36t-81 -36t-30 -108t30 -108
t81 -36z" />
    <glyph glyph-name="c" unicode="c" horiz-adv-x="491" 
d="M451 -4q-21 -3 -47.5 -5.5t-55.5 -2.5q-68 0 -123.5 13t-96 41.5t-62.5 74t-22 109.5q0 67 22.5 116.5t62.5 82.5t95.5 49t121.5 16q29 0 55 -2.5t47 -5.5v-107q-18 4 -38.5 6t-50.5 2q-88 0 -133.5 -36t-45.5 -117q0 -72 46 -103.5t135 -31.5q29 0 51 2t39 6v-107z" />
    <glyph glyph-name="d" unicode="d" 
d="M395 700h136v-462q0 -59 -18 -105.5t-51 -78.5t-79.5 -49t-102.5 -17q-54 0 -98 20.5t-74.5 56t-47 84.5t-16.5 106q0 54 16.5 97.5t46.5 74t71.5 47t92.5 16.5q36 0 68.5 -10.5t55.5 -33.5v254zM291 95q51 0 81 36t30 108t-30 108t-81 36t-81 -36t-30 -108t30 -108
t81 -36z" />
    <glyph glyph-name="e" unicode="e" horiz-adv-x="573" 
d="M525 2q-10 -2 -24 -4.5t-35 -4.5t-50 -3.5t-68 -1.5q-68 0 -123.5 13.5t-96 43.5t-62.5 79t-22 120q0 48 19 92.5t53.5 78.5t82.5 54.5t107 20.5q45 0 85.5 -13t71 -40t48.5 -68.5t18 -99.5v-21t-1 -23h-356q3 -37 17 -61t38 -38t58 -19.5t76 -5.5q65 0 106 4.5t58 9.5
v-113zM392 313q0 33 -22 56.5t-67 23.5t-75 -21.5t-44 -58.5h208z" />
    <glyph glyph-name="f" unicode="f" horiz-adv-x="346" 
d="M75 0v373h-66v105h66v40q0 46 14 82.5t39.5 61t61 37.5t78.5 13q24 0 45 -3t33 -8v-115q-14 5 -28.5 8t-35.5 3q-34 0 -52.5 -22.5t-18.5 -56.5v-40h89v-105h-89v-373h-136z" />
    <glyph glyph-name="g" unicode="g" horiz-adv-x="591" 
d="M395 45q-23 -22 -55.5 -32.5t-68.5 -10.5q-51 0 -92.5 16t-71.5 45.5t-46.5 71.5t-16.5 95q0 55 16.5 103t47 82.5t74.5 54.5t98 20q56 0 102.5 -17t79.5 -49t51 -78.5t18 -105.5v-240q0 -64 -19.5 -109.5t-57 -74t-91 -42t-120.5 -13.5q-53 0 -90 3.5t-58 8.5v107
q18 -5 54.5 -8.5t80.5 -3.5q89 0 127 31.5t38 103.5v42zM291 109q51 0 81 34.5t30 102.5t-30 102.5t-81 34.5t-81 -34.5t-30 -102.5t30 -102.5t81 -34.5z" />
    <glyph glyph-name="h" unicode="h" horiz-adv-x="560" 
d="M366 0v328q0 25 -17.5 40t-47.5 15q-23 0 -42.5 -7.5t-33.5 -19.5t-21.5 -28.5t-7.5 -34.5v-293h-136v700h136v-254q20 20 50.5 32t69.5 12q41 0 75 -10t59 -30.5t38.5 -51t13.5 -70.5v-328h-136z" />
    <glyph glyph-name="i" unicode="i" horiz-adv-x="273" 
d="M67 0v478h136v-478h-136zM136 534q-34 0 -55 24.5t-21 59.5t21 58.5t56 23.5q34 0 55 -23.5t21 -58.5t-21 -59.5t-56 -24.5z" />
    <glyph glyph-name="j" unicode="j" horiz-adv-x="299" 
d="M-43 -93q14 -5 28.5 -8t35.5 -3q34 0 52.5 22.5t18.5 56.5v503h136v-503q0 -47 -14 -83t-39.5 -60.5t-61 -37.5t-78.5 -13q-24 0 -45 3t-33 8v115zM161 534q-34 0 -55 24.5t-21 59.5t21 58.5t56 23.5q34 0 55 -23.5t21 -58.5t-21 -59.5t-56 -24.5z" />
    <glyph glyph-name="k" unicode="k" horiz-adv-x="574" 
d="M413 0q-1 27 -2.5 57t-5.5 58q-8 52 -31 70t-65 18q-65 0 -113 -12v-191h-136v700h136v-406q11 4 23 6.5t25 4.5l102 173h152l-115 -170q40 -5 67 -17.5t45 -33.5t28 -50t15 -68q5 -41 7.5 -74t3.5 -65h-136z" />
    <glyph glyph-name="l" unicode="l" horiz-adv-x="256" 
d="M60 0v700h136v-700h-136z" />
    <glyph glyph-name="m" unicode="m" horiz-adv-x="845" 
d="M652 0v301q0 46 -19 65.5t-64 19.5q-42 0 -62 -17.5t-22 -58.5v-310h-128v301q0 46 -19.5 65.5t-64.5 19.5t-64 -19.5t-19 -65.5v-301h-133v315q0 90 58 132.5t159 42.5q50 0 87 -13.5t63 -35.5q26 21 62 35t84 14q100 0 158.5 -42.5t58.5 -132.5v-315h-135z" />
    <glyph glyph-name="n" unicode="n" horiz-adv-x="555" 
d="M361 0v301q0 46 -20 65.5t-65 19.5t-65 -19.5t-20 -65.5v-301h-134v315q0 90 59 132.5t161 42.5t161 -42.5t59 -132.5v-315h-136z" />
    <glyph glyph-name="o" unicode="o" horiz-adv-x="590" 
d="M295 -12q-54 0 -100 18.5t-79.5 52t-52.5 79.5t-19 101t19 101t52.5 79.5t79.5 52t100 18.5t100 -18.5t79.5 -52t52.5 -79.5t19 -101t-19 -101t-52.5 -79.5t-79.5 -52t-100 -18.5zM295 95q53 0 84 36t31 108t-31 108t-84 36t-84 -36t-31 -108t31 -108t84 -36z" />
    <glyph glyph-name="p" unicode="p" horiz-adv-x="588" 
d="M57 -219v459q0 59 18 105.5t51 78.5t79.5 49t102.5 17q54 0 98 -20.5t74.5 -56t47 -84.5t16.5 -106q0 -54 -16.5 -97.5t-46.5 -74t-71.5 -47t-92.5 -16.5q-36 0 -68.5 10.5t-55.5 33.5v-251h-136zM297 95q51 0 81 36t30 108t-30 108t-81 36t-81 -36t-30 -108t30 -108
t81 -36z" />
    <glyph glyph-name="q" unicode="q" 
d="M395 -219v251q-23 -23 -55.5 -33.5t-68.5 -10.5q-51 0 -92.5 16.5t-71.5 47t-46.5 74t-16.5 97.5q0 57 16.5 106t47 84.5t74.5 56t98 20.5q56 0 102.5 -17t79.5 -49t51 -78.5t18 -105.5v-459h-136zM291 95q51 0 81 36t30 108t-30 108t-81 36t-81 -36t-30 -108t30 -108
t81 -36z" />
    <glyph glyph-name="r" unicode="r" horiz-adv-x="393" 
d="M57 0v274q0 103 63 159.5t175 56.5q16 0 28 -0.5t21.5 -1.5t18.5 -2.5t20 -2.5v-106q-18 3 -38 5t-36 2q-54 0 -85 -26.5t-31 -78.5v-279h-136z" />
    <glyph glyph-name="s" unicode="s" horiz-adv-x="488" 
d="M29 111q27 -5 65.5 -8.5t91.5 -3.5q72 0 109.5 11t37.5 37q0 14 -10 23t-33 15t-49 10.5t-52.5 10t-52 12.5t-47.5 18q-29 15 -45 37.5t-16 64.5q0 37 21 65t57.5 47.5t86.5 29.5t107 10q31 0 61 -2.5t61 -7.5v-108q-26 5 -60 7.5t-81 2.5q-54 0 -86 -6.5t-32 -32.5
q0 -13 10 -19t42 -12q48 -8 92.5 -17.5t82.5 -22.5q39 -14 57 -45.5t18 -66.5q0 -57 -27.5 -91t-69.5 -52t-91.5 -23.5t-92.5 -5.5q-52 0 -90.5 3t-64.5 8v112z" />
    <glyph glyph-name="t" unicode="t" horiz-adv-x="336" 
d="M324 11q-12 -5 -33 -8t-45 -3q-43 0 -78.5 13t-61 37.5t-39.5 60.5t-14 83v427h136v-143h120v-105h-120v-179q0 -34 18.5 -56.5t52.5 -22.5q21 0 35.5 3t28.5 8v-115z" />
    <glyph glyph-name="u" unicode="u" horiz-adv-x="549" 
d="M357 478h134v-315q0 -45 -16 -78t-44.5 -54.5t-68.5 -32t-88 -10.5t-88 10.5t-68.5 32t-44.5 54.5t-16 78v315h136v-301q0 -46 19 -65.5t63 -19.5t63 19.5t19 65.5v301z" />
    <glyph glyph-name="v" unicode="v" horiz-adv-x="529" 
d="M206 0l-201 478h152l110 -296l112 296h144l-202 -478h-115z" />
    <glyph glyph-name="w" unicode="w" horiz-adv-x="690" 
d="M409 0l-65 163l-65 -163h-102l-172 478h140l102 -309l43 97l-95 212h116l36 -94l38 94h109l-93 -206l46 -103l104 309h133l-173 -478h-102z" />
    <glyph glyph-name="x" unicode="x" horiz-adv-x="516" 
d="M356 0l-105 170l-100 -170h-144l167 257l-141 221h149l81 -133l82 133h142l-146 -219l167 -259h-152z" />
    <glyph glyph-name="y" unicode="y" horiz-adv-x="527" 
d="M44 -109q9 -1 16.5 -1.5t15.5 -0.5q28 0 48 5t34 18t25 35t23 57l-201 474h149l116 -308l105 308h146l-214 -551q-13 -35 -31 -62t-44 -45.5t-61.5 -28.5t-83.5 -10h-21t-22 2v108z" />
    <glyph glyph-name="z" unicode="z" horiz-adv-x="524" 
d="M30 0v95l269 278h-250v105h432v-80l-263 -286h281v-112h-469z" />
    <glyph glyph-name="braceleft" unicode="{" horiz-adv-x="415" 
d="M395 -211q-10 -5 -22 -6.5t-34 -1.5q-82 0 -131 39t-49 119v210q0 47 -18 65.5t-70 18.5h-29v116h29q52 0 70 18.5t18 65.5v210q0 80 49 119t131 39q22 0 34 -1.5t22 -6.5v-90q-6 2 -18 3.5t-36 1.5q-28 0 -41 -15t-13 -50v-220q0 -32 -5 -54.5t-15 -37.5t-26 -24.5
t-37 -15.5q21 -6 37 -15.5t26 -24.5t15 -37.5t5 -54.5v-220q0 -35 13 -50t41 -15q24 0 36 1.5t18 3.5v-90z" />
    <glyph glyph-name="bar" unicode="|" horiz-adv-x="312" 
d="M92 -219v1020h128v-1020h-128z" />
    <glyph glyph-name="braceright" unicode="}" horiz-adv-x="415" 
d="M20 -121q6 -2 18 -3.5t36 -1.5q28 0 41 15t13 50v220q0 32 5 54.5t15 37.5t26 24.5t37 15.5q-21 6 -37 15.5t-26 24.5t-15 37.5t-5 54.5v220q0 35 -13 50t-41 15q-24 0 -36 -1.5t-18 -3.5v90q10 5 22 6.5t34 1.5q82 0 131 -39t49 -119v-210q0 -24 4 -40t14 -25.5t27 -14
t43 -4.5h29v-116h-29q-26 0 -43 -4.5t-27 -14t-14 -25.5t-4 -40v-210q0 -80 -49 -119t-131 -39q-22 0 -34 1.5t-22 6.5v90z" />
    <glyph glyph-name="asciitilde" unicode="~" horiz-adv-x="721" 
d="M661 342q-15 -16 -31 -28t-36 -19.5t-45.5 -11.5t-59.5 -4q-35 0 -68.5 9.5t-67 20.5t-67 20.5t-66.5 9.5q-59 0 -94 -14t-66 -44v101q15 16 31 28t36 19.5t45.5 11.5t59.5 4t67.5 -9.5t67 -20.5t67 -20.5t67.5 -9.5q30 0 52.5 3.5t41.5 10.5t34.5 18t31.5 26v-101z" />
    <glyph glyph-name="nonbreakingspace" unicode="&#xa0;" horiz-adv-x="252" 
 />
    <glyph glyph-name="exclamdown" unicode="&#xa1;" horiz-adv-x="277" 
d="M139 612q34 0 55 -24.5t21 -59.5t-21 -58.5t-56 -23.5q-34 0 -55 23.5t-21 58.5t21 59.5t56 24.5zM210 377v-477h-142v477h142z" />
    <glyph glyph-name="cent" unicode="&#xa2;" horiz-adv-x="490" 
d="M262 0v93q-50 7 -91 24.5t-69.5 46t-44 68.5t-15.5 94q0 112 60 175.5t160 81.5v116h70v-109h12q29 0 55 -2.5t47 -5.5v-107q-18 4 -38.5 6t-50.5 2q-88 0 -133.5 -36t-45.5 -117q0 -72 46 -103.5t135 -31.5q29 0 51 2t39 6v-107q-21 -3 -47.5 -5.5t-55.5 -2.5h-14v-88
h-70z" />
    <glyph glyph-name="sterling" unicode="&#xa3;" horiz-adv-x="565" 
d="M29 0v119h78q42 55 42 109v9h-116v101h79q-5 10 -11.5 19.5t-13.5 19.5q-27 38 -38.5 74t-11.5 72q0 41 20 76t57 60t89 39t116 14q36 0 65 -2t53.5 -5.5t46.5 -8.5t44 -12v-119q-49 14 -98 21t-109 7q-79 0 -109 -20.5t-30 -54.5q0 -25 14 -57.5t47 -75.5
q9 -12 16.5 -23.5t13.5 -23.5h166v-101h-147q-6 -48 -34 -118h262v-119h-491z" />
    <glyph glyph-name="currency" unicode="&#xa4;" horiz-adv-x="590" 
d="M413 172q-50 -33 -119 -33q-67 0 -119 32l-89 -89l-60 61l89 89q-16 25 -24.5 54t-8.5 64q0 70 34 119l-89 90l60 61l90 -91q24 15 54 23.5t63 8.5t62.5 -8.5t54.5 -24.5l91 91l61 -60l-91 -91q16 -25 24.5 -55t8.5 -63q0 -34 -8.5 -63t-23.5 -54l90 -90l-60 -60z
M294 229q45 0 70.5 30.5t25.5 90.5t-25.5 90.5t-70.5 30.5t-71 -30.5t-26 -90.5t26 -90.5t71 -30.5z" />
    <glyph glyph-name="yen" unicode="&#xa5;" horiz-adv-x="622" 
d="M385 119v-119h-143v119h-196v81h196v59h-196v81h178l-207 360h167l135 -250l129 250h157l-203 -360h173v-81h-190v-59h190v-81h-190z" />
    <glyph glyph-name="brokenbar" unicode="&#xa6;" horiz-adv-x="312" 
d="M220 380h-128v421h128v-421zM92 -219v409h128v-409h-128z" />
    <glyph glyph-name="section" unicode="&#xa7;" horiz-adv-x="549" 
d="M44 -79q29 -7 65.5 -10t77.5 -3q88 0 133 19.5t45 70.5q0 31 -25.5 49.5t-63 33t-80.5 29t-79 36.5q-32 20 -53 49.5t-21 74.5q0 48 21.5 82.5t59.5 57.5q-32 25 -48.5 53t-16.5 66q0 48 21.5 82.5t59 57t88 33t108.5 10.5q66 0 125 -10v-108q-60 12 -120 12
q-74 0 -118 -16t-44 -55q0 -17 11.5 -30t31.5 -24t45 -20.5t53 -20t55.5 -23t51.5 -28.5q34 -23 56 -54.5t22 -79.5q0 -51 -19.5 -85.5t-50.5 -56.5q25 -21 39.5 -49.5t14.5 -66.5q0 -63 -28.5 -101.5t-73 -59t-97.5 -27.5t-102 -7q-36 0 -74 2.5t-70 7.5v109zM274 346
q-52 -5 -81.5 -21t-29.5 -48q0 -18 13 -32t34.5 -25.5t48.5 -21.5t56 -20q66 19 66 78q0 23 -12.5 38t-34.5 26q-14 7 -28.5 13t-31.5 13z" />
    <glyph glyph-name="dieresis" unicode="&#xa8;" horiz-adv-x="470" 
d="M341 534q-34 0 -55 24.5t-21 59.5t21 58.5t56 23.5q34 0 55 -23.5t21 -58.5t-21 -59.5t-56 -24.5zM128 534q-34 0 -55 24.5t-21 59.5t21 58.5t56 23.5q34 0 55 -23.5t21 -58.5t-21 -59.5t-56 -24.5z" />
    <glyph glyph-name="ordfeminine" unicode="&#xaa;" horiz-adv-x="354" 
d="M308 524q0 -72 -36.5 -106.5t-99.5 -34.5q-33 0 -58.5 11.5t-43 32t-27 47.5t-9.5 58q0 62 35.5 97t92.5 35q24 0 41 -6t29 -16v16h76v-134zM173 452q24 0 39 18.5t15 53.5t-15 53.5t-39 18.5t-39 -18.5t-15 -53.5t15 -53.5t39 -18.5z" />
    <glyph glyph-name="guillemotleft" unicode="&#xab;" horiz-adv-x="534" 
d="M23 253v151l221 131v-108l-139 -99l139 -98v-108zM290 253v151l221 131v-108l-139 -99l139 -98v-108z" />
    <glyph glyph-name="logicalnot" unicode="&#xac;" horiz-adv-x="502" 
d="M332 0v322h-320v101h421v-423h-101z" />
    <glyph glyph-name="macron" unicode="&#xaf;" horiz-adv-x="421" 
d="M15 559v106h391v-106h-391z" />
    <glyph glyph-name="degree" unicode="&#xb0;" horiz-adv-x="421" 
d="M210 379q-36 0 -66 12.5t-52.5 34.5t-35 52.5t-12.5 67.5q0 36 12.5 66.5t35 52.5t52.5 34.5t66 12.5t66.5 -12.5t53 -34.5t35 -52.5t12.5 -66.5q0 -37 -12.5 -67.5t-35 -52.5t-53 -34.5t-66.5 -12.5zM210 450q35 0 56 24t21 72t-21 71.5t-56 23.5t-55.5 -23.5
t-20.5 -71.5t20.5 -72t55.5 -24z" />
    <glyph glyph-name="plusminus" unicode="&#xb1;" horiz-adv-x="721" 
d="M310 71v251h-250v101h250v249h101v-249h250v-101h-250v-251h-101zM60 -99v101h601v-101h-601z" />
    <glyph glyph-name="twosuperior" unicode="&#xb2;" horiz-adv-x="367" 
d="M43 325v101q0 38 13.5 59.5t33.5 34.5q25 15 55 23t56 21q20 10 27 19t7 26q0 15 -15.5 24.5t-54.5 9.5q-31 0 -59 -4.5t-58 -12.5v77q26 8 51.5 12t66.5 4q73 0 115.5 -30.5t42.5 -76.5q0 -34 -10 -56t-33 -37q-31 -21 -58.5 -31.5t-47.5 -19.5t-32 -19.5t-12 -31.5v-17
h181v-75h-269z" />
    <glyph glyph-name="threesuperior" unicode="&#xb3;" horiz-adv-x="330" 
d="M36 400q29 -6 47 -8.5t39 -2.5q51 0 67.5 17t16.5 44q0 26 -18.5 36t-52.5 10h-58v69h51q29 0 44 11t15 31q0 15 -13.5 29t-50.5 14q-50 0 -87 -13v71q17 4 38 7.5t55 3.5q72 0 107.5 -32t35.5 -75q0 -23 -10 -42.5t-29 -30.5q26 -8 42.5 -32.5t16.5 -55.5q0 -24 -10 -48
t-30.5 -42.5t-51.5 -30.5t-73 -12q-35 0 -57 3t-34 7v72z" />
    <glyph glyph-name="acute" unicode="&#xb4;" horiz-adv-x="304" 
d="M11 514l131 221h151l-164 -221h-118z" />
    <glyph glyph-name="paragraph" unicode="&#xb6;" horiz-adv-x="719" 
d="M544 -127v685q0 22 -9.5 33.5t-32.5 11.5h-86q21 -47 21 -106v-624h-116v469q-18 -11 -42 -17.5t-56 -6.5q-45 0 -81 16t-61.5 42.5t-39.5 61t-14 71.5q0 46 15.5 82t43 60t64 36.5t78.5 12.5h287q43 0 70.5 -8.5t44 -25t23 -41t6.5 -56.5v-696h-115zM321 497
q0 60 -25.5 87.5t-70.5 27.5q-38 0 -63 -26t-25 -77q0 -48 23 -75.5t63 -27.5q27 0 52.5 11.5t45.5 36.5v43z" />
    <glyph glyph-name="periodcentered" unicode="&#xb7;" horiz-adv-x="273" 
d="M136 238q-34 0 -55 24.5t-21 59.5t21 58.5t56 23.5q34 0 55 -23.5t21 -58.5t-21 -59.5t-56 -24.5z" />
    <glyph glyph-name="cedilla" unicode="&#xb8;" horiz-adv-x="228" 
d="M43 -219q23 35 30 63q-21 11 -30.5 27.5t-9.5 35.5q0 30 23 50t55 20q34 0 54 -22t20 -52q0 -56 -51 -122h-91z" />
    <glyph glyph-name="onesuperior" unicode="&#xb9;" horiz-adv-x="223" 
d="M90 325v288q0 24 -21 24h-48v75h56q60 0 80.5 -23t20.5 -69v-295h-88z" />
    <glyph glyph-name="ordmasculine" unicode="&#xba;" horiz-adv-x="354" 
d="M175 383q-30 0 -55.5 10.5t-44.5 29.5t-29.5 45t-10.5 56q0 31 10.5 57t29.5 44.5t44.5 28.5t55.5 10t55.5 -10t44.5 -28.5t29.5 -44.5t10.5 -57q0 -30 -10.5 -56t-29.5 -45t-44.5 -29.5t-55.5 -10.5zM175 452q26 0 41.5 18.5t15.5 53.5t-15.5 53.5t-41.5 18.5
q-25 0 -40.5 -18.5t-15.5 -53.5t15.5 -53.5t40.5 -18.5z" />
    <glyph glyph-name="guillemotright" unicode="&#xbb;" horiz-adv-x="534" 
d="M23 122v108l139 98l-139 99v108l221 -131v-151zM290 122v108l139 98l-139 99v108l221 -131v-151z" />
    <glyph glyph-name="onequarter" unicode="&#xbc;" horiz-adv-x="801" 
d="M114 325v288q0 24 -21 24h-48v75h56q60 0 80.5 -23t20.5 -69v-295h-88zM44 0l551 700h107l-552 -700h-106zM618 -12v144h-164v57l180 186h71v-178h52v-65h-52v-144h-87zM618 261l-61 -64h61v64z" />
    <glyph glyph-name="onehalf" unicode="&#xbd;" horiz-adv-x="827" 
d="M114 325v288q0 24 -21 24h-48v75h56q60 0 80.5 -23t20.5 -69v-295h-88zM44 0l551 700h107l-552 -700h-106zM502 -12v101q0 38 13.5 59.5t33.5 34.5q25 15 55 23t56 21q20 10 27 19t7 26q0 15 -15.5 24.5t-54.5 9.5q-31 0 -59 -4.5t-58 -12.5v77q26 8 51.5 12t66.5 4
q73 0 115.5 -30.5t42.5 -76.5q0 -34 -10 -56t-33 -37q-31 -21 -58.5 -31.5t-47.5 -19.5t-32 -19.5t-12 -31.5v-17h181v-75h-269z" />
    <glyph glyph-name="threequarters" unicode="&#xbe;" horiz-adv-x="822" 
d="M44 400q29 -6 47 -8.5t39 -2.5q51 0 67.5 17t16.5 44q0 26 -18.5 36t-52.5 10h-58v69h51q29 0 44 11t15 31q0 15 -13.5 29t-50.5 14q-50 0 -87 -13v71q17 4 38 7.5t55 3.5q72 0 107.5 -32t35.5 -75q0 -23 -10 -42.5t-29 -30.5q26 -8 42.5 -32.5t16.5 -55.5q0 -24 -10 -48
t-30.5 -42.5t-51.5 -30.5t-73 -12q-35 0 -57 3t-34 7v72zM65 0l551 700h107l-552 -700h-106zM639 -12v144h-164v57l180 186h71v-178h52v-65h-52v-144h-87zM639 261l-61 -64h61v64z" />
    <glyph glyph-name="questiondown" unicode="&#xbf;" horiz-adv-x="464" 
d="M355 377v-23q0 -42 -8 -69t-31 -50q-10 -10 -24.5 -20t-31 -20.5t-33.5 -21t-32 -20.5q-15 -11 -24 -19.5t-14.5 -18t-7.5 -20.5t-2 -27q0 -26 30 -46.5t95 -20.5q61 0 104 7t80 15v-113q-29 -8 -76.5 -15t-113.5 -7q-70 0 -119 14t-79.5 37t-44.5 53t-14 63
q0 53 17 86.5t40 55.5q15 14 33.5 27.5t37 26t34.5 23.5t26 20q18 17 23 31t5 41v11h130zM288 612q34 0 55 -24.5t21 -59.5t-21 -58.5t-56 -23.5q-34 0 -55 23.5t-21 58.5t21 59.5t56 24.5z" />
    <glyph glyph-name="Agrave" unicode="&#xc0;" horiz-adv-x="628" 
d="M5 0l246 700h125l246 -700h-617zM312 505l-122 -386h243zM287 736l-164 221h151l131 -221h-118z" />
    <glyph glyph-name="Aacute" unicode="&#xc1;" horiz-adv-x="628" 
d="M5 0l246 700h125l246 -700h-617zM312 505l-122 -386h243zM223 736l131 221h151l-164 -221h-118z" />
    <glyph glyph-name="Acircumflex" unicode="&#xc2;" horiz-adv-x="628" 
d="M5 0l246 700h125l246 -700h-617zM312 505l-122 -386h243zM412 736l-99 139l-98 -139h-108l131 221h151l131 -221h-108z" />
    <glyph glyph-name="Atilde" unicode="&#xc3;" horiz-adv-x="628" 
d="M5 0l246 700h125l246 -700h-617zM312 505l-122 -386h243zM509 808q-20 -22 -43.5 -32t-68.5 -10q-23 0 -45 6t-43.5 13.5t-43 14t-43.5 6.5q-38 0 -61 -9.5t-43 -29.5v97q20 22 43.5 32t68.5 10q22 0 44 -6.5t43.5 -14t43.5 -13.5t44 -6q38 0 61 9.5t43 29.5v-97z" />
    <glyph glyph-name="Adieresis" unicode="&#xc4;" horiz-adv-x="628" 
d="M5 0l246 700h125l246 -700h-617zM312 505l-122 -386h243zM420 756q-34 0 -55 24.5t-21 59.5t21 58.5t56 23.5q34 0 55 -23.5t21 -58.5t-21 -59.5t-56 -24.5zM207 756q-34 0 -55 24.5t-21 59.5t21 58.5t56 23.5q34 0 55 -23.5t21 -58.5t-21 -59.5t-56 -24.5z" />
    <glyph glyph-name="Aring" unicode="&#xc5;" horiz-adv-x="628" 
d="M5 0l246 700h125l246 -700h-617zM312 505l-122 -386h243zM435 838q0 -52 -34 -85t-87 -33q-52 0 -86.5 33t-34.5 85q0 53 34.5 86t86.5 33q53 0 87 -33t34 -86zM314 785q24 0 37.5 13.5t13.5 39.5t-13.5 39t-37.5 13q-23 0 -37 -13t-14 -39t14 -39.5t37 -13.5z" />
    <glyph glyph-name="AE" unicode="&#xc6;" horiz-adv-x="893" 
d="M5 0l246 700h603v-119h-335l11 -83h315v-113h-300l35 -266h276v-119h-851zM377 581h-42l-145 -462h248z" />
    <glyph glyph-name="Ccedilla" unicode="&#xc7;" horiz-adv-x="581" 
d="M540 0q-24 -5 -55.5 -8.5t-63.5 -3.5q-78 0 -147 19t-120 60t-80.5 106t-29.5 158q0 97 29.5 168.5t80.5 119t119.5 70.5t145.5 23q32 0 62.5 -3.5t54.5 -8.5v-120q-21 6 -46 9.5t-60 3.5q-114 0 -178 -62t-64 -195q0 -120 64 -174.5t180 -54.5q35 0 61 3.5t47 9.5v-120z
M324 -219q23 35 30 63q-21 11 -30.5 27.5t-9.5 35.5q0 30 23 50t55 20q34 0 54 -22t20 -52q0 -56 -51 -122h-91z" />
    <glyph glyph-name="Egrave" unicode="&#xc8;" horiz-adv-x="565" 
d="M60 0v700h466v-119h-324v-83h315v-113h-315v-266h326v-119h-468zM265 736l-164 221h151l131 -221h-118z" />
    <glyph glyph-name="Eacute" unicode="&#xc9;" horiz-adv-x="565" 
d="M60 0v700h466v-119h-324v-83h315v-113h-315v-266h326v-119h-468zM211 736l131 221h151l-164 -221h-118z" />
    <glyph glyph-name="Ecircumflex" unicode="&#xca;" horiz-adv-x="565" 
d="M60 0v700h466v-119h-324v-83h315v-113h-315v-266h326v-119h-468zM391 736l-99 139l-98 -139h-108l131 221h151l131 -221h-108z" />
    <glyph glyph-name="Edieresis" unicode="&#xcb;" horiz-adv-x="565" 
d="M60 0v700h466v-119h-324v-83h315v-113h-315v-266h326v-119h-468zM398 756q-34 0 -55 24.5t-21 59.5t21 58.5t56 23.5q34 0 55 -23.5t21 -58.5t-21 -59.5t-56 -24.5zM185 756q-34 0 -55 24.5t-21 59.5t21 58.5t56 23.5q34 0 55 -23.5t21 -58.5t-21 -59.5t-56 -24.5z" />
    <glyph glyph-name="Igrave" unicode="&#xcc;" horiz-adv-x="262" 
d="M60 0v700h142v-700h-142zM105 736l-164 221h151l131 -221h-118z" />
    <glyph glyph-name="Iacute" unicode="&#xcd;" horiz-adv-x="262" 
d="M60 0v700h142v-700h-142zM40 736l131 221h151l-164 -221h-118z" />
    <glyph glyph-name="Icircumflex" unicode="&#xce;" horiz-adv-x="262" 
d="M60 0v700h142v-700h-142zM231 736l-99 139l-98 -139h-108l131 221h151l131 -221h-108z" />
    <glyph glyph-name="Idieresis" unicode="&#xcf;" horiz-adv-x="262" 
d="M60 0v700h142v-700h-142zM238 756q-34 0 -55 24.5t-21 59.5t21 58.5t56 23.5q34 0 55 -23.5t21 -58.5t-21 -59.5t-56 -24.5zM25 756q-34 0 -55 24.5t-21 59.5t21 58.5t56 23.5q34 0 55 -23.5t21 -58.5t-21 -59.5t-56 -24.5z" />
    <glyph glyph-name="Eth" unicode="&#xd0;" horiz-adv-x="660" 
d="M70 385h-60v113h60v186q46 14 96.5 21t127.5 7q158 0 240 -97t82 -271q0 -71 -19.5 -135.5t-59 -113.5t-100.5 -78t-143 -29q-77 0 -127.5 7t-96.5 21v369zM212 385v-278q8 -3 23 -6t38 -3q61 0 99 21t60 57.5t30 85t8 103.5q0 116 -44.5 176.5t-152.5 60.5q-23 0 -38 -3
t-23 -6v-95h113v-113h-113z" />
    <glyph glyph-name="Ntilde" unicode="&#xd1;" horiz-adv-x="637" 
d="M464 0l-279 462v-462h-128v700h144l254 -429v429h125v-700h-116zM514 808q-20 -22 -43.5 -32t-68.5 -10q-23 0 -45 6t-43.5 13.5t-43 14t-43.5 6.5q-38 0 -61 -9.5t-43 -29.5v97q20 22 43.5 32t68.5 10q22 0 44 -6.5t43.5 -14t43.5 -13.5t44 -6q38 0 61 9.5t43 29.5v-97z
" />
    <glyph glyph-name="Ograve" unicode="&#xd2;" horiz-adv-x="586" 
d="M293 196q-55 0 -102 19.5t-81 54t-53 81.5t-19 103t19 103t53 81.5t81 54t102 19.5t102 -19.5t81 -54t53 -81.5t19 -103t-19 -103t-53 -81.5t-81 -54t-102 -19.5zM293 310q26 0 47 11t35.5 30t22.5 45.5t8 57.5t-8 57.5t-22.5 45.5t-35.5 30t-47 11t-47 -11t-35.5 -30
t-22.5 -45.5t-8 -57.5t8 -57.5t22.5 -45.5t35.5 -30t47 -11zM71 0v119h444v-119h-444zM266 736l-164 221h151l131 -221h-118z" />
    <glyph glyph-name="Oacute" unicode="&#xd3;" horiz-adv-x="586" 
d="M293 196q-55 0 -102 19.5t-81 54t-53 81.5t-19 103t19 103t53 81.5t81 54t102 19.5t102 -19.5t81 -54t53 -81.5t19 -103t-19 -103t-53 -81.5t-81 -54t-102 -19.5zM293 310q26 0 47 11t35.5 30t22.5 45.5t8 57.5t-8 57.5t-22.5 45.5t-35.5 30t-47 11t-47 -11t-35.5 -30
t-22.5 -45.5t-8 -57.5t8 -57.5t22.5 -45.5t35.5 -30t47 -11zM71 0v119h444v-119h-444zM202 736l131 221h151l-164 -221h-118z" />
    <glyph glyph-name="Ocircumflex" unicode="&#xd4;" horiz-adv-x="586" 
d="M293 196q-55 0 -102 19.5t-81 54t-53 81.5t-19 103t19 103t53 81.5t81 54t102 19.5t102 -19.5t81 -54t53 -81.5t19 -103t-19 -103t-53 -81.5t-81 -54t-102 -19.5zM293 310q26 0 47 11t35.5 30t22.5 45.5t8 57.5t-8 57.5t-22.5 45.5t-35.5 30t-47 11t-47 -11t-35.5 -30
t-22.5 -45.5t-8 -57.5t8 -57.5t22.5 -45.5t35.5 -30t47 -11zM71 0v119h444v-119h-444zM391 736l-99 139l-98 -139h-108l131 221h151l131 -221h-108z" />
    <glyph glyph-name="Otilde" unicode="&#xd5;" horiz-adv-x="586" 
d="M293 196q-55 0 -102 19.5t-81 54t-53 81.5t-19 103t19 103t53 81.5t81 54t102 19.5t102 -19.5t81 -54t53 -81.5t19 -103t-19 -103t-53 -81.5t-81 -54t-102 -19.5zM293 310q26 0 47 11t35.5 30t22.5 45.5t8 57.5t-8 57.5t-22.5 45.5t-35.5 30t-47 11t-47 -11t-35.5 -30
t-22.5 -45.5t-8 -57.5t8 -57.5t22.5 -45.5t35.5 -30t47 -11zM71 0v119h444v-119h-444zM488 808q-20 -22 -43.5 -32t-68.5 -10q-23 0 -45 6t-43.5 13.5t-43 14t-43.5 6.5q-38 0 -61 -9.5t-43 -29.5v97q20 22 43.5 32t68.5 10q22 0 44 -6.5t43.5 -14t43.5 -13.5t44 -6
q38 0 61 9.5t43 29.5v-97z" />
    <glyph glyph-name="Odieresis" unicode="&#xd6;" horiz-adv-x="586" 
d="M293 196q-55 0 -102 19.5t-81 54t-53 81.5t-19 103t19 103t53 81.5t81 54t102 19.5t102 -19.5t81 -54t53 -81.5t19 -103t-19 -103t-53 -81.5t-81 -54t-102 -19.5zM293 310q26 0 47 11t35.5 30t22.5 45.5t8 57.5t-8 57.5t-22.5 45.5t-35.5 30t-47 11t-47 -11t-35.5 -30
t-22.5 -45.5t-8 -57.5t8 -57.5t22.5 -45.5t35.5 -30t47 -11zM71 0v119h444v-119h-444zM399 756q-34 0 -55 24.5t-21 59.5t21 58.5t56 23.5q34 0 55 -23.5t21 -58.5t-21 -59.5t-56 -24.5zM186 756q-34 0 -55 24.5t-21 59.5t21 58.5t56 23.5q34 0 55 -23.5t21 -58.5t-21 -59.5
t-56 -24.5z" />
    <glyph glyph-name="multiply" unicode="&#xd7;" horiz-adv-x="721" 
d="M113 194l177 178l-177 176l72 72l176 -177l176 176l72 -71l-176 -176l177 -177l-72 -71l-177 176l-177 -177z" />
    <glyph glyph-name="Oslash" unicode="&#xd8;" horiz-adv-x="706" 
d="M44 -42l84 134q-41 49 -62.5 115t-21.5 143q0 76 21.5 142t62 115t97.5 77t128 28q79 0 141 -35l40 65h127l-84 -134q42 -49 63.5 -115t21.5 -143q0 -76 -21.5 -142t-62 -115t-97.5 -77t-128 -28q-41 0 -76 9t-66 26l-41 -65h-126zM274 124q32 -22 79 -22q77 0 119 64.5
t42 183.5q0 75 -18 129zM430 576q-35 22 -77 22q-77 0 -119 -64.5t-42 -183.5q0 -74 17 -128z" />
    <glyph glyph-name="Ugrave" unicode="&#xd9;" horiz-adv-x="620" 
d="M429 700h136v-489q0 -51 -19.5 -92.5t-53.5 -70.5t-80.5 -44.5t-100.5 -15.5q-57 0 -104.5 15.5t-81 44.5t-52 70.5t-18.5 92.5v489h142v-489q0 -54 27.5 -82t87.5 -28t88.5 26.5t28.5 83.5v489zM283 736l-164 221h151l131 -221h-118z" />
    <glyph glyph-name="Uacute" unicode="&#xda;" horiz-adv-x="620" 
d="M429 700h136v-489q0 -51 -19.5 -92.5t-53.5 -70.5t-80.5 -44.5t-100.5 -15.5q-57 0 -104.5 15.5t-81 44.5t-52 70.5t-18.5 92.5v489h142v-489q0 -54 27.5 -82t87.5 -28t88.5 26.5t28.5 83.5v489zM219 736l131 221h151l-164 -221h-118z" />
    <glyph glyph-name="Ucircumflex" unicode="&#xdb;" horiz-adv-x="620" 
d="M429 700h136v-489q0 -51 -19.5 -92.5t-53.5 -70.5t-80.5 -44.5t-100.5 -15.5q-57 0 -104.5 15.5t-81 44.5t-52 70.5t-18.5 92.5v489h142v-489q0 -54 27.5 -82t87.5 -28t88.5 26.5t28.5 83.5v489zM408 736l-99 139l-98 -139h-108l131 221h151l131 -221h-108z" />
    <glyph glyph-name="Udieresis" unicode="&#xdc;" horiz-adv-x="620" 
d="M429 700h136v-489q0 -51 -19.5 -92.5t-53.5 -70.5t-80.5 -44.5t-100.5 -15.5q-57 0 -104.5 15.5t-81 44.5t-52 70.5t-18.5 92.5v489h142v-489q0 -54 27.5 -82t87.5 -28t88.5 26.5t28.5 83.5v489zM416 756q-34 0 -55 24.5t-21 59.5t21 58.5t56 23.5q34 0 55 -23.5
t21 -58.5t-21 -59.5t-56 -24.5zM203 756q-34 0 -55 24.5t-21 59.5t21 58.5t56 23.5q34 0 55 -23.5t21 -58.5t-21 -59.5t-56 -24.5z" />
    <glyph glyph-name="Yacute" unicode="&#xdd;" 
d="M225 0v309l-225 391h167l135 -250l129 250h157l-220 -390v-310h-143zM203 736l131 221h151l-164 -221h-118z" />
    <glyph glyph-name="Thorn" unicode="&#xde;" horiz-adv-x="588" 
d="M60 0v700h142v-147q24 8 52 13t62 5q51 0 96 -15t78.5 -45t52.5 -73.5t19 -100.5q0 -45 -17 -87t-48.5 -75t-75.5 -52.5t-99 -19.5q-39 0 -68.5 8t-51.5 22v-133h-142zM202 270q25 -31 56 -45t64 -14q49 0 77 34t28 92q0 62 -30.5 94t-76.5 32q-56 0 -87 -33.5
t-31 -107.5v-52z" />
    <glyph glyph-name="germandbls" unicode="&#xdf;" horiz-adv-x="594" 
d="M243 104q11 -2 25.5 -4t43.5 -2q51 0 79 26t28 98q0 56 -37.5 76t-105.5 20h-31v107h19q58 0 88.5 23.5t30.5 65.5q0 49 -26 66t-71 17q-48 0 -69 -22.5t-21 -56.5v-518h-136v518q0 94 57.5 144t168.5 50q41 0 83 -9t76 -30.5t55.5 -58t21.5 -91.5q0 -47 -24 -85.5
t-62 -51.5q27 -6 49 -21t38.5 -36t25.5 -48t9 -57q0 -50 -15 -93t-46 -75t-77 -50t-108 -18q-25 0 -41.5 2t-27.5 5v109z" />
    <glyph glyph-name="agrave" unicode="&#xe0;" 
d="M531 238q0 -63 -17 -110t-48.5 -78t-76 -46.5t-99.5 -15.5q-58 0 -104 20.5t-77.5 56t-48 84.5t-16.5 106q0 54 16.5 97.5t46.5 74t71.5 47t92.5 16.5t85 -17.5t55 -41.5v47h120v-240zM291 95q51 0 81 36t30 108t-30 108t-81 36t-81 -36t-30 -108t30 -108t81 -36z
M267 514l-164 221h151l131 -221h-118z" />
    <glyph glyph-name="aacute" unicode="&#xe1;" 
d="M531 238q0 -63 -17 -110t-48.5 -78t-76 -46.5t-99.5 -15.5q-58 0 -104 20.5t-77.5 56t-48 84.5t-16.5 106q0 54 16.5 97.5t46.5 74t71.5 47t92.5 16.5t85 -17.5t55 -41.5v47h120v-240zM291 95q51 0 81 36t30 108t-30 108t-81 36t-81 -36t-30 -108t30 -108t81 -36z
M203 514l131 221h151l-164 -221h-118z" />
    <glyph glyph-name="acircumflex" unicode="&#xe2;" 
d="M531 238q0 -63 -17 -110t-48.5 -78t-76 -46.5t-99.5 -15.5q-58 0 -104 20.5t-77.5 56t-48 84.5t-16.5 106q0 54 16.5 97.5t46.5 74t71.5 47t92.5 16.5t85 -17.5t55 -41.5v47h120v-240zM291 95q51 0 81 36t30 108t-30 108t-81 36t-81 -36t-30 -108t30 -108t81 -36z
M393 514l-99 139l-98 -139h-108l131 221h151l131 -221h-108z" />
    <glyph glyph-name="atilde" unicode="&#xe3;" 
d="M531 238q0 -63 -17 -110t-48.5 -78t-76 -46.5t-99.5 -15.5q-58 0 -104 20.5t-77.5 56t-48 84.5t-16.5 106q0 54 16.5 97.5t46.5 74t71.5 47t92.5 16.5t85 -17.5t55 -41.5v47h120v-240zM291 95q51 0 81 36t30 108t-30 108t-81 36t-81 -36t-30 -108t30 -108t81 -36z
M490 586q-20 -22 -43.5 -32t-68.5 -10q-23 0 -45 6t-43.5 13.5t-43 14t-43.5 6.5q-38 0 -61 -9.5t-43 -29.5v97q20 22 43.5 32t68.5 10q22 0 44 -6.5t43.5 -14t43.5 -13.5t44 -6q38 0 61 9.5t43 29.5v-97z" />
    <glyph glyph-name="adieresis" unicode="&#xe4;" 
d="M531 238q0 -63 -17 -110t-48.5 -78t-76 -46.5t-99.5 -15.5q-58 0 -104 20.5t-77.5 56t-48 84.5t-16.5 106q0 54 16.5 97.5t46.5 74t71.5 47t92.5 16.5t85 -17.5t55 -41.5v47h120v-240zM291 95q51 0 81 36t30 108t-30 108t-81 36t-81 -36t-30 -108t30 -108t81 -36z
M400 534q-34 0 -55 24.5t-21 59.5t21 58.5t56 23.5q34 0 55 -23.5t21 -58.5t-21 -59.5t-56 -24.5zM187 534q-34 0 -55 24.5t-21 59.5t21 58.5t56 23.5q34 0 55 -23.5t21 -58.5t-21 -59.5t-56 -24.5z" />
    <glyph glyph-name="aring" unicode="&#xe5;" 
d="M531 238q0 -63 -17 -110t-48.5 -78t-76 -46.5t-99.5 -15.5q-58 0 -104 20.5t-77.5 56t-48 84.5t-16.5 106q0 54 16.5 97.5t46.5 74t71.5 47t92.5 16.5t85 -17.5t55 -41.5v47h120v-240zM291 95q51 0 81 36t30 108t-30 108t-81 36t-81 -36t-30 -108t30 -108t81 -36z
M415 616q0 -52 -34 -85t-87 -33q-52 0 -86.5 33t-34.5 85q0 53 34.5 86t86.5 33q53 0 87 -33t34 -86zM294 563q24 0 37.5 13.5t13.5 39.5t-13.5 39t-37.5 13q-23 0 -37 -13t-14 -39t14 -39.5t37 -13.5z" />
    <glyph glyph-name="ae" unicode="&#xe6;" horiz-adv-x="945" 
d="M897 2q-10 -2 -24 -4.5t-35 -4.5t-50 -3.5t-68 -1.5q-78 0 -139.5 17.5t-101.5 58.5q-32 -39 -80 -57.5t-109 -18.5q-58 0 -104 20.5t-77.5 56t-48 84.5t-16.5 106q0 54 16.5 97.5t46.5 74t71.5 47t92.5 16.5t85 -17.5t55 -41.5v47h120v-47q22 29 63 44t84 15
q45 0 85.5 -13t71 -40t48.5 -68.5t18 -99.5v-21t-1 -23h-356q3 -37 17 -61t38 -38t58 -19.5t76 -5.5q65 0 106 4.5t58 9.5v-113zM291 95q51 0 81 36t30 108t-30 108t-81 36t-81 -36t-30 -108t30 -108t81 -36zM764 313q0 33 -22 56.5t-67 23.5t-75 -21.5t-44 -58.5h208z" />
    <glyph glyph-name="ccedilla" unicode="&#xe7;" horiz-adv-x="491" 
d="M451 -4q-21 -3 -47.5 -5.5t-55.5 -2.5q-68 0 -123.5 13t-96 41.5t-62.5 74t-22 109.5q0 67 22.5 116.5t62.5 82.5t95.5 49t121.5 16q29 0 55 -2.5t47 -5.5v-107q-18 4 -38.5 6t-50.5 2q-88 0 -133.5 -36t-45.5 -117q0 -72 46 -103.5t135 -31.5q29 0 51 2t39 6v-107z
M229 -219q23 35 30 63q-21 11 -30.5 27.5t-9.5 35.5q0 30 23 50t55 20q34 0 54 -22t20 -52q0 -56 -51 -122h-91z" />
    <glyph glyph-name="egrave" unicode="&#xe8;" horiz-adv-x="573" 
d="M525 2q-10 -2 -24 -4.5t-35 -4.5t-50 -3.5t-68 -1.5q-68 0 -123.5 13.5t-96 43.5t-62.5 79t-22 120q0 48 19 92.5t53.5 78.5t82.5 54.5t107 20.5q45 0 85.5 -13t71 -40t48.5 -68.5t18 -99.5v-21t-1 -23h-356q3 -37 17 -61t38 -38t58 -19.5t76 -5.5q65 0 106 4.5t58 9.5
v-113zM392 313q0 33 -22 56.5t-67 23.5t-75 -21.5t-44 -58.5h208zM269 514l-164 221h151l131 -221h-118z" />
    <glyph glyph-name="eacute" unicode="&#xe9;" horiz-adv-x="573" 
d="M525 2q-10 -2 -24 -4.5t-35 -4.5t-50 -3.5t-68 -1.5q-68 0 -123.5 13.5t-96 43.5t-62.5 79t-22 120q0 48 19 92.5t53.5 78.5t82.5 54.5t107 20.5q45 0 85.5 -13t71 -40t48.5 -68.5t18 -99.5v-21t-1 -23h-356q3 -37 17 -61t38 -38t58 -19.5t76 -5.5q65 0 106 4.5t58 9.5
v-113zM392 313q0 33 -22 56.5t-67 23.5t-75 -21.5t-44 -58.5h208zM205 514l131 221h151l-164 -221h-118z" />
    <glyph glyph-name="ecircumflex" unicode="&#xea;" horiz-adv-x="573" 
d="M525 2q-10 -2 -24 -4.5t-35 -4.5t-50 -3.5t-68 -1.5q-68 0 -123.5 13.5t-96 43.5t-62.5 79t-22 120q0 48 19 92.5t53.5 78.5t82.5 54.5t107 20.5q45 0 85.5 -13t71 -40t48.5 -68.5t18 -99.5v-21t-1 -23h-356q3 -37 17 -61t38 -38t58 -19.5t76 -5.5q65 0 106 4.5t58 9.5
v-113zM392 313q0 33 -22 56.5t-67 23.5t-75 -21.5t-44 -58.5h208zM395 514l-99 139l-98 -139h-108l131 221h151l131 -221h-108z" />
    <glyph glyph-name="edieresis" unicode="&#xeb;" horiz-adv-x="573" 
d="M525 2q-10 -2 -24 -4.5t-35 -4.5t-50 -3.5t-68 -1.5q-68 0 -123.5 13.5t-96 43.5t-62.5 79t-22 120q0 48 19 92.5t53.5 78.5t82.5 54.5t107 20.5q45 0 85.5 -13t71 -40t48.5 -68.5t18 -99.5v-21t-1 -23h-356q3 -37 17 -61t38 -38t58 -19.5t76 -5.5q65 0 106 4.5t58 9.5
v-113zM392 313q0 33 -22 56.5t-67 23.5t-75 -21.5t-44 -58.5h208zM402 534q-34 0 -55 24.5t-21 59.5t21 58.5t56 23.5q34 0 55 -23.5t21 -58.5t-21 -59.5t-56 -24.5zM189 534q-34 0 -55 24.5t-21 59.5t21 58.5t56 23.5q34 0 55 -23.5t21 -58.5t-21 -59.5t-56 -24.5z" />
    <glyph glyph-name="igrave" unicode="&#xec;" horiz-adv-x="300" 
d="M94 0v478h136v-478h-136zM138 514l-164 221h151l131 -221h-118z" />
    <glyph glyph-name="iacute" unicode="&#xed;" horiz-adv-x="303" 
d="M67 0v478h136v-478h-136zM45 514l131 221h151l-164 -221h-118z" />
    <glyph glyph-name="icircumflex" unicode="&#xee;" horiz-adv-x="348" 
d="M105 0v478h136v-478h-136zM274 514l-99 139l-98 -139h-108l131 221h151l131 -221h-108z" />
    <glyph glyph-name="idieresis" unicode="&#xef;" horiz-adv-x="330" 
d="M95 0v478h136v-478h-136zM272 534q-34 0 -55 24.5t-21 59.5t21 58.5t56 23.5q34 0 55 -23.5t21 -58.5t-21 -59.5t-56 -24.5zM59 534q-34 0 -55 24.5t-21 59.5t21 58.5t56 23.5q34 0 55 -23.5t21 -58.5t-21 -59.5t-56 -24.5z" />
    <glyph glyph-name="eth" unicode="&#xf0;" horiz-adv-x="594" 
d="M536 221q0 -55 -18 -98.5t-51 -73.5t-79.5 -45.5t-102.5 -15.5q-54 0 -98 19t-74.5 52.5t-47 79t-16.5 98.5q0 51 16.5 91.5t46.5 69t71.5 43.5t92.5 15q36 0 68.5 -10t55.5 -31v46q0 24 -6.5 46t-17.5 42l-173 -59v100l103 35q-54 41 -139 75h180q20 -8 38 -16.5
t35 -19.5l105 36v-100l-34 -12q21 -36 33 -87t12 -123v-157zM296 95q51 0 81 32.5t30 96.5t-30 96.5t-81 32.5t-81 -32.5t-30 -96.5t30 -96.5t81 -32.5z" />
    <glyph glyph-name="ntilde" unicode="&#xf1;" horiz-adv-x="555" 
d="M361 0v301q0 46 -20 65.5t-65 19.5t-65 -19.5t-20 -65.5v-301h-134v315q0 90 59 132.5t161 42.5t161 -42.5t59 -132.5v-315h-136zM473 586q-20 -22 -43.5 -32t-68.5 -10q-23 0 -45 6t-43.5 13.5t-43 14t-43.5 6.5q-38 0 -61 -9.5t-43 -29.5v97q20 22 43.5 32t68.5 10
q22 0 44 -6.5t43.5 -14t43.5 -13.5t44 -6q38 0 61 9.5t43 29.5v-97z" />
    <glyph glyph-name="ograve" unicode="&#xf2;" horiz-adv-x="590" 
d="M295 -12q-54 0 -100 18.5t-79.5 52t-52.5 79.5t-19 101t19 101t52.5 79.5t79.5 52t100 18.5t100 -18.5t79.5 -52t52.5 -79.5t19 -101t-19 -101t-52.5 -79.5t-79.5 -52t-100 -18.5zM295 95q53 0 84 36t31 108t-31 108t-84 36t-84 -36t-31 -108t31 -108t84 -36zM268 514
l-164 221h151l131 -221h-118z" />
    <glyph glyph-name="oacute" unicode="&#xf3;" horiz-adv-x="590" 
d="M295 -12q-54 0 -100 18.5t-79.5 52t-52.5 79.5t-19 101t19 101t52.5 79.5t79.5 52t100 18.5t100 -18.5t79.5 -52t52.5 -79.5t19 -101t-19 -101t-52.5 -79.5t-79.5 -52t-100 -18.5zM295 95q53 0 84 36t31 108t-31 108t-84 36t-84 -36t-31 -108t31 -108t84 -36zM204 514
l131 221h151l-164 -221h-118z" />
    <glyph glyph-name="ocircumflex" unicode="&#xf4;" horiz-adv-x="590" 
d="M295 -12q-54 0 -100 18.5t-79.5 52t-52.5 79.5t-19 101t19 101t52.5 79.5t79.5 52t100 18.5t100 -18.5t79.5 -52t52.5 -79.5t19 -101t-19 -101t-52.5 -79.5t-79.5 -52t-100 -18.5zM295 95q53 0 84 36t31 108t-31 108t-84 36t-84 -36t-31 -108t31 -108t84 -36zM393 514
l-99 139l-98 -139h-108l131 221h151l131 -221h-108z" />
    <glyph glyph-name="otilde" unicode="&#xf5;" horiz-adv-x="590" 
d="M295 -12q-54 0 -100 18.5t-79.5 52t-52.5 79.5t-19 101t19 101t52.5 79.5t79.5 52t100 18.5t100 -18.5t79.5 -52t52.5 -79.5t19 -101t-19 -101t-52.5 -79.5t-79.5 -52t-100 -18.5zM295 95q53 0 84 36t31 108t-31 108t-84 36t-84 -36t-31 -108t31 -108t84 -36zM490 586
q-20 -22 -43.5 -32t-68.5 -10q-23 0 -45 6t-43.5 13.5t-43 14t-43.5 6.5q-38 0 -61 -9.5t-43 -29.5v97q20 22 43.5 32t68.5 10q22 0 44 -6.5t43.5 -14t43.5 -13.5t44 -6q38 0 61 9.5t43 29.5v-97z" />
    <glyph glyph-name="odieresis" unicode="&#xf6;" horiz-adv-x="590" 
d="M295 -12q-54 0 -100 18.5t-79.5 52t-52.5 79.5t-19 101t19 101t52.5 79.5t79.5 52t100 18.5t100 -18.5t79.5 -52t52.5 -79.5t19 -101t-19 -101t-52.5 -79.5t-79.5 -52t-100 -18.5zM295 95q53 0 84 36t31 108t-31 108t-84 36t-84 -36t-31 -108t31 -108t84 -36zM401 534
q-34 0 -55 24.5t-21 59.5t21 58.5t56 23.5q34 0 55 -23.5t21 -58.5t-21 -59.5t-56 -24.5zM188 534q-34 0 -55 24.5t-21 59.5t21 58.5t56 23.5q34 0 55 -23.5t21 -58.5t-21 -59.5t-56 -24.5z" />
    <glyph glyph-name="divide" unicode="&#xf7;" horiz-adv-x="721" 
d="M60 322v101h601v-101h-601zM360 546q-34 0 -55 24.5t-21 59.5t21 58.5t56 23.5q34 0 55 -23.5t21 -58.5t-21 -59.5t-56 -24.5zM360 33q-34 0 -55 24.5t-21 59.5t21 58.5t56 23.5q34 0 55 -23.5t21 -58.5t-21 -59.5t-56 -24.5z" />
    <glyph glyph-name="oslash" unicode="&#xf8;" horiz-adv-x="590" 
d="M44 -42l69 103q-32 33 -50.5 78.5t-18.5 99.5q0 55 19 101t52.5 79.5t79.5 52t100 18.5q25 0 48.5 -4t44.5 -12l31 46h127l-69 -103q32 -33 50.5 -78.5t18.5 -99.5q0 -55 -19 -101t-52.5 -79.5t-79.5 -52t-100 -18.5q-26 0 -49.5 4t-44.5 12l-31 -46h-126zM264 98
q15 -3 31 -3q53 0 84 36t31 108q0 37 -9 64zM325 379q-8 2 -15 3t-15 1q-53 0 -84 -36t-31 -108q0 -35 8 -65z" />
    <glyph glyph-name="ugrave" unicode="&#xf9;" horiz-adv-x="549" 
d="M357 478h134v-315q0 -45 -16 -78t-44.5 -54.5t-68.5 -32t-88 -10.5t-88 10.5t-68.5 32t-44.5 54.5t-16 78v315h136v-301q0 -46 19 -65.5t63 -19.5t63 19.5t19 65.5v301zM247 514l-164 221h151l131 -221h-118z" />
    <glyph glyph-name="uacute" unicode="&#xfa;" horiz-adv-x="549" 
d="M357 478h134v-315q0 -45 -16 -78t-44.5 -54.5t-68.5 -32t-88 -10.5t-88 10.5t-68.5 32t-44.5 54.5t-16 78v315h136v-301q0 -46 19 -65.5t63 -19.5t63 19.5t19 65.5v301zM183 514l131 221h151l-164 -221h-118z" />
    <glyph glyph-name="ucircumflex" unicode="&#xfb;" horiz-adv-x="549" 
d="M357 478h134v-315q0 -45 -16 -78t-44.5 -54.5t-68.5 -32t-88 -10.5t-88 10.5t-68.5 32t-44.5 54.5t-16 78v315h136v-301q0 -46 19 -65.5t63 -19.5t63 19.5t19 65.5v301zM373 514l-99 139l-98 -139h-108l131 221h151l131 -221h-108z" />
    <glyph glyph-name="udieresis" unicode="&#xfc;" horiz-adv-x="549" 
d="M357 478h134v-315q0 -45 -16 -78t-44.5 -54.5t-68.5 -32t-88 -10.5t-88 10.5t-68.5 32t-44.5 54.5t-16 78v315h136v-301q0 -46 19 -65.5t63 -19.5t63 19.5t19 65.5v301zM380 534q-34 0 -55 24.5t-21 59.5t21 58.5t56 23.5q34 0 55 -23.5t21 -58.5t-21 -59.5t-56 -24.5z
M167 534q-34 0 -55 24.5t-21 59.5t21 58.5t56 23.5q34 0 55 -23.5t21 -58.5t-21 -59.5t-56 -24.5z" />
    <glyph glyph-name="yacute" unicode="&#xfd;" horiz-adv-x="527" 
d="M44 -109q9 -1 16.5 -1.5t15.5 -0.5q28 0 48 5t34 18t25 35t23 57l-201 474h149l116 -308l105 308h146l-214 -551q-13 -35 -31 -62t-44 -45.5t-61.5 -28.5t-83.5 -10h-21t-22 2v108zM172 514l131 221h151l-164 -221h-118z" />
    <glyph glyph-name="thorn" unicode="&#xfe;" horiz-adv-x="590" 
d="M60 -219v919h136v-254q23 23 55.5 33.5t68.5 10.5q53 0 95 -18t71 -51t44.5 -79t15.5 -103t-15.5 -103t-44.5 -79t-71 -51t-95 -18q-36 0 -68.5 10.5t-55.5 33.5v-251h-136zM300 95q51 0 81 36t30 108q0 27 -6.5 52.5t-20 46t-34.5 33t-50 12.5q-51 0 -81 -35t-30 -105
q0 -75 30 -111.5t81 -36.5z" />
    <glyph glyph-name="ydieresis" unicode="&#xff;" horiz-adv-x="527" 
d="M44 -109q9 -1 16.5 -1.5t15.5 -0.5q28 0 48 5t34 18t25 35t23 57l-201 474h149l116 -308l105 308h146l-214 -551q-13 -35 -31 -62t-44 -45.5t-61.5 -28.5t-83.5 -10h-21t-22 2v108zM369 534q-34 0 -55 24.5t-21 59.5t21 58.5t56 23.5q34 0 55 -23.5t21 -58.5t-21 -59.5
t-56 -24.5zM156 534q-34 0 -55 24.5t-21 59.5t21 58.5t56 23.5q34 0 55 -23.5t21 -58.5t-21 -59.5t-56 -24.5z" />
    <glyph glyph-name="Amacron" unicode="&#x100;" horiz-adv-x="628" 
d="M5 0l246 700h125l246 -700h-617zM312 505l-122 -386h243zM118 781v106h391v-106h-391z" />
    <glyph glyph-name="amacron" unicode="&#x101;" 
d="M531 238q0 -63 -17 -110t-48.5 -78t-76 -46.5t-99.5 -15.5q-58 0 -104 20.5t-77.5 56t-48 84.5t-16.5 106q0 54 16.5 97.5t46.5 74t71.5 47t92.5 16.5t85 -17.5t55 -41.5v47h120v-240zM291 95q51 0 81 36t30 108t-30 108t-81 36t-81 -36t-30 -108t30 -108t81 -36zM99 559
v106h391v-106h-391z" />
    <glyph glyph-name="Abreve" unicode="&#x102;" horiz-adv-x="628" 
d="M5 0l246 700h125l246 -700h-617zM312 505l-122 -386h243zM468 957q1 -12 1.5 -23t0.5 -22q0 -53 -13.5 -87.5t-36 -54t-50.5 -27t-56 -7.5q-29 0 -56.5 7.5t-50 27t-36 54t-13.5 87.5q0 11 0.5 22t1.5 23h105q-6 -18 -8.5 -33t-2.5 -28q0 -21 5.5 -36t14.5 -24
t19.5 -13.5t20.5 -4.5t20.5 4.5t19.5 13.5t14.5 24t5.5 36q0 13 -2.5 28t-8.5 33h105z" />
    <glyph glyph-name="abreve" unicode="&#x103;" 
d="M531 238q0 -63 -17 -110t-48.5 -78t-76 -46.5t-99.5 -15.5q-58 0 -104 20.5t-77.5 56t-48 84.5t-16.5 106q0 54 16.5 97.5t46.5 74t71.5 47t92.5 16.5t85 -17.5t55 -41.5v47h120v-240zM291 95q51 0 81 36t30 108t-30 108t-81 36t-81 -36t-30 -108t30 -108t81 -36z
M448 735q1 -12 1.5 -23t0.5 -22q0 -53 -13.5 -87.5t-36 -54t-50.5 -27t-56 -7.5q-29 0 -56.5 7.5t-50 27t-36 54t-13.5 87.5q0 11 0.5 22t1.5 23h105q-6 -18 -8.5 -33t-2.5 -28q0 -21 5.5 -36t14.5 -24t19.5 -13.5t20.5 -4.5t20.5 4.5t19.5 13.5t14.5 24t5.5 36
q0 13 -2.5 28t-8.5 33h105z" />
    <glyph glyph-name="Aogonek" unicode="&#x104;" horiz-adv-x="628" 
d="M639 -211q-21 -3 -47.5 -5.5t-55.5 -2.5q-74 0 -113.5 24.5t-39.5 78.5q0 48 38 79.5t115 36.5h-531l246 700h125l246 -700q-79 -13 -110 -31.5t-31 -41.5q0 -18 15 -28.5t53 -10.5q29 0 51 2t39 6v-107zM312 505l-122 -386h243z" />
    <glyph glyph-name="aogonek" unicode="&#x105;" 
d="M412 -211q-21 -3 -47.5 -5.5t-55.5 -2.5q-74 0 -113.5 24.5t-39.5 78.5q0 38 23.5 65.5t71.5 41.5q-49 6 -87.5 28.5t-65 57.5t-40.5 80.5t-14 97.5q0 54 16.5 97.5t46.5 74t71.5 47t92.5 16.5t85 -17.5t55 -41.5v47h120v-240q0 -110 -48 -169.5t-136 -75.5
q-52 -10 -72.5 -28t-20.5 -38q0 -18 15 -28.5t53 -10.5q29 0 51 2t39 6v-107zM291 95q51 0 81 36t30 108t-30 108t-81 36t-81 -36t-30 -108t30 -108t81 -36z" />
    <glyph glyph-name="Cacute" unicode="&#x106;" horiz-adv-x="581" 
d="M540 0q-24 -5 -55.5 -8.5t-63.5 -3.5q-78 0 -147 19t-120 60t-80.5 106t-29.5 158q0 97 29.5 168.5t80.5 119t119.5 70.5t145.5 23q32 0 62.5 -3.5t54.5 -8.5v-120q-21 6 -46 9.5t-60 3.5q-114 0 -178 -62t-64 -195q0 -120 64 -174.5t180 -54.5q35 0 61 3.5t47 9.5v-120z
M299 736l131 221h151l-164 -221h-118z" />
    <glyph glyph-name="cacute" unicode="&#x107;" horiz-adv-x="491" 
d="M451 -4q-21 -3 -47.5 -5.5t-55.5 -2.5q-68 0 -123.5 13t-96 41.5t-62.5 74t-22 109.5q0 67 22.5 116.5t62.5 82.5t95.5 49t121.5 16q29 0 55 -2.5t47 -5.5v-107q-18 4 -38.5 6t-50.5 2q-88 0 -133.5 -36t-45.5 -117q0 -72 46 -103.5t135 -31.5q29 0 51 2t39 6v-107z
M204 514l131 221h151l-164 -221h-118z" />
    <glyph glyph-name="Cdotaccent" unicode="&#x10a;" horiz-adv-x="581" 
d="M540 0q-24 -5 -55.5 -8.5t-63.5 -3.5q-78 0 -147 19t-120 60t-80.5 106t-29.5 158q0 97 29.5 168.5t80.5 119t119.5 70.5t145.5 23q32 0 62.5 -3.5t54.5 -8.5v-120q-21 6 -46 9.5t-60 3.5q-114 0 -178 -62t-64 -195q0 -120 64 -174.5t180 -54.5q35 0 61 3.5t47 9.5v-120z
M370 756q-34 0 -55 24.5t-21 59.5t21 58.5t56 23.5q34 0 55 -23.5t21 -58.5t-21 -59.5t-56 -24.5z" />
    <glyph glyph-name="cdotaccent" unicode="&#x10b;" horiz-adv-x="491" 
d="M451 -4q-21 -3 -47.5 -5.5t-55.5 -2.5q-68 0 -123.5 13t-96 41.5t-62.5 74t-22 109.5q0 67 22.5 116.5t62.5 82.5t95.5 49t121.5 16q29 0 55 -2.5t47 -5.5v-107q-18 4 -38.5 6t-50.5 2q-88 0 -133.5 -36t-45.5 -117q0 -72 46 -103.5t135 -31.5q29 0 51 2t39 6v-107z
M295 534q-34 0 -55 24.5t-21 59.5t21 58.5t56 23.5q34 0 55 -23.5t21 -58.5t-21 -59.5t-56 -24.5z" />
    <glyph glyph-name="Ccaron" unicode="&#x10c;" horiz-adv-x="581" 
d="M540 0q-24 -5 -55.5 -8.5t-63.5 -3.5q-78 0 -147 19t-120 60t-80.5 106t-29.5 158q0 97 29.5 168.5t80.5 119t119.5 70.5t145.5 23q32 0 62.5 -3.5t54.5 -8.5v-120q-21 6 -46 9.5t-60 3.5q-114 0 -178 -62t-64 -195q0 -120 64 -174.5t180 -54.5q35 0 61 3.5t47 9.5v-120z
M295 736l-131 221h108l99 -139l98 139h108l-131 -221h-151z" />
    <glyph glyph-name="ccaron" unicode="&#x10d;" horiz-adv-x="491" 
d="M451 -4q-21 -3 -47.5 -5.5t-55.5 -2.5q-68 0 -123.5 13t-96 41.5t-62.5 74t-22 109.5q0 67 22.5 116.5t62.5 82.5t95.5 49t121.5 16q29 0 55 -2.5t47 -5.5v-107q-18 4 -38.5 6t-50.5 2q-88 0 -133.5 -36t-45.5 -117q0 -72 46 -103.5t135 -31.5q29 0 51 2t39 6v-107z
M220 514l-131 221h108l99 -139l98 139h108l-131 -221h-151z" />
    <glyph glyph-name="Dcaron" unicode="&#x10e;" horiz-adv-x="650" 
d="M60 684q46 14 96.5 21t127.5 7q158 0 240 -97t82 -271q0 -71 -19.5 -135.5t-59 -113.5t-100.5 -78t-143 -29q-77 0 -127.5 7t-96.5 21v668zM202 107q8 -3 23 -6t38 -3q61 0 99 21t60 57.5t30 85t8 103.5q0 116 -44.5 176.5t-152.5 60.5q-23 0 -38 -3t-23 -6v-486z
M219 736l-131 221h108l99 -139l98 139h108l-131 -221h-151z" />
    <glyph glyph-name="dcaron" unicode="&#x10f;" horiz-adv-x="717" 
d="M395 700h136v-462q0 -59 -18 -105.5t-51 -78.5t-79.5 -49t-102.5 -17q-54 0 -98 20.5t-74.5 56t-47 84.5t-16.5 106q0 54 16.5 97.5t46.5 74t71.5 47t92.5 16.5q36 0 68.5 -10.5t55.5 -33.5v254zM291 95q51 0 81 36t30 108t-30 108t-81 36t-81 -36t-30 -108t30 -108
t81 -36zM581 516q23 35 30 63q-21 11 -30.5 27.5t-9.5 35.5q0 30 23 50t55 20q34 0 54 -22t20 -52q0 -56 -51 -122h-91z" />
    <glyph glyph-name="Dcroat" unicode="&#x110;" horiz-adv-x="660" 
d="M70 385h-60v113h60v186q46 14 96.5 21t127.5 7q158 0 240 -97t82 -271q0 -71 -19.5 -135.5t-59 -113.5t-100.5 -78t-143 -29q-77 0 -127.5 7t-96.5 21v369zM212 385v-278q8 -3 23 -6t38 -3q61 0 99 21t60 57.5t30 85t8 103.5q0 116 -44.5 176.5t-152.5 60.5q-23 0 -38 -3
t-23 -6v-95h113v-113h-113z" />
    <glyph glyph-name="dmacron" unicode="&#x111;" 
d="M531 559v-321q0 -59 -18 -105.5t-51 -78.5t-79.5 -49t-102.5 -17q-54 0 -98 20.5t-74.5 56t-47 84.5t-16.5 106q0 54 16.5 97.5t46.5 74t71.5 47t92.5 16.5q36 0 68.5 -10.5t55.5 -33.5v113h-197v106h197v35h136v-35h58v-106h-58zM291 95q51 0 81 36t30 108t-30 108
t-81 36t-81 -36t-30 -108t30 -108t81 -36z" />
    <glyph glyph-name="Emacron" unicode="&#x112;" horiz-adv-x="565" 
d="M60 0v700h466v-119h-324v-83h315v-113h-315v-266h326v-119h-468zM100 781v106h391v-106h-391z" />
    <glyph glyph-name="emacron" unicode="&#x113;" horiz-adv-x="573" 
d="M525 2q-10 -2 -24 -4.5t-35 -4.5t-50 -3.5t-68 -1.5q-68 0 -123.5 13.5t-96 43.5t-62.5 79t-22 120q0 48 19 92.5t53.5 78.5t82.5 54.5t107 20.5q45 0 85.5 -13t71 -40t48.5 -68.5t18 -99.5v-21t-1 -23h-356q3 -37 17 -61t38 -38t58 -19.5t76 -5.5q65 0 106 4.5t58 9.5
v-113zM392 313q0 33 -22 56.5t-67 23.5t-75 -21.5t-44 -58.5h208zM101 559v106h391v-106h-391z" />
    <glyph glyph-name="Ebreve" unicode="&#x114;" horiz-adv-x="565" 
d="M60 0v700h466v-119h-324v-83h315v-113h-315v-266h326v-119h-468zM456 957q1 -12 1.5 -23t0.5 -22q0 -53 -13.5 -87.5t-36 -54t-50.5 -27t-56 -7.5q-29 0 -56.5 7.5t-50 27t-36 54t-13.5 87.5q0 11 0.5 22t1.5 23h105q-6 -18 -8.5 -33t-2.5 -28q0 -21 5.5 -36t14.5 -24
t19.5 -13.5t20.5 -4.5t20.5 4.5t19.5 13.5t14.5 24t5.5 36q0 13 -2.5 28t-8.5 33h105z" />
    <glyph glyph-name="ebreve" unicode="&#x115;" horiz-adv-x="573" 
d="M525 2q-10 -2 -24 -4.5t-35 -4.5t-50 -3.5t-68 -1.5q-68 0 -123.5 13.5t-96 43.5t-62.5 79t-22 120q0 48 19 92.5t53.5 78.5t82.5 54.5t107 20.5q45 0 85.5 -13t71 -40t48.5 -68.5t18 -99.5v-21t-1 -23h-356q3 -37 17 -61t38 -38t58 -19.5t76 -5.5q65 0 106 4.5t58 9.5
v-113zM392 313q0 33 -22 56.5t-67 23.5t-75 -21.5t-44 -58.5h208zM450 735q1 -12 1.5 -23t0.5 -22q0 -53 -13.5 -87.5t-36 -54t-50.5 -27t-56 -7.5q-29 0 -56.5 7.5t-50 27t-36 54t-13.5 87.5q0 11 0.5 22t1.5 23h105q-6 -18 -8.5 -33t-2.5 -28q0 -21 5.5 -36t14.5 -24
t19.5 -13.5t20.5 -4.5t20.5 4.5t19.5 13.5t14.5 24t5.5 36q0 13 -2.5 28t-8.5 33h105z" />
    <glyph glyph-name="Edotaccent" unicode="&#x116;" horiz-adv-x="565" 
d="M60 0v700h466v-119h-324v-83h315v-113h-315v-266h326v-119h-468zM298 756q-34 0 -55 24.5t-21 59.5t21 58.5t56 23.5q34 0 55 -23.5t21 -58.5t-21 -59.5t-56 -24.5z" />
    <glyph glyph-name="edotaccent" unicode="&#x117;" horiz-adv-x="573" 
d="M525 2q-10 -2 -24 -4.5t-35 -4.5t-50 -3.5t-68 -1.5q-68 0 -123.5 13.5t-96 43.5t-62.5 79t-22 120q0 48 19 92.5t53.5 78.5t82.5 54.5t107 20.5q45 0 85.5 -13t71 -40t48.5 -68.5t18 -99.5v-21t-1 -23h-356q3 -37 17 -61t38 -38t58 -19.5t76 -5.5q65 0 106 4.5t58 9.5
v-113zM392 313q0 33 -22 56.5t-67 23.5t-75 -21.5t-44 -58.5h208zM296 534q-34 0 -55 24.5t-21 59.5t21 58.5t56 23.5q34 0 55 -23.5t21 -58.5t-21 -59.5t-56 -24.5z" />
    <glyph glyph-name="Eogonek" unicode="&#x118;" horiz-adv-x="565" 
d="M545 -211q-21 -3 -47.5 -5.5t-55.5 -2.5q-74 0 -113.5 24.5t-39.5 78.5q0 48 38 79.5t115 36.5h-382v700h466v-119h-324v-83h315v-113h-315v-266h326v-119q-79 -13 -110 -31.5t-31 -41.5q0 -18 15 -28.5t53 -10.5q29 0 51 2t39 6v-107z" />
    <glyph glyph-name="eogonek" unicode="&#x119;" horiz-adv-x="573" 
d="M532 -211q-21 -3 -47.5 -5.5t-55.5 -2.5q-74 0 -113.5 24.5t-39.5 78.5q0 36 21 63t65 41h-14q-68 0 -123.5 13.5t-96 43.5t-62.5 79t-22 120q0 48 19 92.5t53.5 78.5t82.5 54.5t107 20.5q45 0 85.5 -13t71 -40t48.5 -68.5t18 -99.5v-21t-1 -23h-356q3 -37 17 -61t38 -38
t58 -19.5t76 -5.5q65 0 106 4.5t58 9.5v-113q-24 -3 -49.5 -8t-51.5 -15q-27 -11 -38.5 -24.5t-11.5 -27.5q0 -18 15 -28.5t53 -10.5q29 0 51 2t39 6v-107zM392 313q0 33 -22 56.5t-67 23.5t-75 -21.5t-44 -58.5h208z" />
    <glyph glyph-name="Ecaron" unicode="&#x11a;" horiz-adv-x="565" 
d="M60 0v700h466v-119h-324v-83h315v-113h-315v-266h326v-119h-468zM222 736l-131 221h108l99 -139l98 139h108l-131 -221h-151z" />
    <glyph glyph-name="ecaron" unicode="&#x11b;" horiz-adv-x="573" 
d="M525 2q-10 -2 -24 -4.5t-35 -4.5t-50 -3.5t-68 -1.5q-68 0 -123.5 13.5t-96 43.5t-62.5 79t-22 120q0 48 19 92.5t53.5 78.5t82.5 54.5t107 20.5q45 0 85.5 -13t71 -40t48.5 -68.5t18 -99.5v-21t-1 -23h-356q3 -37 17 -61t38 -38t58 -19.5t76 -5.5q65 0 106 4.5t58 9.5
v-113zM392 313q0 33 -22 56.5t-67 23.5t-75 -21.5t-44 -58.5h208zM221 514l-131 221h108l99 -139l98 139h108l-131 -221h-151z" />
    <glyph glyph-name="Gbreve" unicode="&#x11e;" horiz-adv-x="636" 
d="M293 363v115h257q17 -21 31.5 -65.5t14.5 -122.5q0 -56 -14.5 -110t-46.5 -96.5t-85 -69t-129 -26.5q-61 0 -112 27t-87.5 73.5t-57 108t-20.5 131.5q0 91 24.5 162t71 120.5t113.5 75.5t153 26q32 0 63.5 -4.5t55.5 -9.5v-119q-17 5 -48.5 9.5t-65.5 4.5q-50 0 -91 -13
t-70 -44t-45.5 -82t-16.5 -126q0 -109 39 -165t105 -56q30 0 55 12.5t42 34.5t26.5 52.5t9.5 66.5t-4.5 56t-11.5 34h-156zM484 957q1 -12 1.5 -23t0.5 -22q0 -53 -13.5 -87.5t-36 -54t-50.5 -27t-56 -7.5q-29 0 -56.5 7.5t-50 27t-36 54t-13.5 87.5q0 11 0.5 22t1.5 23h105
q-6 -18 -8.5 -33t-2.5 -28q0 -21 5.5 -36t14.5 -24t19.5 -13.5t20.5 -4.5t20.5 4.5t19.5 13.5t14.5 24t5.5 36q0 13 -2.5 28t-8.5 33h105z" />
    <glyph glyph-name="gbreve" unicode="&#x11f;" horiz-adv-x="591" 
d="M395 45q-23 -22 -55.5 -32.5t-68.5 -10.5q-51 0 -92.5 16t-71.5 45.5t-46.5 71.5t-16.5 95q0 55 16.5 103t47 82.5t74.5 54.5t98 20q56 0 102.5 -17t79.5 -49t51 -78.5t18 -105.5v-240q0 -64 -19.5 -109.5t-57 -74t-91 -42t-120.5 -13.5q-53 0 -90 3.5t-58 8.5v107
q18 -5 54.5 -8.5t80.5 -3.5q89 0 127 31.5t38 103.5v42zM291 109q51 0 81 34.5t30 102.5t-30 102.5t-81 34.5t-81 -34.5t-30 -102.5t30 -102.5t81 -34.5zM449 735q1 -12 1.5 -23t0.5 -22q0 -53 -13.5 -87.5t-36 -54t-50.5 -27t-56 -7.5q-29 0 -56.5 7.5t-50 27t-36 54
t-13.5 87.5q0 11 0.5 22t1.5 23h105q-6 -18 -8.5 -33t-2.5 -28q0 -21 5.5 -36t14.5 -24t19.5 -13.5t20.5 -4.5t20.5 4.5t19.5 13.5t14.5 24t5.5 36q0 13 -2.5 28t-8.5 33h105z" />
    <glyph glyph-name="Gdotaccent" unicode="&#x120;" horiz-adv-x="636" 
d="M293 363v115h257q17 -21 31.5 -65.5t14.5 -122.5q0 -56 -14.5 -110t-46.5 -96.5t-85 -69t-129 -26.5q-61 0 -112 27t-87.5 73.5t-57 108t-20.5 131.5q0 91 24.5 162t71 120.5t113.5 75.5t153 26q32 0 63.5 -4.5t55.5 -9.5v-119q-17 5 -48.5 9.5t-65.5 4.5q-50 0 -91 -13
t-70 -44t-45.5 -82t-16.5 -126q0 -109 39 -165t105 -56q30 0 55 12.5t42 34.5t26.5 52.5t9.5 66.5t-4.5 56t-11.5 34h-156zM344 756q-34 0 -55 24.5t-21 59.5t21 58.5t56 23.5q34 0 55 -23.5t21 -58.5t-21 -59.5t-56 -24.5z" />
    <glyph glyph-name="gdotaccent" unicode="&#x121;" horiz-adv-x="591" 
d="M395 45q-23 -22 -55.5 -32.5t-68.5 -10.5q-51 0 -92.5 16t-71.5 45.5t-46.5 71.5t-16.5 95q0 55 16.5 103t47 82.5t74.5 54.5t98 20q56 0 102.5 -17t79.5 -49t51 -78.5t18 -105.5v-240q0 -64 -19.5 -109.5t-57 -74t-91 -42t-120.5 -13.5q-53 0 -90 3.5t-58 8.5v107
q18 -5 54.5 -8.5t80.5 -3.5q89 0 127 31.5t38 103.5v42zM291 109q51 0 81 34.5t30 102.5t-30 102.5t-81 34.5t-81 -34.5t-30 -102.5t30 -102.5t81 -34.5zM295 534q-34 0 -55 24.5t-21 59.5t21 58.5t56 23.5q34 0 55 -23.5t21 -58.5t-21 -59.5t-56 -24.5z" />
    <glyph glyph-name="Gcommaaccent" unicode="&#x122;" horiz-adv-x="636" 
d="M293 363v115h257q17 -21 31.5 -65.5t14.5 -122.5q0 -56 -14.5 -110t-46.5 -96.5t-85 -69t-129 -26.5q-61 0 -112 27t-87.5 73.5t-57 108t-20.5 131.5q0 91 24.5 162t71 120.5t113.5 75.5t153 26q32 0 63.5 -4.5t55.5 -9.5v-119q-17 5 -48.5 9.5t-65.5 4.5q-50 0 -91 -13
t-70 -44t-45.5 -82t-16.5 -126q0 -109 39 -165t105 -56q30 0 55 12.5t42 34.5t26.5 52.5t9.5 66.5t-4.5 56t-11.5 34h-156zM272 -219q23 35 30 63q-21 11 -30.5 27.5t-9.5 35.5q0 30 23 50t55 20q34 0 54 -22t20 -52q0 -56 -51 -122h-91z" />
    <glyph glyph-name="gcommaaccent" unicode="&#x123;" horiz-adv-x="591" 
d="M395 45q-23 -22 -55.5 -32.5t-68.5 -10.5q-51 0 -92.5 16t-71.5 45.5t-46.5 71.5t-16.5 95q0 55 16.5 103t47 82.5t74.5 54.5t98 20q56 0 102.5 -17t79.5 -49t51 -78.5t18 -105.5v-240q0 -64 -19.5 -109.5t-57 -74t-91 -42t-120.5 -13.5q-53 0 -90 3.5t-58 8.5v107
q18 -5 54.5 -8.5t80.5 -3.5q89 0 127 31.5t38 103.5v42zM291 109q51 0 81 34.5t30 102.5t-30 102.5t-81 34.5t-81 -34.5t-30 -102.5t30 -102.5t81 -34.5zM229 529q23 35 30 63q-21 11 -30.5 27.5t-9.5 35.5q0 30 23 50t55 20q34 0 54 -22t20 -52q0 -56 -51 -122h-91z" />
    <glyph glyph-name="Hbar" unicode="&#x126;" horiz-adv-x="640" 
d="M438 0v238h-236v-238h-142v700h142v-101h236v101h142v-700h-142zM438 348v145h-236v-145h236z" />
    <glyph glyph-name="hbar" unicode="&#x127;" horiz-adv-x="560" 
d="M196 559v-113q20 20 50.5 32t69.5 12q41 0 75 -10t59 -30.5t38.5 -51t13.5 -70.5v-328h-136v328q0 25 -17.5 40t-47.5 15q-23 0 -42.5 -7.5t-33.5 -19.5t-21.5 -28.5t-7.5 -34.5v-293h-136v559h-60v106h60v35h136v-35h195v-106h-195z" />
    <glyph glyph-name="Imacron" unicode="&#x12a;" horiz-adv-x="262" 
d="M60 0v700h142v-700h-142zM-63 781v106h391v-106h-391z" />
    <glyph glyph-name="imacron" unicode="&#x12b;" horiz-adv-x="357" 
d="M109 0v478h136v-478h-136zM-16 559v106h391v-106h-391z" />
    <glyph glyph-name="Ibreve" unicode="&#x12c;" horiz-adv-x="262" 
d="M60 0v700h142v-700h-142zM286 957q1 -12 1.5 -23t0.5 -22q0 -53 -13.5 -87.5t-36 -54t-50.5 -27t-56 -7.5q-29 0 -56.5 7.5t-50 27t-36 54t-13.5 87.5q0 11 0.5 22t1.5 23h105q-6 -18 -8.5 -33t-2.5 -28q0 -21 5.5 -36t14.5 -24t19.5 -13.5t20.5 -4.5t20.5 4.5t19.5 13.5
t14.5 24t5.5 36q0 13 -2.5 28t-8.5 33h105z" />
    <glyph glyph-name="ibreve" unicode="&#x12d;" horiz-adv-x="303" 
d="M82 0v478h136v-478h-136zM307 735q1 -12 1.5 -23t0.5 -22q0 -53 -13.5 -87.5t-36 -54t-50.5 -27t-56 -7.5q-29 0 -56.5 7.5t-50 27t-36 54t-13.5 87.5q0 11 0.5 22t1.5 23h105q-6 -18 -8.5 -33t-2.5 -28q0 -21 5.5 -36t14.5 -24t19.5 -13.5t20.5 -4.5t20.5 4.5t19.5 13.5
t14.5 24t5.5 36q0 13 -2.5 28t-8.5 33h105z" />
    <glyph glyph-name="Iogonek" unicode="&#x12e;" horiz-adv-x="262" 
d="M219 -211q-21 -3 -47.5 -5.5t-55.5 -2.5q-74 0 -113.5 24.5t-39.5 78.5q0 48 38 79.5t115 36.5h-56v700h142v-700q-79 -13 -110 -31.5t-31 -41.5q0 -18 15 -28.5t53 -10.5q29 0 51 2t39 6v-107z" />
    <glyph glyph-name="iogonek" unicode="&#x12f;" horiz-adv-x="273" 
d="M220 -211q-21 -3 -47.5 -5.5t-55.5 -2.5q-74 0 -113.5 24.5t-39.5 78.5q0 48 38 79.5t115 36.5h-50v478h136v-478q-79 -13 -110 -31.5t-31 -41.5q0 -18 15 -28.5t53 -10.5q29 0 51 2t39 6v-107zM136 534q-34 0 -55 24.5t-21 59.5t21 58.5t56 23.5q34 0 55 -23.5t21 -58.5
t-21 -59.5t-56 -24.5z" />
    <glyph glyph-name="Idotaccent" unicode="&#x130;" horiz-adv-x="262" 
d="M60 0v700h142v-700h-142zM132 756q-34 0 -55 24.5t-21 59.5t21 58.5t56 23.5q34 0 55 -23.5t21 -58.5t-21 -59.5t-56 -24.5z" />
    <glyph glyph-name="dotlessi" unicode="&#x131;" horiz-adv-x="273" 
d="M67 0v478h136v-478h-136z" />
    <glyph glyph-name="IJ" unicode="&#x132;" horiz-adv-x="678" 
d="M60 0v700h142v-700h-142zM482 700h142v-488q0 -108 -58.5 -166t-178.5 -58q-33 0 -61.5 4t-45.5 9v119q21 -6 44.5 -9.5t57.5 -3.5q54 0 77 26t23 65v502z" />
    <glyph glyph-name="ij" unicode="&#x133;" horiz-adv-x="572" 
d="M67 0v478h136v-478h-136zM136 534q-34 0 -55 24.5t-21 59.5t21 58.5t56 23.5q34 0 55 -23.5t21 -58.5t-21 -59.5t-56 -24.5zM230 -93q14 -5 28.5 -8t35.5 -3q34 0 52.5 22.5t18.5 56.5v503h136v-503q0 -47 -14 -83t-39.5 -60.5t-61 -37.5t-78.5 -13q-24 0 -45 3t-33 8
v115zM434 534q-34 0 -55 24.5t-21 59.5t21 58.5t56 23.5q34 0 55 -23.5t21 -58.5t-21 -59.5t-56 -24.5z" />
    <glyph glyph-name="Kcommaaccent" unicode="&#x136;" horiz-adv-x="612" 
d="M428 0q0 42 -1.5 97.5t-7.5 107.5q-8 67 -31.5 91.5t-67.5 24.5q-35 0 -63.5 -3.5t-54.5 -11.5v-306h-142v700h142v-284q17 6 34.5 10t37.5 7l139 267h159l-157 -270q36 -8 61.5 -24t42 -41.5t26 -60.5t14.5 -80q8 -67 10 -118.5t2 -105.5h-143zM250 -219q23 35 30 63
q-21 11 -30.5 27.5t-9.5 35.5q0 30 23 50t55 20q34 0 54 -22t20 -52q0 -56 -51 -122h-91z" />
    <glyph glyph-name="kcommaaccent" unicode="&#x137;" horiz-adv-x="574" 
d="M413 0q-1 27 -2.5 57t-5.5 58q-8 52 -31 70t-65 18q-65 0 -113 -12v-191h-136v700h136v-406q11 4 23 6.5t25 4.5l102 173h152l-115 -170q40 -5 67 -17.5t45 -33.5t28 -50t15 -68q5 -41 7.5 -74t3.5 -65h-136zM238 -219q23 35 30 63q-21 11 -30.5 27.5t-9.5 35.5
q0 30 23 50t55 20q34 0 54 -22t20 -52q0 -56 -51 -122h-91z" />
    <glyph glyph-name="Lacute" unicode="&#x139;" horiz-adv-x="518" 
d="M236 0q-52 0 -86 10t-54 30.5t-28 50.5t-8 70v539h141v-526q0 -26 12 -40.5t39 -14.5h249v-119h-265zM118 736l131 221h151l-164 -221h-118z" />
    <glyph glyph-name="lacute" unicode="&#x13a;" horiz-adv-x="256" 
d="M60 0v700h136v-700h-136zM37 736l131 221h151l-164 -221h-118z" />
    <glyph glyph-name="Lcommaaccent" unicode="&#x13b;" horiz-adv-x="518" 
d="M236 0q-52 0 -86 10t-54 30.5t-28 50.5t-8 70v539h141v-526q0 -26 12 -40.5t39 -14.5h249v-119h-265zM223 -219q23 35 30 63q-21 11 -30.5 27.5t-9.5 35.5q0 30 23 50t55 20q34 0 54 -22t20 -52q0 -56 -51 -122h-91z" />
    <glyph glyph-name="lcommaaccent" unicode="&#x13c;" horiz-adv-x="256" 
d="M60 0v700h136v-700h-136zM62 -219q23 35 30 63q-21 11 -30.5 27.5t-9.5 35.5q0 30 23 50t55 20q34 0 54 -22t20 -52q0 -56 -51 -122h-91z" />
    <glyph glyph-name="Lcaron" unicode="&#x13d;" horiz-adv-x="518" 
d="M236 0q-52 0 -86 10t-54 30.5t-28 50.5t-8 70v539h141v-526q0 -26 12 -40.5t39 -14.5h249v-119h-265zM264 516q23 35 30 63q-21 11 -30.5 27.5t-9.5 35.5q0 30 23 50t55 20q34 0 54 -22t20 -52q0 -56 -51 -122h-91z" />
    <glyph glyph-name="lcaron" unicode="&#x13e;" horiz-adv-x="383" 
d="M60 0v700h136v-700h-136zM256 516q23 35 30 63q-21 11 -30.5 27.5t-9.5 35.5q0 30 23 50t55 20q34 0 54 -22t20 -52q0 -56 -51 -122h-91z" />
    <glyph glyph-name="Ldot" unicode="&#x13f;" horiz-adv-x="518" 
d="M236 0q-52 0 -86 10t-54 30.5t-28 50.5t-8 70v539h141v-526q0 -26 12 -40.5t39 -14.5h249v-119h-265zM346 295q-34 0 -55 24.5t-21 59.5t21 58.5t56 23.5q34 0 55 -23.5t21 -58.5t-21 -59.5t-56 -24.5z" />
    <glyph glyph-name="ldot" unicode="&#x140;" horiz-adv-x="387" 
d="M60 0v700h136v-700h-136zM318 284q-34 0 -55 24.5t-21 59.5t21 58.5t56 23.5q34 0 55 -23.5t21 -58.5t-21 -59.5t-56 -24.5z" />
    <glyph glyph-name="Lslash" unicode="&#x141;" horiz-adv-x="536" 
d="M254 0q-52 0 -86 10t-54 30.5t-28 50.5t-8 70v234l-61 -24v100l61 24v205h141v-149l178 71v-100l-178 -71v-277q0 -26 12 -40.5t39 -14.5h249v-119h-265z" />
    <glyph glyph-name="lslash" unicode="&#x142;" horiz-adv-x="321" 
d="M92 0v422l-80 -25v100l80 25v178h136v-135l81 26v-100l-81 -26v-465h-136z" />
    <glyph glyph-name="Nacute" unicode="&#x143;" horiz-adv-x="637" 
d="M464 0l-279 462v-462h-128v700h144l254 -429v429h125v-700h-116zM227 736l131 221h151l-164 -221h-118z" />
    <glyph glyph-name="nacute" unicode="&#x144;" horiz-adv-x="555" 
d="M361 0v301q0 46 -20 65.5t-65 19.5t-65 -19.5t-20 -65.5v-301h-134v315q0 90 59 132.5t161 42.5t161 -42.5t59 -132.5v-315h-136zM186 514l131 221h151l-164 -221h-118z" />
    <glyph glyph-name="Ncommaaccent" unicode="&#x145;" horiz-adv-x="637" 
d="M464 0l-279 462v-462h-128v700h144l254 -429v429h125v-700h-116zM252 -219q23 35 30 63q-21 11 -30.5 27.5t-9.5 35.5q0 30 23 50t55 20q34 0 54 -22t20 -52q0 -56 -51 -122h-91z" />
    <glyph glyph-name="ncommaaccent" unicode="&#x146;" horiz-adv-x="555" 
d="M361 0v301q0 46 -20 65.5t-65 19.5t-65 -19.5t-20 -65.5v-301h-134v315q0 90 59 132.5t161 42.5t161 -42.5t59 -132.5v-315h-136zM211 -219q23 35 30 63q-21 11 -30.5 27.5t-9.5 35.5q0 30 23 50t55 20q34 0 54 -22t20 -52q0 -56 -51 -122h-91z" />
    <glyph glyph-name="Ncaron" unicode="&#x147;" horiz-adv-x="637" 
d="M464 0l-279 462v-462h-128v700h144l254 -429v429h125v-700h-116zM243 736l-131 221h108l99 -139l98 139h108l-131 -221h-151z" />
    <glyph glyph-name="ncaron" unicode="&#x148;" horiz-adv-x="555" 
d="M361 0v301q0 46 -20 65.5t-65 19.5t-65 -19.5t-20 -65.5v-301h-134v315q0 90 59 132.5t161 42.5t161 -42.5t59 -132.5v-315h-136zM202 514l-131 221h108l99 -139l98 139h108l-131 -221h-151z" />
    <glyph glyph-name="Eng" unicode="&#x14a;" horiz-adv-x="637" 
d="M309 -93q14 -5 28.5 -8t35.5 -3q34 0 58 22.5t24 56.5v40l-270 447v-462h-128v700h144l254 -429v429h125v-725q0 -47 -14 -83t-39.5 -60.5t-61 -37.5t-78.5 -13q-24 0 -45 3t-33 8v115z" />
    <glyph glyph-name="eng" unicode="&#x14b;" horiz-adv-x="555" 
d="M226 -93q14 -5 28.5 -8t35.5 -3q34 0 52.5 22.5t18.5 56.5v326q0 46 -20 65.5t-65 19.5t-65 -19.5t-20 -65.5v-301h-134v315q0 90 59 132.5t161 42.5t161 -42.5t59 -132.5v-340q0 -47 -14 -83t-39.5 -60.5t-61 -37.5t-78.5 -13q-24 0 -45 3t-33 8v115z" />
    <glyph glyph-name="Omacron" unicode="&#x14c;" horiz-adv-x="586" 
d="M293 196q-55 0 -102 19.5t-81 54t-53 81.5t-19 103t19 103t53 81.5t81 54t102 19.5t102 -19.5t81 -54t53 -81.5t19 -103t-19 -103t-53 -81.5t-81 -54t-102 -19.5zM293 310q26 0 47 11t35.5 30t22.5 45.5t8 57.5t-8 57.5t-22.5 45.5t-35.5 30t-47 11t-47 -11t-35.5 -30
t-22.5 -45.5t-8 -57.5t8 -57.5t22.5 -45.5t35.5 -30t47 -11zM71 0v119h444v-119h-444zM97 781v106h391v-106h-391z" />
    <glyph glyph-name="omacron" unicode="&#x14d;" horiz-adv-x="590" 
d="M295 -12q-54 0 -100 18.5t-79.5 52t-52.5 79.5t-19 101t19 101t52.5 79.5t79.5 52t100 18.5t100 -18.5t79.5 -52t52.5 -79.5t19 -101t-19 -101t-52.5 -79.5t-79.5 -52t-100 -18.5zM295 95q53 0 84 36t31 108t-31 108t-84 36t-84 -36t-31 -108t31 -108t84 -36zM99 559v106
h391v-106h-391z" />
    <glyph glyph-name="Obreve" unicode="&#x14e;" horiz-adv-x="586" 
d="M293 196q-55 0 -102 19.5t-81 54t-53 81.5t-19 103t19 103t53 81.5t81 54t102 19.5t102 -19.5t81 -54t53 -81.5t19 -103t-19 -103t-53 -81.5t-81 -54t-102 -19.5zM293 310q26 0 47 11t35.5 30t22.5 45.5t8 57.5t-8 57.5t-22.5 45.5t-35.5 30t-47 11t-47 -11t-35.5 -30
t-22.5 -45.5t-8 -57.5t8 -57.5t22.5 -45.5t35.5 -30t47 -11zM71 0v119h444v-119h-444zM447 957q1 -12 1.5 -23t0.5 -22q0 -53 -13.5 -87.5t-36 -54t-50.5 -27t-56 -7.5q-29 0 -56.5 7.5t-50 27t-36 54t-13.5 87.5q0 11 0.5 22t1.5 23h105q-6 -18 -8.5 -33t-2.5 -28
q0 -21 5.5 -36t14.5 -24t19.5 -13.5t20.5 -4.5t20.5 4.5t19.5 13.5t14.5 24t5.5 36q0 13 -2.5 28t-8.5 33h105z" />
    <glyph glyph-name="obreve" unicode="&#x14f;" horiz-adv-x="590" 
d="M295 -12q-54 0 -100 18.5t-79.5 52t-52.5 79.5t-19 101t19 101t52.5 79.5t79.5 52t100 18.5t100 -18.5t79.5 -52t52.5 -79.5t19 -101t-19 -101t-52.5 -79.5t-79.5 -52t-100 -18.5zM295 95q53 0 84 36t31 108t-31 108t-84 36t-84 -36t-31 -108t31 -108t84 -36zM449 735
q1 -12 1.5 -23t0.5 -22q0 -53 -13.5 -87.5t-36 -54t-50.5 -27t-56 -7.5q-29 0 -56.5 7.5t-50 27t-36 54t-13.5 87.5q0 11 0.5 22t1.5 23h105q-6 -18 -8.5 -33t-2.5 -28q0 -21 5.5 -36t14.5 -24t19.5 -13.5t20.5 -4.5t20.5 4.5t19.5 13.5t14.5 24t5.5 36q0 13 -2.5 28
t-8.5 33h105z" />
    <glyph glyph-name="Ohungarumlaut" unicode="&#x150;" horiz-adv-x="586" 
d="M293 196q-55 0 -102 19.5t-81 54t-53 81.5t-19 103t19 103t53 81.5t81 54t102 19.5t102 -19.5t81 -54t53 -81.5t19 -103t-19 -103t-53 -81.5t-81 -54t-102 -19.5zM293 310q26 0 47 11t35.5 30t22.5 45.5t8 57.5t-8 57.5t-22.5 45.5t-35.5 30t-47 11t-47 -11t-35.5 -30
t-22.5 -45.5t-8 -57.5t8 -57.5t22.5 -45.5t35.5 -30t47 -11zM71 0v119h444v-119h-444zM347 736l131 221h151l-164 -221h-118zM117 736l131 221h151l-164 -221h-118z" />
    <glyph glyph-name="ohungarumlaut" unicode="&#x151;" horiz-adv-x="590" 
d="M295 -12q-54 0 -100 18.5t-79.5 52t-52.5 79.5t-19 101t19 101t52.5 79.5t79.5 52t100 18.5t100 -18.5t79.5 -52t52.5 -79.5t19 -101t-19 -101t-52.5 -79.5t-79.5 -52t-100 -18.5zM295 95q53 0 84 36t31 108t-31 108t-84 36t-84 -36t-31 -108t31 -108t84 -36zM349 514
l131 221h151l-164 -221h-118zM119 514l131 221h151l-164 -221h-118z" />
    <glyph glyph-name="OE" unicode="&#x152;" horiz-adv-x="953" 
d="M526 0q-32 -6 -70.5 -9t-89.5 -3q-83 0 -143.5 29t-100 78t-59 113.5t-19.5 135.5q0 174 82 271t240 97q51 0 89.5 -3t70.5 -9h388v-119h-324v-83h315v-113h-315v-266h326v-119h-390zM448 593q-8 3 -23 6t-38 3q-108 0 -152.5 -60.5t-44.5 -176.5q0 -55 8 -103.5
t29.5 -85t60 -57.5t99.5 -21q23 0 38 3t23 6v486z" />
    <glyph glyph-name="oe" unicode="&#x153;" horiz-adv-x="938" 
d="M890 2q-10 -2 -24 -4.5t-35 -4.5t-50 -3.5t-68 -1.5q-78 0 -138.5 18t-98.5 60q-32 -37 -78 -57.5t-103 -20.5q-54 0 -100 18.5t-79.5 52t-52.5 79.5t-19 101t19 101t52.5 79.5t79.5 52t100 18.5q59 0 105.5 -22t78.5 -60q33 37 81.5 59.5t110.5 22.5q45 0 85.5 -13
t71 -40t48.5 -68.5t18 -99.5v-21t-1 -23h-356q3 -37 17 -61t38 -38t58 -19.5t76 -5.5q65 0 106 4.5t58 9.5v-113zM295 95q53 0 84 36t31 108t-31 108t-84 36t-84 -36t-31 -108t31 -108t84 -36zM757 313q0 33 -22 56.5t-67 23.5t-75 -21.5t-44 -58.5h208z" />
    <glyph glyph-name="Racute" unicode="&#x154;" horiz-adv-x="599" 
d="M413 0q-3 54 -9 95t-15 71.5t-21.5 53t-28.5 40.5h-17q-39 0 -68.5 8t-51.5 22v-290h-142v463q0 54 14 99.5t44.5 78.5t79 52t118.5 19q51 0 96 -14.5t78.5 -43t52.5 -71t19 -99.5q0 -56 -28.5 -106.5t-79.5 -81.5q17 -14 34 -33t31 -52t24 -83.5t14 -127.5h-144z
M202 421q25 -31 56 -45t64 -14q49 0 77 34t28 88q0 62 -30.5 91t-76.5 29q-56 0 -87 -33.5t-31 -107.5v-42zM228 736l131 221h151l-164 -221h-118z" />
    <glyph glyph-name="racute" unicode="&#x155;" horiz-adv-x="393" 
d="M57 0v274q0 103 63 159.5t175 56.5q16 0 28 -0.5t21.5 -1.5t18.5 -2.5t20 -2.5v-106q-18 3 -38 5t-36 2q-54 0 -85 -26.5t-31 -78.5v-279h-136zM135 514l131 221h151l-164 -221h-118z" />
    <glyph glyph-name="Rcommaaccent" unicode="&#x156;" horiz-adv-x="599" 
d="M413 0q-3 54 -9 95t-15 71.5t-21.5 53t-28.5 40.5h-17q-39 0 -68.5 8t-51.5 22v-290h-142v463q0 54 14 99.5t44.5 78.5t79 52t118.5 19q51 0 96 -14.5t78.5 -43t52.5 -71t19 -99.5q0 -56 -28.5 -106.5t-79.5 -81.5q17 -14 34 -33t31 -52t24 -83.5t14 -127.5h-144z
M202 421q25 -31 56 -45t64 -14q49 0 77 34t28 88q0 62 -30.5 91t-76.5 29q-56 0 -87 -33.5t-31 -107.5v-42zM243 -219q23 35 30 63q-21 11 -30.5 27.5t-9.5 35.5q0 30 23 50t55 20q34 0 54 -22t20 -52q0 -56 -51 -122h-91z" />
    <glyph glyph-name="rcommaaccent" unicode="&#x157;" horiz-adv-x="393" 
d="M57 0v274q0 103 63 159.5t175 56.5q16 0 28 -0.5t21.5 -1.5t18.5 -2.5t20 -2.5v-106q-18 3 -38 5t-36 2q-54 0 -85 -26.5t-31 -78.5v-279h-136zM60 -219q23 35 30 63q-21 11 -30.5 27.5t-9.5 35.5q0 30 23 50t55 20q34 0 54 -22t20 -52q0 -56 -51 -122h-91z" />
    <glyph glyph-name="Rcaron" unicode="&#x158;" horiz-adv-x="599" 
d="M413 0q-3 54 -9 95t-15 71.5t-21.5 53t-28.5 40.5h-17q-39 0 -68.5 8t-51.5 22v-290h-142v463q0 54 14 99.5t44.5 78.5t79 52t118.5 19q51 0 96 -14.5t78.5 -43t52.5 -71t19 -99.5q0 -56 -28.5 -106.5t-79.5 -81.5q17 -14 34 -33t31 -52t24 -83.5t14 -127.5h-144z
M202 421q25 -31 56 -45t64 -14q49 0 77 34t28 88q0 62 -30.5 91t-76.5 29q-56 0 -87 -33.5t-31 -107.5v-42zM234 736l-131 221h108l99 -139l98 139h108l-131 -221h-151z" />
    <glyph glyph-name="rcaron" unicode="&#x159;" horiz-adv-x="393" 
d="M57 0v274q0 103 63 159.5t175 56.5q16 0 28 -0.5t21.5 -1.5t18.5 -2.5t20 -2.5v-106q-18 3 -38 5t-36 2q-54 0 -85 -26.5t-31 -78.5v-279h-136zM152 514l-131 221h108l99 -139l98 139h108l-131 -221h-151z" />
    <glyph glyph-name="Sacute" unicode="&#x15a;" horiz-adv-x="550" 
d="M36 120q32 -8 71.5 -11t84.5 -3q97 0 146 21.5t49 78.5q0 24 -14.5 41t-37.5 30q-24 13 -55 24t-64 23t-64.5 26.5t-56.5 34.5q-27 22 -43.5 52t-16.5 72q0 52 23.5 90.5t64.5 63.5t96 37t119 12q35 0 68.5 -2.5t67.5 -9.5v-119q-64 13 -131 13q-81 0 -129 -17.5
t-48 -60.5q0 -26 22 -43t56 -32q24 -11 51 -21t55 -21.5t54 -25t49 -30.5q32 -24 50.5 -57.5t18.5 -81.5q0 -70 -31.5 -112.5t-79.5 -65.5t-106 -30.5t-112 -7.5q-38 0 -80 2.5t-77 9.5v120zM224 736l131 221h151l-164 -221h-118z" />
    <glyph glyph-name="sacute" unicode="&#x15b;" horiz-adv-x="488" 
d="M29 111q27 -5 65.5 -8.5t91.5 -3.5q72 0 109.5 11t37.5 37q0 14 -10 23t-33 15t-49 10.5t-52.5 10t-52 12.5t-47.5 18q-29 15 -45 37.5t-16 64.5q0 37 21 65t57.5 47.5t86.5 29.5t107 10q31 0 61 -2.5t61 -7.5v-108q-26 5 -60 7.5t-81 2.5q-54 0 -86 -6.5t-32 -32.5
q0 -13 10 -19t42 -12q48 -8 92.5 -17.5t82.5 -22.5q39 -14 57 -45.5t18 -66.5q0 -57 -27.5 -91t-69.5 -52t-91.5 -23.5t-92.5 -5.5q-52 0 -90.5 3t-64.5 8v112zM163 514l131 221h151l-164 -221h-118z" />
    <glyph glyph-name="Scedilla" unicode="&#x15e;" horiz-adv-x="550" 
d="M36 120q32 -8 71.5 -11t84.5 -3q97 0 146 21.5t49 78.5q0 24 -14.5 41t-37.5 30q-24 13 -55 24t-64 23t-64.5 26.5t-56.5 34.5q-27 22 -43.5 52t-16.5 72q0 52 23.5 90.5t64.5 63.5t96 37t119 12q35 0 68.5 -2.5t67.5 -9.5v-119q-64 13 -131 13q-81 0 -129 -17.5
t-48 -60.5q0 -26 22 -43t56 -32q24 -11 51 -21t55 -21.5t54 -25t49 -30.5q32 -24 50.5 -57.5t18.5 -81.5q0 -70 -31.5 -112.5t-79.5 -65.5t-106 -30.5t-112 -7.5q-38 0 -80 2.5t-77 9.5v120zM209 -219q23 35 30 63q-21 11 -30.5 27.5t-9.5 35.5q0 30 23 50t55 20
q34 0 54 -22t20 -52q0 -56 -51 -122h-91z" />
    <glyph glyph-name="scedilla" unicode="&#x15f;" horiz-adv-x="488" 
d="M29 111q27 -5 65.5 -8.5t91.5 -3.5q72 0 109.5 11t37.5 37q0 14 -10 23t-33 15t-49 10.5t-52.5 10t-52 12.5t-47.5 18q-29 15 -45 37.5t-16 64.5q0 37 21 65t57.5 47.5t86.5 29.5t107 10q31 0 61 -2.5t61 -7.5v-108q-26 5 -60 7.5t-81 2.5q-54 0 -86 -6.5t-32 -32.5
q0 -13 10 -19t42 -12q48 -8 92.5 -17.5t82.5 -22.5q39 -14 57 -45.5t18 -66.5q0 -57 -27.5 -91t-69.5 -52t-91.5 -23.5t-92.5 -5.5q-52 0 -90.5 3t-64.5 8v112zM178 -219q23 35 30 63q-21 11 -30.5 27.5t-9.5 35.5q0 30 23 50t55 20q34 0 54 -22t20 -52q0 -56 -51 -122h-91z
" />
    <glyph glyph-name="Scaron" unicode="&#x160;" horiz-adv-x="550" 
d="M36 120q32 -8 71.5 -11t84.5 -3q97 0 146 21.5t49 78.5q0 24 -14.5 41t-37.5 30q-24 13 -55 24t-64 23t-64.5 26.5t-56.5 34.5q-27 22 -43.5 52t-16.5 72q0 52 23.5 90.5t64.5 63.5t96 37t119 12q35 0 68.5 -2.5t67.5 -9.5v-119q-64 13 -131 13q-81 0 -129 -17.5
t-48 -60.5q0 -26 22 -43t56 -32q24 -11 51 -21t55 -21.5t54 -25t49 -30.5q32 -24 50.5 -57.5t18.5 -81.5q0 -70 -31.5 -112.5t-79.5 -65.5t-106 -30.5t-112 -7.5q-38 0 -80 2.5t-77 9.5v120zM209 736l-131 221h108l99 -139l98 139h108l-131 -221h-151z" />
    <glyph glyph-name="scaron" unicode="&#x161;" horiz-adv-x="488" 
d="M29 111q27 -5 65.5 -8.5t91.5 -3.5q72 0 109.5 11t37.5 37q0 14 -10 23t-33 15t-49 10.5t-52.5 10t-52 12.5t-47.5 18q-29 15 -45 37.5t-16 64.5q0 37 21 65t57.5 47.5t86.5 29.5t107 10q31 0 61 -2.5t61 -7.5v-108q-26 5 -60 7.5t-81 2.5q-54 0 -86 -6.5t-32 -32.5
q0 -13 10 -19t42 -12q48 -8 92.5 -17.5t82.5 -22.5q39 -14 57 -45.5t18 -66.5q0 -57 -27.5 -91t-69.5 -52t-91.5 -23.5t-92.5 -5.5q-52 0 -90.5 3t-64.5 8v112zM168 514l-131 221h108l99 -139l98 139h108l-131 -221h-151z" />
    <glyph glyph-name="Tcedilla" unicode="&#x162;" horiz-adv-x="558" 
d="M208 0v581h-194v119h530v-119h-194v-581h-142zM213 -219q23 35 30 63q-21 11 -30.5 27.5t-9.5 35.5q0 30 23 50t55 20q34 0 54 -22t20 -52q0 -56 -51 -122h-91z" />
    <glyph glyph-name="tcedilla" unicode="&#x163;" horiz-adv-x="336" 
d="M324 11q-12 -5 -33 -8t-45 -3q-43 0 -78.5 13t-61 37.5t-39.5 60.5t-14 83v427h136v-143h120v-105h-120v-179q0 -34 18.5 -56.5t52.5 -22.5q21 0 35.5 3t28.5 8v-115zM132 -219q23 35 30 63q-21 11 -30.5 27.5t-9.5 35.5q0 30 23 50t55 20q34 0 54 -22t20 -52
q0 -56 -51 -122h-91z" />
    <glyph glyph-name="Tcaron" unicode="&#x164;" horiz-adv-x="558" 
d="M208 0v581h-194v119h530v-119h-194v-581h-142zM203 736l-131 221h108l99 -139l98 139h108l-131 -221h-151z" />
    <glyph glyph-name="tcaron" unicode="&#x165;" horiz-adv-x="336" 
d="M324 11q-12 -5 -33 -8t-45 -3q-43 0 -78.5 13t-61 37.5t-39.5 60.5t-14 83v427h136v-143h120v-105h-120v-179q0 -34 18.5 -56.5t52.5 -22.5q21 0 35.5 3t28.5 8v-115zM275 516q23 35 30 63q-21 11 -30.5 27.5t-9.5 35.5q0 30 23 50t55 20q34 0 54 -22t20 -52
q0 -56 -51 -122h-91z" />
    <glyph glyph-name="Tbar" unicode="&#x166;" horiz-adv-x="558" 
d="M208 0v378h-91v100h91v103h-194v119h530v-119h-194v-103h91v-100h-91v-378h-142z" />
    <glyph glyph-name="tbar" unicode="&#x167;" horiz-adv-x="336" 
d="M189 214v-20q0 -34 18.5 -56.5t52.5 -22.5q21 0 35.5 3t28.5 8v-115q-12 -5 -33 -8t-45 -3q-43 0 -78.5 13t-61 37.5t-39.5 60.5t-14 83v20h-48v100h48v307h136v-143h120v-105h-120v-59h118v-100h-118z" />
    <glyph glyph-name="Utilde" unicode="&#x168;" horiz-adv-x="620" 
d="M429 700h136v-489q0 -51 -19.5 -92.5t-53.5 -70.5t-80.5 -44.5t-100.5 -15.5q-57 0 -104.5 15.5t-81 44.5t-52 70.5t-18.5 92.5v489h142v-489q0 -54 27.5 -82t87.5 -28t88.5 26.5t28.5 83.5v489zM505 808q-20 -22 -43.5 -32t-68.5 -10q-23 0 -45 6t-43.5 13.5t-43 14
t-43.5 6.5q-38 0 -61 -9.5t-43 -29.5v97q20 22 43.5 32t68.5 10q22 0 44 -6.5t43.5 -14t43.5 -13.5t44 -6q38 0 61 9.5t43 29.5v-97z" />
    <glyph glyph-name="utilde" unicode="&#x169;" horiz-adv-x="549" 
d="M357 478h134v-315q0 -45 -16 -78t-44.5 -54.5t-68.5 -32t-88 -10.5t-88 10.5t-68.5 32t-44.5 54.5t-16 78v315h136v-301q0 -46 19 -65.5t63 -19.5t63 19.5t19 65.5v301zM470 586q-20 -22 -43.5 -32t-68.5 -10q-23 0 -45 6t-43.5 13.5t-43 14t-43.5 6.5q-38 0 -61 -9.5
t-43 -29.5v97q20 22 43.5 32t68.5 10q22 0 44 -6.5t43.5 -14t43.5 -13.5t44 -6q38 0 61 9.5t43 29.5v-97z" />
    <glyph glyph-name="Umacron" unicode="&#x16a;" horiz-adv-x="620" 
d="M429 700h136v-489q0 -51 -19.5 -92.5t-53.5 -70.5t-80.5 -44.5t-100.5 -15.5q-57 0 -104.5 15.5t-81 44.5t-52 70.5t-18.5 92.5v489h142v-489q0 -54 27.5 -82t87.5 -28t88.5 26.5t28.5 83.5v489zM114 781v106h391v-106h-391z" />
    <glyph glyph-name="umacron" unicode="&#x16b;" horiz-adv-x="549" 
d="M357 478h134v-315q0 -45 -16 -78t-44.5 -54.5t-68.5 -32t-88 -10.5t-88 10.5t-68.5 32t-44.5 54.5t-16 78v315h136v-301q0 -46 19 -65.5t63 -19.5t63 19.5t19 65.5v301zM79 559v106h391v-106h-391z" />
    <glyph glyph-name="Ubreve" unicode="&#x16c;" horiz-adv-x="620" 
d="M429 700h136v-489q0 -51 -19.5 -92.5t-53.5 -70.5t-80.5 -44.5t-100.5 -15.5q-57 0 -104.5 15.5t-81 44.5t-52 70.5t-18.5 92.5v489h142v-489q0 -54 27.5 -82t87.5 -28t88.5 26.5t28.5 83.5v489zM464 957q1 -12 1.5 -23t0.5 -22q0 -53 -13.5 -87.5t-36 -54t-50.5 -27
t-56 -7.5q-29 0 -56.5 7.5t-50 27t-36 54t-13.5 87.5q0 11 0.5 22t1.5 23h105q-6 -18 -8.5 -33t-2.5 -28q0 -21 5.5 -36t14.5 -24t19.5 -13.5t20.5 -4.5t20.5 4.5t19.5 13.5t14.5 24t5.5 36q0 13 -2.5 28t-8.5 33h105z" />
    <glyph glyph-name="ubreve" unicode="&#x16d;" horiz-adv-x="549" 
d="M357 478h134v-315q0 -45 -16 -78t-44.5 -54.5t-68.5 -32t-88 -10.5t-88 10.5t-68.5 32t-44.5 54.5t-16 78v315h136v-301q0 -46 19 -65.5t63 -19.5t63 19.5t19 65.5v301zM428 735q1 -12 1.5 -23t0.5 -22q0 -53 -13.5 -87.5t-36 -54t-50.5 -27t-56 -7.5q-29 0 -56.5 7.5
t-50 27t-36 54t-13.5 87.5q0 11 0.5 22t1.5 23h105q-6 -18 -8.5 -33t-2.5 -28q0 -21 5.5 -36t14.5 -24t19.5 -13.5t20.5 -4.5t20.5 4.5t19.5 13.5t14.5 24t5.5 36q0 13 -2.5 28t-8.5 33h105z" />
    <glyph glyph-name="Uring" unicode="&#x16e;" horiz-adv-x="620" 
d="M429 700h136v-489q0 -51 -19.5 -92.5t-53.5 -70.5t-80.5 -44.5t-100.5 -15.5q-57 0 -104.5 15.5t-81 44.5t-52 70.5t-18.5 92.5v489h142v-489q0 -54 27.5 -82t87.5 -28t88.5 26.5t28.5 83.5v489zM431 838q0 -52 -34 -85t-87 -33q-52 0 -86.5 33t-34.5 85q0 53 34.5 86
t86.5 33q53 0 87 -33t34 -86zM310 785q24 0 37.5 13.5t13.5 39.5t-13.5 39t-37.5 13q-23 0 -37 -13t-14 -39t14 -39.5t37 -13.5z" />
    <glyph glyph-name="uring" unicode="&#x16f;" horiz-adv-x="549" 
d="M357 478h134v-315q0 -45 -16 -78t-44.5 -54.5t-68.5 -32t-88 -10.5t-88 10.5t-68.5 32t-44.5 54.5t-16 78v315h136v-301q0 -46 19 -65.5t63 -19.5t63 19.5t19 65.5v301zM395 616q0 -52 -34 -85t-87 -33q-52 0 -86.5 33t-34.5 85q0 53 34.5 86t86.5 33q53 0 87 -33t34 -86
zM274 563q24 0 37.5 13.5t13.5 39.5t-13.5 39t-37.5 13q-23 0 -37 -13t-14 -39t14 -39.5t37 -13.5z" />
    <glyph glyph-name="Uhungarumlaut" unicode="&#x170;" horiz-adv-x="620" 
d="M429 700h136v-489q0 -51 -19.5 -92.5t-53.5 -70.5t-80.5 -44.5t-100.5 -15.5q-57 0 -104.5 15.5t-81 44.5t-52 70.5t-18.5 92.5v489h142v-489q0 -54 27.5 -82t87.5 -28t88.5 26.5t28.5 83.5v489zM354 736l131 221h151l-164 -221h-118zM124 736l131 221h151l-164 -221
h-118z" />
    <glyph glyph-name="uhungarumlaut" unicode="&#x171;" horiz-adv-x="549" 
d="M357 478h134v-315q0 -45 -16 -78t-44.5 -54.5t-68.5 -32t-88 -10.5t-88 10.5t-68.5 32t-44.5 54.5t-16 78v315h136v-301q0 -46 19 -65.5t63 -19.5t63 19.5t19 65.5v301zM328 514l131 221h151l-164 -221h-118zM98 514l131 221h151l-164 -221h-118z" />
    <glyph glyph-name="Uogonek" unicode="&#x172;" horiz-adv-x="620" 
d="M425 -211q-21 -3 -47.5 -5.5t-55.5 -2.5q-74 0 -113.5 24.5t-39.5 78.5q0 38 23.5 66t71.5 41q-96 12 -152.5 69.5t-56.5 150.5v489h142v-489q0 -54 27.5 -82t87.5 -28t88.5 26.5t28.5 83.5v489h136v-489q0 -44 -14.5 -80.5t-40 -64t-61 -46t-78.5 -27.5
q-57 -11 -80.5 -28.5t-23.5 -37.5q0 -18 15 -28.5t53 -10.5q29 0 51 2t39 6v-107z" />
    <glyph glyph-name="uogonek" unicode="&#x173;" horiz-adv-x="549" 
d="M391 -211q-21 -3 -47.5 -5.5t-55.5 -2.5q-74 0 -113.5 24.5t-39.5 78.5q0 38 23 65.5t71 41.5q-78 8 -125 50t-47 122v315h136v-301q0 -46 19 -65.5t63 -19.5t63 19.5t19 65.5v301h134v-315q0 -75 -42 -115.5t-112 -54.5q-59 -11 -81.5 -28.5t-22.5 -37.5q0 -18 15 -28.5
t53 -10.5q29 0 51 2t39 6v-107z" />
    <glyph glyph-name="Wcircumflex" unicode="&#x174;" horiz-adv-x="859" 
d="M525 0l-96 270l-95 -270h-127l-199 700h150l135 -515l81 228l-111 287h128l40 -130l41 130h123l-107 -280l84 -235l133 515h145l-198 -700h-127zM528 736l-99 139l-98 -139h-108l131 221h151l131 -221h-108z" />
    <glyph glyph-name="wcircumflex" unicode="&#x175;" horiz-adv-x="690" 
d="M409 0l-65 163l-65 -163h-102l-172 478h140l102 -309l43 97l-95 212h116l36 -94l38 94h109l-93 -206l46 -103l104 309h133l-173 -478h-102zM443 514l-99 139l-98 -139h-108l131 221h151l131 -221h-108z" />
    <glyph glyph-name="Ycircumflex" unicode="&#x176;" 
d="M225 0v309l-225 391h167l135 -250l129 250h157l-220 -390v-310h-143zM393 736l-99 139l-98 -139h-108l131 221h151l131 -221h-108z" />
    <glyph glyph-name="ycircumflex" unicode="&#x177;" horiz-adv-x="527" 
d="M44 -109q9 -1 16.5 -1.5t15.5 -0.5q28 0 48 5t34 18t25 35t23 57l-201 474h149l116 -308l105 308h146l-214 -551q-13 -35 -31 -62t-44 -45.5t-61.5 -28.5t-83.5 -10h-21t-22 2v108zM362 514l-99 139l-98 -139h-108l131 221h151l131 -221h-108z" />
    <glyph glyph-name="Ydieresis" unicode="&#x178;" 
d="M225 0v309l-225 391h167l135 -250l129 250h157l-220 -390v-310h-143zM400 756q-34 0 -55 24.5t-21 59.5t21 58.5t56 23.5q34 0 55 -23.5t21 -58.5t-21 -59.5t-56 -24.5zM187 756q-34 0 -55 24.5t-21 59.5t21 58.5t56 23.5q34 0 55 -23.5t21 -58.5t-21 -59.5t-56 -24.5z
" />
    <glyph glyph-name="Zacute" unicode="&#x179;" horiz-adv-x="610" 
d="M28 0v104l329 477h-298v119h485v-90l-331 -491h368v-119h-553zM221 736l131 221h151l-164 -221h-118z" />
    <glyph glyph-name="zacute" unicode="&#x17a;" horiz-adv-x="524" 
d="M30 0v95l269 278h-250v105h432v-80l-263 -286h281v-112h-469zM179 514l131 221h151l-164 -221h-118z" />
    <glyph glyph-name="Zdotaccent" unicode="&#x17b;" horiz-adv-x="610" 
d="M28 0v104l329 477h-298v119h485v-90l-331 -491h368v-119h-553zM312 756q-34 0 -55 24.5t-21 59.5t21 58.5t56 23.5q34 0 55 -23.5t21 -58.5t-21 -59.5t-56 -24.5z" />
    <glyph glyph-name="zdotaccent" unicode="&#x17c;" horiz-adv-x="524" 
d="M30 0v95l269 278h-250v105h432v-80l-263 -286h281v-112h-469zM269 534q-34 0 -55 24.5t-21 59.5t21 58.5t56 23.5q34 0 55 -23.5t21 -58.5t-21 -59.5t-56 -24.5z" />
    <glyph glyph-name="Zcaron" unicode="&#x17d;" horiz-adv-x="610" 
d="M28 0v104l329 477h-298v119h485v-90l-331 -491h368v-119h-553zM236 736l-131 221h108l99 -139l98 139h108l-131 -221h-151z" />
    <glyph glyph-name="zcaron" unicode="&#x17e;" horiz-adv-x="524" 
d="M30 0v95l269 278h-250v105h432v-80l-263 -286h281v-112h-469zM194 514l-131 221h108l99 -139l98 139h108l-131 -221h-151z" />
    <glyph glyph-name="florin" unicode="&#x192;" horiz-adv-x="346" 
d="M-60 -93q14 -5 28.5 -8t35.5 -3q34 0 52.5 22.5t18.5 56.5v398h-66v105h66v40q0 46 14 82.5t39.5 61t61 37.5t78.5 13q24 0 45 -3t33 -8v-115q-14 5 -28.5 8t-35.5 3q-34 0 -52.5 -22.5t-18.5 -56.5v-40h89v-105h-89v-398q0 -47 -14 -83t-39.5 -60.5t-61 -37.5t-78.5 -13
q-24 0 -45 3t-33 8v115z" />
    <glyph glyph-name="Scommaaccent" unicode="&#x218;" horiz-adv-x="550" 
d="M36 120q32 -8 71.5 -11t84.5 -3q97 0 146 21.5t49 78.5q0 24 -14.5 41t-37.5 30q-24 13 -55 24t-64 23t-64.5 26.5t-56.5 34.5q-27 22 -43.5 52t-16.5 72q0 52 23.5 90.5t64.5 63.5t96 37t119 12q35 0 68.5 -2.5t67.5 -9.5v-119q-64 13 -131 13q-81 0 -129 -17.5
t-48 -60.5q0 -26 22 -43t56 -32q24 -11 51 -21t55 -21.5t54 -25t49 -30.5q32 -24 50.5 -57.5t18.5 -81.5q0 -70 -31.5 -112.5t-79.5 -65.5t-106 -30.5t-112 -7.5q-38 0 -80 2.5t-77 9.5v120zM209 -219q23 35 30 63q-21 11 -30.5 27.5t-9.5 35.5q0 30 23 50t55 20
q34 0 54 -22t20 -52q0 -56 -51 -122h-91z" />
    <glyph glyph-name="scommaaccent" unicode="&#x219;" horiz-adv-x="488" 
d="M29 111q27 -5 65.5 -8.5t91.5 -3.5q72 0 109.5 11t37.5 37q0 14 -10 23t-33 15t-49 10.5t-52.5 10t-52 12.5t-47.5 18q-29 15 -45 37.5t-16 64.5q0 37 21 65t57.5 47.5t86.5 29.5t107 10q31 0 61 -2.5t61 -7.5v-108q-26 5 -60 7.5t-81 2.5q-54 0 -86 -6.5t-32 -32.5
q0 -13 10 -19t42 -12q48 -8 92.5 -17.5t82.5 -22.5q39 -14 57 -45.5t18 -66.5q0 -57 -27.5 -91t-69.5 -52t-91.5 -23.5t-92.5 -5.5q-52 0 -90.5 3t-64.5 8v112zM178 -219q23 35 30 63q-21 11 -30.5 27.5t-9.5 35.5q0 30 23 50t55 20q34 0 54 -22t20 -52q0 -56 -51 -122h-91z
" />
    <glyph glyph-name="uni021A" unicode="&#x21a;" horiz-adv-x="558" 
d="M208 0v581h-194v119h530v-119h-194v-581h-142zM213 -219q23 35 30 63q-21 11 -30.5 27.5t-9.5 35.5q0 30 23 50t55 20q34 0 54 -22t20 -52q0 -56 -51 -122h-91z" />
    <glyph glyph-name="uni021B" unicode="&#x21b;" horiz-adv-x="336" 
d="M324 11q-12 -5 -33 -8t-45 -3q-43 0 -78.5 13t-61 37.5t-39.5 60.5t-14 83v427h136v-143h120v-105h-120v-179q0 -34 18.5 -56.5t52.5 -22.5q21 0 35.5 3t28.5 8v-115zM132 -219q23 35 30 63q-21 11 -30.5 27.5t-9.5 35.5q0 30 23 50t55 20q34 0 54 -22t20 -52
q0 -56 -51 -122h-91z" />
    <glyph glyph-name="circumflex" unicode="&#x2c6;" horiz-adv-x="457" 
d="M327 514l-99 139l-98 -139h-108l131 221h151l131 -221h-108z" />
    <glyph glyph-name="caron" unicode="&#x2c7;" horiz-adv-x="457" 
d="M153 514l-131 221h108l99 -139l98 139h108l-131 -221h-151z" />
    <glyph glyph-name="breve" unicode="&#x2d8;" horiz-adv-x="404" 
d="M356 735q1 -12 1.5 -23t0.5 -22q0 -53 -13.5 -87.5t-36 -54t-50.5 -27t-56 -7.5q-29 0 -56.5 7.5t-50 27t-36 54t-13.5 87.5q0 11 0.5 22t1.5 23h105q-6 -18 -8.5 -33t-2.5 -28q0 -21 5.5 -36t14.5 -24t19.5 -13.5t20.5 -4.5t20.5 4.5t19.5 13.5t14.5 24t5.5 36
q0 13 -2.5 28t-8.5 33h105z" />
    <glyph glyph-name="dotaccent" unicode="&#x2d9;" horiz-adv-x="269" 
d="M134 534q-34 0 -55 24.5t-21 59.5t21 58.5t56 23.5q34 0 55 -23.5t21 -58.5t-21 -59.5t-56 -24.5z" />
    <glyph glyph-name="ring" unicode="&#x2da;" horiz-adv-x="360" 
d="M277 616q0 -52 -34 -85t-87 -33q-52 0 -86.5 33t-34.5 85q0 53 34.5 86t86.5 33q53 0 87 -33t34 -86zM156 563q24 0 37.5 13.5t13.5 39.5t-13.5 39t-37.5 13q-23 0 -37 -13t-14 -39t14 -39.5t37 -13.5z" />
    <glyph glyph-name="ogonek" unicode="&#x2db;" horiz-adv-x="302" 
d="M279 -211q-21 -3 -47.5 -5.5t-55.5 -2.5q-74 0 -113.5 24.5t-39.5 78.5q0 48 38 79.5t115 36.5h86q-79 -13 -110 -31.5t-31 -41.5q0 -18 15 -28.5t53 -10.5q29 0 51 2t39 6v-107z" />
    <glyph glyph-name="tilde" unicode="&#x2dc;" horiz-adv-x="421" 
d="M406 586q-20 -22 -43.5 -32t-68.5 -10q-23 0 -45 6t-43.5 13.5t-43 14t-43.5 6.5q-38 0 -61 -9.5t-43 -29.5v97q20 22 43.5 32t68.5 10q22 0 44 -6.5t43.5 -14t43.5 -13.5t44 -6q38 0 61 9.5t43 29.5v-97z" />
    <glyph glyph-name="hungarumlaut" unicode="&#x2dd;" horiz-adv-x="534" 
d="M241 514l131 221h151l-164 -221h-118zM11 514l131 221h151l-164 -221h-118z" />
    <glyph glyph-name="Delta" unicode="&#x394;" horiz-adv-x="628" 
d="M5 0l246 700h125l246 -700h-617zM312 505l-122 -386h243z" />
    <glyph glyph-name="Omega" unicode="&#x3a9;" horiz-adv-x="700" 
d="M387 0v121q40 48 65 86.5t38 73t17.5 69t4.5 74.5q0 44 -11 74.5t-32 49t-51 27t-69 8.5q-77 0 -120 -35.5t-43 -123.5q0 -40 4.5 -74.5t18 -69t38 -73t65.5 -86.5v-121h-257v129h120q-32 42 -54.5 77t-37 68t-21.5 66.5t-7 72.5q0 147 73.5 223t220.5 76
q148 0 221.5 -76t73.5 -223q0 -39 -7 -72.5t-21.5 -66.5t-37 -68t-54.5 -77h120v-129h-257z" />
    <glyph glyph-name="mu" unicode="&#x3bc;" horiz-adv-x="560" 
d="M502 478v-328q0 -41 -13.5 -71t-38.5 -50.5t-59 -30.5t-75 -10q-39 0 -69.5 12t-50.5 32v-251h-136v697h136v-293q0 -18 7.5 -34.5t21.5 -28.5t33.5 -19.5t42.5 -7.5q30 0 47.5 15t17.5 40v328h136z" />
    <glyph glyph-name="pi" unicode="&#x3c0;" horiz-adv-x="629" 
d="M603 11q-12 -5 -33 -8t-45 -3q-43 0 -78.5 13t-61 37.5t-39.5 60.5t-14 83v179h-129v-373h-136v478h401v-284q0 -34 18.5 -56.5t52.5 -22.5q21 0 35.5 3t28.5 8v-115z" />
    <glyph glyph-name="Wgrave" unicode="&#x1e80;" horiz-adv-x="859" 
d="M525 0l-96 270l-95 -270h-127l-199 700h150l135 -515l81 228l-111 287h128l40 -130l41 130h123l-107 -280l84 -235l133 515h145l-198 -700h-127zM402 736l-164 221h151l131 -221h-118z" />
    <glyph glyph-name="wgrave" unicode="&#x1e81;" horiz-adv-x="690" 
d="M409 0l-65 163l-65 -163h-102l-172 478h140l102 -309l43 97l-95 212h116l36 -94l38 94h109l-93 -206l46 -103l104 309h133l-173 -478h-102zM318 514l-164 221h151l131 -221h-118z" />
    <glyph glyph-name="Wacute" unicode="&#x1e82;" horiz-adv-x="859" 
d="M525 0l-96 270l-95 -270h-127l-199 700h150l135 -515l81 228l-111 287h128l40 -130l41 130h123l-107 -280l84 -235l133 515h145l-198 -700h-127zM338 736l131 221h151l-164 -221h-118z" />
    <glyph glyph-name="wacute" unicode="&#x1e83;" horiz-adv-x="690" 
d="M409 0l-65 163l-65 -163h-102l-172 478h140l102 -309l43 97l-95 212h116l36 -94l38 94h109l-93 -206l46 -103l104 309h133l-173 -478h-102zM254 514l131 221h151l-164 -221h-118z" />
    <glyph glyph-name="Wdieresis" unicode="&#x1e84;" horiz-adv-x="859" 
d="M525 0l-96 270l-95 -270h-127l-199 700h150l135 -515l81 228l-111 287h128l40 -130l41 130h123l-107 -280l84 -235l133 515h145l-198 -700h-127zM535 756q-34 0 -55 24.5t-21 59.5t21 58.5t56 23.5q34 0 55 -23.5t21 -58.5t-21 -59.5t-56 -24.5zM322 756q-34 0 -55 24.5
t-21 59.5t21 58.5t56 23.5q34 0 55 -23.5t21 -58.5t-21 -59.5t-56 -24.5z" />
    <glyph glyph-name="wdieresis" unicode="&#x1e85;" horiz-adv-x="690" 
d="M409 0l-65 163l-65 -163h-102l-172 478h140l102 -309l43 97l-95 212h116l36 -94l38 94h109l-93 -206l46 -103l104 309h133l-173 -478h-102zM451 534q-34 0 -55 24.5t-21 59.5t21 58.5t56 23.5q34 0 55 -23.5t21 -58.5t-21 -59.5t-56 -24.5zM238 534q-34 0 -55 24.5
t-21 59.5t21 58.5t56 23.5q34 0 55 -23.5t21 -58.5t-21 -59.5t-56 -24.5z" />
    <glyph glyph-name="Ygrave" unicode="&#x1ef2;" 
d="M225 0v309l-225 391h167l135 -250l129 250h157l-220 -390v-310h-143zM267 736l-164 221h151l131 -221h-118z" />
    <glyph glyph-name="ygrave" unicode="&#x1ef3;" horiz-adv-x="527" 
d="M44 -109q9 -1 16.5 -1.5t15.5 -0.5q28 0 48 5t34 18t25 35t23 57l-201 474h149l116 -308l105 308h146l-214 -551q-13 -35 -31 -62t-44 -45.5t-61.5 -28.5t-83.5 -10h-21t-22 2v108zM236 514l-164 221h151l131 -221h-118z" />
    <glyph glyph-name="endash" unicode="&#x2013;" horiz-adv-x="441" 
d="M25 270v100h391v-100h-391z" />
    <glyph glyph-name="emdash" unicode="&#x2014;" horiz-adv-x="638" 
d="M25 270v100h588v-100h-588z" />
    <glyph glyph-name="quoteleft" unicode="&#x2018;" horiz-adv-x="270" 
d="M222 712q-20 -29 -31.5 -51.5t-17.5 -45.5q21 -11 31 -30t10 -39q0 -32 -23.5 -54t-55.5 -22q-35 0 -55 24t-20 57q0 72 73 161h89z" />
    <glyph glyph-name="quoteright" unicode="&#x2019;" horiz-adv-x="270" 
d="M48 470q20 29 31.5 51.5t17.5 45.5q-21 11 -31 30t-10 39q0 32 23.5 54t55.5 22q35 0 55 -24t20 -57q0 -72 -73 -161h-89z" />
    <glyph glyph-name="quotesinglbase" unicode="&#x201a;" horiz-adv-x="270" 
d="M48 -89q20 29 31.5 51.5t17.5 45.5q-21 11 -31 30t-10 39q0 32 23.5 54t55.5 22q35 0 55 -24t20 -57q0 -72 -73 -161h-89z" />
    <glyph glyph-name="quotedblleft" unicode="&#x201c;" horiz-adv-x="540" 
d="M222 712q-20 -29 -31.5 -51.5t-17.5 -45.5q21 -11 31 -30t10 -39q0 -32 -23.5 -54t-55.5 -22q-35 0 -55 24t-20 57q0 72 73 161h89zM492 712q-20 -29 -31.5 -51.5t-17.5 -45.5q21 -11 31 -30t10 -39q0 -32 -23.5 -54t-55.5 -22q-35 0 -55 24t-20 57q0 72 73 161h89z" />
    <glyph glyph-name="quotedblright" unicode="&#x201d;" horiz-adv-x="540" 
d="M48 470q20 29 31.5 51.5t17.5 45.5q-21 11 -31 30t-10 39q0 32 23.5 54t55.5 22q35 0 55 -24t20 -57q0 -72 -73 -161h-89zM318 470q20 29 31.5 51.5t17.5 45.5q-21 11 -31 30t-10 39q0 32 23.5 54t55.5 22q35 0 55 -24t20 -57q0 -72 -73 -161h-89z" />
    <glyph glyph-name="quotedblbase" unicode="&#x201e;" horiz-adv-x="540" 
d="M48 -89q20 29 31.5 51.5t17.5 45.5q-21 11 -31 30t-10 39q0 32 23.5 54t55.5 22q35 0 55 -24t20 -57q0 -72 -73 -161h-89zM318 -89q20 29 31.5 51.5t17.5 45.5q-21 11 -31 30t-10 39q0 32 23.5 54t55.5 22q35 0 55 -24t20 -57q0 -72 -73 -161h-89z" />
    <glyph glyph-name="dagger" unicode="&#x2020;" horiz-adv-x="536" 
d="M238 0l-23 445l-137 12l-18 113l173 -55l-35 185h140l-35 -185l173 55l-18 -113l-137 -12l-23 -445h-60z" />
    <glyph glyph-name="daggerdbl" unicode="&#x2021;" horiz-adv-x="536" 
d="M303 75l35 -185h-140l35 185l-173 -55l18 113l137 12l14 150l-14 150l-137 12l-18 113l173 -55l-35 185h140l-35 -185l173 55l-18 -113l-137 -12l-14 -150l14 -150l137 -12l18 -113z" />
    <glyph glyph-name="bullet" unicode="&#x2022;" horiz-adv-x="350" 
d="M175 202q-53 0 -84 36t-31 108t31 108t84 36t84 -36t31 -108t-31 -108t-84 -36z" />
    <glyph glyph-name="ellipsis" unicode="&#x2026;" horiz-adv-x="786" 
d="M146 -12q-34 0 -55 24.5t-21 59.5t21 58.5t56 23.5q34 0 55 -23.5t21 -58.5t-21 -59.5t-56 -24.5zM392 -12q-34 0 -55 24.5t-21 59.5t21 58.5t56 23.5q34 0 55 -23.5t21 -58.5t-21 -59.5t-56 -24.5zM638 -12q-34 0 -55 24.5t-21 59.5t21 58.5t56 23.5q34 0 55 -23.5
t21 -58.5t-21 -59.5t-56 -24.5z" />
    <glyph glyph-name="perthousand" unicode="&#x2030;" horiz-adv-x="1239" 
d="M216 320q-40 0 -71.5 15.5t-54 43t-34.5 64t-12 78.5t12 78.5t34.5 63.5t54 42.5t71.5 15.5q39 0 71 -15.5t54 -42.5t34 -63.5t12 -78.5t-12 -78.5t-34 -64t-54 -43t-71 -15.5zM216 393q38 0 59.5 33.5t21.5 94.5q0 60 -21.5 93.5t-59.5 33.5t-59 -33.5t-21 -93.5
q0 -61 21 -94.5t59 -33.5zM104 0l551 700h107l-552 -700h-106zM646 -17q-40 0 -71.5 15.5t-54 43t-34.5 64t-12 78.5t12 78.5t34.5 63.5t54 42.5t71.5 15.5q39 0 71 -15.5t54 -42.5t34 -63.5t12 -78.5t-12 -78.5t-34 -64t-54 -43t-71 -15.5zM646 56q38 0 59.5 33.5
t21.5 94.5q0 60 -21.5 93.5t-59.5 33.5t-59 -33.5t-21 -93.5q0 -61 21 -94.5t59 -33.5zM1024 -17q-40 0 -71.5 15.5t-54 43t-34.5 64t-12 78.5t12 78.5t34.5 63.5t54 42.5t71.5 15.5q39 0 71 -15.5t54 -42.5t34 -63.5t12 -78.5t-12 -78.5t-34 -64t-54 -43t-71 -15.5z
M1024 56q38 0 59.5 33.5t21.5 94.5q0 60 -21.5 93.5t-59.5 33.5t-59 -33.5t-21 -93.5q0 -61 21 -94.5t59 -33.5z" />
    <glyph glyph-name="guilsinglleft" unicode="&#x2039;" horiz-adv-x="267" 
d="M23 253v151l221 131v-108l-139 -99l139 -98v-108z" />
    <glyph glyph-name="guilsinglright" unicode="&#x203a;" horiz-adv-x="267" 
d="M23 122v108l139 98l-139 99v108l221 -131v-151z" />
    <glyph glyph-name="fraction" unicode="&#x2044;" horiz-adv-x="312" 
d="M-173 0l551 700h107l-552 -700h-106z" />
    <glyph glyph-name="zerosuperior" unicode="&#x2070;" horiz-adv-x="418" 
d="M207 320q-40 0 -71.5 15.5t-54 43t-34.5 64t-12 78.5t12 78.5t34.5 63.5t54 42.5t71.5 15.5q39 0 71 -15.5t54 -42.5t34 -63.5t12 -78.5t-12 -78.5t-34 -64t-54 -43t-71 -15.5zM207 393q38 0 59.5 33.5t21.5 94.5q0 60 -21.5 93.5t-59.5 33.5t-59 -33.5t-21 -93.5
q0 -61 21 -94.5t59 -33.5z" />
    <glyph glyph-name="foursuperior" unicode="&#x2074;" horiz-adv-x="356" 
d="M189 325v144h-164v57l180 186h71v-178h52v-65h-52v-144h-87zM189 598l-61 -64h61v64z" />
    <glyph glyph-name="fivesuperior" unicode="&#x2075;" horiz-adv-x="354" 
d="M44 404q19 -3 43.5 -6.5t59.5 -3.5q50 0 67 12.5t17 34.5t-7.5 31t-25.5 17q-35 14 -63 22.5t-48 18.5q-23 11 -35 28t-12 51v103h263v-75h-176v-28q0 -10 4 -15t15 -9q51 -17 85.5 -29.5t54.5 -28.5q18 -14 26 -34t8 -52q0 -25 -9.5 -47t-29.5 -39t-51 -27t-75 -10
q-43 0 -67.5 3t-43.5 8v75z" />
    <glyph glyph-name="sixsuperior" unicode="&#x2076;" horiz-adv-x="360" 
d="M40 712h88v-143q24 13 59 13q31 0 55.5 -11t42 -29.5t27 -42.5t9.5 -49q0 -32 -10.5 -57t-29.5 -41.5t-44 -25t-54 -8.5q-39 0 -66 11t-44.5 29.5t-25 44t-7.5 55.5v254zM128 458q0 -37 15.5 -53.5t42.5 -16.5q22 0 37 16t15 46q0 28 -14 44.5t-37 16.5q-16 0 -31 -6.5
t-28 -22.5v-24z" />
    <glyph glyph-name="sevensuperior" unicode="&#x2077;" horiz-adv-x="324" 
d="M43 325l159 312h-179v75h279v-53l-167 -334h-92z" />
    <glyph glyph-name="eightsuperior" unicode="&#x2078;" horiz-adv-x="357" 
d="M303 614q0 -28 -13.5 -50t-36.5 -35q27 -14 49 -40.5t22 -58.5q0 -51 -36.5 -81.5t-111.5 -30.5q-74 0 -110.5 30.5t-36.5 81.5q0 33 21 59t49 40q-23 13 -36 35t-13 50q0 22 9.5 41.5t26 33.5t39.5 22t51 8t51.5 -8t40 -22t26 -33.5t9.5 -41.5zM237 441q0 42 -61 57
q-60 -15 -60 -57q0 -20 14 -33.5t46 -13.5t46.5 13.5t14.5 33.5zM136 614q0 -20 11 -32.5t29 -18.5q19 6 30 18.5t11 32.5q0 17 -12 26.5t-29 9.5q-16 0 -28 -9.5t-12 -26.5z" />
    <glyph glyph-name="ninesuperior" unicode="&#x2079;" horiz-adv-x="361" 
d="M228 325v142q-25 -11 -59 -11q-31 0 -55.5 11t-42 29.5t-27 42t-9.5 48.5q0 32 10.5 56.5t29.5 41.5t43.5 25.5t53.5 8.5q39 0 66 -10.5t44.5 -29.5t25 -44t7.5 -55v-255h-87zM228 580q0 36 -15.5 52.5t-42.5 16.5q-22 0 -37 -16t-15 -46q0 -28 14 -44.5t37 -16.5
q34 0 59 28v26z" />
    <glyph glyph-name="zeroinferior" unicode="&#x2080;" horiz-adv-x="418" 
d="M207 -17q-40 0 -71.5 15.5t-54 43t-34.5 64t-12 78.5t12 78.5t34.5 63.5t54 42.5t71.5 15.5q39 0 71 -15.5t54 -42.5t34 -63.5t12 -78.5t-12 -78.5t-34 -64t-54 -43t-71 -15.5zM207 56q38 0 59.5 33.5t21.5 94.5q0 60 -21.5 93.5t-59.5 33.5t-59 -33.5t-21 -93.5
q0 -61 21 -94.5t59 -33.5z" />
    <glyph glyph-name="oneinferior" unicode="&#x2081;" horiz-adv-x="223" 
d="M90 -12v288q0 24 -21 24h-48v75h56q60 0 80.5 -23t20.5 -69v-295h-88z" />
    <glyph glyph-name="twoinferior" unicode="&#x2082;" horiz-adv-x="367" 
d="M43 -12v101q0 38 13.5 59.5t33.5 34.5q25 15 55 23t56 21q20 10 27 19t7 26q0 15 -15.5 24.5t-54.5 9.5q-31 0 -59 -4.5t-58 -12.5v77q26 8 51.5 12t66.5 4q73 0 115.5 -30.5t42.5 -76.5q0 -34 -10 -56t-33 -37q-31 -21 -58.5 -31.5t-47.5 -19.5t-32 -19.5t-12 -31.5v-17
h181v-75h-269z" />
    <glyph glyph-name="threeinferior" unicode="&#x2083;" horiz-adv-x="330" 
d="M36 63q29 -6 47 -8.5t39 -2.5q51 0 67.5 17t16.5 44q0 26 -18.5 36t-52.5 10h-58v69h51q29 0 44 11t15 31q0 15 -13.5 29t-50.5 14q-50 0 -87 -13v71q17 4 38 7.5t55 3.5q72 0 107.5 -32t35.5 -75q0 -23 -10 -42.5t-29 -30.5q26 -8 42.5 -32.5t16.5 -55.5q0 -24 -10 -48
t-30.5 -42.5t-51.5 -30.5t-73 -12q-35 0 -57 3t-34 7v72z" />
    <glyph glyph-name="fourinferior" unicode="&#x2084;" horiz-adv-x="356" 
d="M189 -12v144h-164v57l180 186h71v-178h52v-65h-52v-144h-87zM189 261l-61 -64h61v64z" />
    <glyph glyph-name="fiveinferior" unicode="&#x2085;" horiz-adv-x="354" 
d="M44 67q19 -3 43.5 -6.5t59.5 -3.5q50 0 67 12.5t17 34.5t-7.5 31t-25.5 17q-35 14 -63 22.5t-48 18.5q-23 11 -35 28t-12 51v103h263v-75h-176v-28q0 -10 4 -15t15 -9q51 -17 85.5 -29.5t54.5 -28.5q18 -14 26 -34t8 -52q0 -25 -9.5 -47t-29.5 -39t-51 -27t-75 -10
q-43 0 -67.5 3t-43.5 8v75z" />
    <glyph glyph-name="sixinferior" unicode="&#x2086;" horiz-adv-x="360" 
d="M40 375h88v-143q24 13 59 13q31 0 55.5 -11t42 -29.5t27 -42.5t9.5 -49q0 -32 -10.5 -57t-29.5 -41.5t-44 -25t-54 -8.5q-39 0 -66 11t-44.5 29.5t-25 44t-7.5 55.5v254zM128 121q0 -37 15.5 -53.5t42.5 -16.5q22 0 37 16t15 46q0 28 -14 44.5t-37 16.5q-16 0 -31 -6.5
t-28 -22.5v-24z" />
    <glyph glyph-name="seveninferior" unicode="&#x2087;" horiz-adv-x="324" 
d="M43 -12l159 312h-179v75h279v-53l-167 -334h-92z" />
    <glyph glyph-name="eightinferior" unicode="&#x2088;" horiz-adv-x="357" 
d="M303 277q0 -28 -13.5 -50t-36.5 -35q27 -14 49 -40.5t22 -58.5q0 -51 -36.5 -81.5t-111.5 -30.5q-74 0 -110.5 30.5t-36.5 81.5q0 33 21 59t49 40q-23 13 -36 35t-13 50q0 22 9.5 41.5t26 33.5t39.5 22t51 8t51.5 -8t40 -22t26 -33.5t9.5 -41.5zM237 104q0 42 -61 57
q-60 -15 -60 -57q0 -20 14 -33.5t46 -13.5t46.5 13.5t14.5 33.5zM136 277q0 -20 11 -32.5t29 -18.5q19 6 30 18.5t11 32.5q0 17 -12 26.5t-29 9.5q-16 0 -28 -9.5t-12 -26.5z" />
    <glyph glyph-name="nineinferior" unicode="&#x2089;" horiz-adv-x="361" 
d="M228 -12v142q-25 -11 -59 -11q-31 0 -55.5 11t-42 29.5t-27 42t-9.5 48.5q0 32 10.5 56.5t29.5 41.5t43.5 25.5t53.5 8.5q39 0 66 -10.5t44.5 -29.5t25 -44t7.5 -55v-255h-87zM228 243q0 36 -15.5 52.5t-42.5 16.5q-22 0 -37 -16t-15 -46q0 -28 14 -44.5t37 -16.5
q34 0 59 28v26z" />
    <glyph glyph-name="Euro" unicode="&#x20ac;" horiz-adv-x="619" 
d="M584 0q-24 -5 -55.5 -8.5t-63.5 -3.5q-67 0 -126.5 13.5t-107.5 42.5t-82.5 74.5t-49.5 110.5h-79l20 74h49q-1 7 -1 13.5v14.5q0 13 0.5 25.5t1.5 24.5h-70l20 75h63q17 65 51.5 113t82 80t105 47.5t121.5 15.5q35 0 67.5 -2t63.5 -5l-35 -116q-21 2 -42.5 3t-42.5 1
q-85 0 -142 -33t-82 -104h268l-23 -75h-261q-2 -11 -2 -22v-23v-17t1 -16h238l-23 -74h-198q25 -64 82.5 -93t143.5 -29q35 0 61 3.5t47 9.5v-120z" />
    <glyph glyph-name="uni2112" unicode="&#x2112;" horiz-adv-x="761" 
d="M381 -12q-77 0 -139.5 28t-106.5 77t-67.5 115t-23.5 142t23.5 142t67.5 115t106.5 77t139.5 28t139 -28t106 -77t67.5 -115t23.5 -142t-23.5 -142t-67.5 -115t-106 -77t-139 -28zM381 74q115 0 178 71.5t63 204.5t-63 204t-178 71q-116 0 -179 -71t-63 -204t63 -204.5
t179 -71.5zM260 183v232q0 54 29 89.5t99 35.5q52 0 88 -30t36 -88q0 -23 -8.5 -44t-24.5 -37t-38.5 -26t-49.5 -10q-38 0 -60 14v-136h-71zM331 388q12 -15 27.5 -22t32.5 -7q25 0 39 17t14 46q0 32 -15.5 48t-38.5 16q-28 0 -43.5 -17t-15.5 -54v-27z" />
    <glyph glyph-name="trademark" unicode="&#x2122;" horiz-adv-x="867" 
d="M143 265v348h-116v87h333v-87h-116v-348h-101zM714 265v245l-100 -188l-98 188v-245h-95v435h103l91 -179l92 179h100v-435h-93z" />
    <glyph glyph-name="onethird" unicode="&#x2153;" horiz-adv-x="765" 
d="M124 325v288q0 24 -21 24h-48v75h56q60 0 80.5 -23t20.5 -69v-295h-88zM44 0l551 700h107l-552 -700h-106zM465 63q29 -6 47 -8.5t39 -2.5q51 0 67.5 17t16.5 44q0 26 -18.5 36t-52.5 10h-58v69h51q29 0 44 11t15 31q0 15 -13.5 29t-50.5 14q-50 0 -87 -13v71
q17 4 38 7.5t55 3.5q72 0 107.5 -32t35.5 -75q0 -23 -10 -42.5t-29 -30.5q26 -8 42.5 -32.5t16.5 -55.5q0 -24 -10 -48t-30.5 -42.5t-51.5 -30.5t-73 -12q-35 0 -57 3t-34 7v72z" />
    <glyph glyph-name="twothirds" unicode="&#x2154;" horiz-adv-x="886" 
d="M44 325v101q0 38 13.5 59.5t33.5 34.5q25 15 55 23t56 21q20 10 27 19t7 26q0 15 -15.5 24.5t-54.5 9.5q-31 0 -59 -4.5t-58 -12.5v77q26 8 51.5 12t66.5 4q73 0 115.5 -30.5t42.5 -76.5q0 -34 -10 -56t-33 -37q-31 -21 -58.5 -31.5t-47.5 -19.5t-32 -19.5t-12 -31.5v-17
h181v-75h-269zM135 0l551 700h107l-552 -700h-106zM586 63q29 -6 47 -8.5t39 -2.5q51 0 67.5 17t16.5 44q0 26 -18.5 36t-52.5 10h-58v69h51q29 0 44 11t15 31q0 15 -13.5 29t-50.5 14q-50 0 -87 -13v71q17 4 38 7.5t55 3.5q72 0 107.5 -32t35.5 -75q0 -23 -10 -42.5
t-29 -30.5q26 -8 42.5 -32.5t16.5 -55.5q0 -24 -10 -48t-30.5 -42.5t-51.5 -30.5t-73 -12q-35 0 -57 3t-34 7v72z" />
    <glyph glyph-name="oneeighth" unicode="&#x215b;" horiz-adv-x="797" 
d="M124 325v288q0 24 -21 24h-48v75h56q60 0 80.5 -23t20.5 -69v-295h-88zM44 0l551 700h107l-552 -700h-106zM732 277q0 -28 -13.5 -50t-36.5 -35q27 -14 49 -40.5t22 -58.5q0 -51 -36.5 -81.5t-111.5 -30.5q-74 0 -110.5 30.5t-36.5 81.5q0 33 21 59t49 40q-23 13 -36 35
t-13 50q0 22 9.5 41.5t26 33.5t39.5 22t51 8t51.5 -8t40 -22t26 -33.5t9.5 -41.5zM666 104q0 42 -61 57q-60 -15 -60 -57q0 -20 14 -33.5t46 -13.5t46.5 13.5t14.5 33.5zM565 277q0 -20 11 -32.5t29 -18.5q19 6 30 18.5t11 32.5q0 17 -12 26.5t-29 9.5q-16 0 -28 -9.5
t-12 -26.5z" />
    <glyph glyph-name="threeeighths" unicode="&#x215c;" horiz-adv-x="818" 
d="M44 400q29 -6 47 -8.5t39 -2.5q51 0 67.5 17t16.5 44q0 26 -18.5 36t-52.5 10h-58v69h51q29 0 44 11t15 31q0 15 -13.5 29t-50.5 14q-50 0 -87 -13v71q17 4 38 7.5t55 3.5q72 0 107.5 -32t35.5 -75q0 -23 -10 -42.5t-29 -30.5q26 -8 42.5 -32.5t16.5 -55.5q0 -24 -10 -48
t-30.5 -42.5t-51.5 -30.5t-73 -12q-35 0 -57 3t-34 7v72zM65 0l551 700h107l-552 -700h-106zM753 277q0 -28 -13.5 -50t-36.5 -35q27 -14 49 -40.5t22 -58.5q0 -51 -36.5 -81.5t-111.5 -30.5q-74 0 -110.5 30.5t-36.5 81.5q0 33 21 59t49 40q-23 13 -36 35t-13 50
q0 22 9.5 41.5t26 33.5t39.5 22t51 8t51.5 -8t40 -22t26 -33.5t9.5 -41.5zM687 104q0 42 -61 57q-60 -15 -60 -57q0 -20 14 -33.5t46 -13.5t46.5 13.5t14.5 33.5zM586 277q0 -20 11 -32.5t29 -18.5q19 6 30 18.5t11 32.5q0 17 -12 26.5t-29 9.5q-16 0 -28 -9.5t-12 -26.5z
" />
    <glyph glyph-name="fiveeighths" unicode="&#x215d;" horiz-adv-x="838" 
d="M48 404q19 -3 43.5 -6.5t59.5 -3.5q50 0 67 12.5t17 34.5t-7.5 31t-25.5 17q-35 14 -63 22.5t-48 18.5q-23 11 -35 28t-12 51v103h263v-75h-176v-28q0 -10 4 -15t15 -9q51 -17 85.5 -29.5t54.5 -28.5q18 -14 26 -34t8 -52q0 -25 -9.5 -47t-29.5 -39t-51 -27t-75 -10
q-43 0 -67.5 3t-43.5 8v75zM85 0l551 700h107l-552 -700h-106zM773 277q0 -28 -13.5 -50t-36.5 -35q27 -14 49 -40.5t22 -58.5q0 -51 -36.5 -81.5t-111.5 -30.5q-74 0 -110.5 30.5t-36.5 81.5q0 33 21 59t49 40q-23 13 -36 35t-13 50q0 22 9.5 41.5t26 33.5t39.5 22t51 8
t51.5 -8t40 -22t26 -33.5t9.5 -41.5zM707 104q0 42 -61 57q-60 -15 -60 -57q0 -20 14 -33.5t46 -13.5t46.5 13.5t14.5 33.5zM606 277q0 -20 11 -32.5t29 -18.5q19 6 30 18.5t11 32.5q0 17 -12 26.5t-29 9.5q-16 0 -28 -9.5t-12 -26.5z" />
    <glyph glyph-name="seveneighths" unicode="&#x215e;" horiz-adv-x="797" 
d="M76 325l159 312h-179v75h279v-53l-167 -334h-92zM44 0l551 700h107l-552 -700h-106zM732 277q0 -28 -13.5 -50t-36.5 -35q27 -14 49 -40.5t22 -58.5q0 -51 -36.5 -81.5t-111.5 -30.5q-74 0 -110.5 30.5t-36.5 81.5q0 33 21 59t49 40q-23 13 -36 35t-13 50q0 22 9.5 41.5
t26 33.5t39.5 22t51 8t51.5 -8t40 -22t26 -33.5t9.5 -41.5zM666 104q0 42 -61 57q-60 -15 -60 -57q0 -20 14 -33.5t46 -13.5t46.5 13.5t14.5 33.5zM565 277q0 -20 11 -32.5t29 -18.5q19 6 30 18.5t11 32.5q0 17 -12 26.5t-29 9.5q-16 0 -28 -9.5t-12 -26.5z" />
    <glyph glyph-name="partialdiff" unicode="&#x2202;" horiz-adv-x="604" 
d="M410 226q0 48 -30.5 69.5t-75.5 21.5q-30 0 -55 -7.5t-44 -21.5t-29.5 -34.5t-10.5 -46.5q0 -25 8.5 -42t23 -28t33.5 -16t40 -5q24 0 49 6.5t45.5 20t33 34t12.5 49.5zM434 394q-3 54 -21.5 90.5t-47.5 61t-65 39.5t-73 27l52 125q72 -17 125.5 -51t89 -82t52.5 -109
t17 -132q0 -41 -6 -85t-19 -85.5t-35 -79t-53.5 -65t-74.5 -44t-98 -16.5q-49 0 -92 12.5t-75 38t-50.5 64t-18.5 91.5q0 52 18.5 96.5t51.5 76t78 49.5t98 18q36 0 74.5 -9.5t67.5 -32.5z" />
    <glyph glyph-name="product" unicode="&#x220f;" horiz-adv-x="677" 
d="M477 -206v768h-278v-768h-137v906h554v-906h-139z" />
    <glyph glyph-name="summation" unicode="&#x2211;" horiz-adv-x="622" 
d="M47 -183v103l225 339l-225 338v103h533v-130h-368l203 -311l-203 -312h368v-130h-533z" />
    <glyph glyph-name="minus" unicode="&#x2212;" horiz-adv-x="721" 
d="M60 322v101h601v-101h-601z" />
    <glyph glyph-name="radical" unicode="&#x221a;" horiz-adv-x="581" 
d="M206 0l-105 237h-91v115h193l64 -170l156 518h144l-246 -700h-115z" />
    <glyph glyph-name="infinity" unicode="&#x221e;" horiz-adv-x="648" 
d="M324 262q-8 -18 -23.5 -32.5t-34 -25t-39.5 -16t-41 -5.5q-31 0 -57 12.5t-45 34.5t-29.5 53t-10.5 68t10.5 68t29.5 53t45 34.5t57 12.5q20 0 41 -5.5t39.5 -16t34 -25t23.5 -32.5q8 18 23.5 32.5t34 25t39.5 16t41 5.5q31 0 57 -12.5t45 -34.5t29.5 -53t10.5 -68
t-10.5 -68t-29.5 -53t-45 -34.5t-57 -12.5q-20 0 -41 5.5t-39.5 16t-34 25t-23.5 32.5zM365 351q10 -30 37.5 -47.5t59.5 -17.5q29 0 45 19.5t16 45.5t-16 45.5t-45 19.5q-32 0 -59.5 -17.5t-37.5 -47.5zM283 351q-10 30 -37.5 47.5t-59.5 17.5q-29 0 -45 -19.5t-16 -45.5
t16 -45.5t45 -19.5q32 0 59.5 17.5t37.5 47.5z" />
    <glyph glyph-name="integral" unicode="&#x222b;" horiz-adv-x="383" 
d="M19 -121q6 -2 18 -3.5t36 -1.5q28 0 41 15t13 50v704q0 80 49 119t131 39q22 0 34 -1.5t22 -6.5v-90q-6 2 -18 3.5t-36 1.5q-28 0 -41 -15t-13 -50v-704q0 -80 -49 -119t-131 -39q-22 0 -34 1.5t-22 6.5v90z" />
    <glyph glyph-name="approxequal" unicode="&#x2248;" horiz-adv-x="721" 
d="M661 203q-15 -16 -31 -28t-36 -19.5t-45.5 -11.5t-59.5 -4q-35 0 -68.5 9.5t-67 20.5t-67 20.5t-66.5 9.5q-59 0 -94 -14t-66 -44v101q15 16 31 28t36 19.5t45.5 11.5t59.5 4t67.5 -9.5t67 -20.5t67 -20.5t67.5 -9.5q30 0 52.5 3.5t41.5 10.5t34.5 18t31.5 26v-101z
M661 482q-15 -16 -31 -28t-36 -19.5t-45.5 -11.5t-59.5 -4q-35 0 -68.5 9.5t-67 20.5t-67 20.5t-66.5 9.5q-59 0 -94 -14t-66 -44v101q15 16 31 28t36 19.5t45.5 11.5t59.5 4t67.5 -9.5t67 -20.5t67 -20.5t67.5 -9.5q30 0 52.5 3.5t41.5 10.5t34.5 18t31.5 26v-101z" />
    <glyph glyph-name="notequal" unicode="&#x2260;" horiz-adv-x="721" 
d="M493 442l-106 -139h274v-101h-351l-153 -202h-126l153 202h-124v101h200l106 139h-306v101h382l120 157h127l-120 -157h92v-101h-168z" />
    <glyph glyph-name="lessequal" unicode="&#x2264;" horiz-adv-x="721" 
d="M60 305v135l601 213v-111l-494 -170l494 -169v-111zM60 -99v101h601v-101h-601z" />
    <glyph glyph-name="greaterequal" unicode="&#x2265;" horiz-adv-x="721" 
d="M60 92v111l494 169l-494 170v111l601 -213v-135zM60 -99v101h601v-101h-601z" />
    <glyph glyph-name="lozenge" unicode="&#x25ca;" horiz-adv-x="449" 
d="M157 0l-121 350l121 350h135l120 -350l-120 -350h-135zM304 350l-80 240l-80 -240l80 -240z" />
    <glyph glyph-name="Ohungarumlaut.1" unicode="&#xe060;" horiz-adv-x="706" 
d="M353 -12q-71 0 -128 28t-97.5 77t-62 115t-21.5 142t21.5 142t62 115t97.5 77t128 28t128 -28t97.5 -77t62 -115t21.5 -142t-21.5 -142t-62 -115t-97.5 -77t-128 -28zM353 102q77 0 119 64.5t42 183.5t-42 183.5t-119 64.5t-119 -64.5t-42 -183.5t42 -183.5t119 -64.5z
M387 736l131 221h151l-164 -221h-118zM157 736l131 221h151l-164 -221h-118z" />
    <glyph glyph-name="Oacute.1" unicode="&#xe061;" horiz-adv-x="706" 
d="M353 -12q-71 0 -128 28t-97.5 77t-62 115t-21.5 142t21.5 142t62 115t97.5 77t128 28t128 -28t97.5 -77t62 -115t21.5 -142t-21.5 -142t-62 -115t-97.5 -77t-128 -28zM353 102q77 0 119 64.5t42 183.5t-42 183.5t-119 64.5t-119 -64.5t-42 -183.5t42 -183.5t119 -64.5z
M262 736l131 221h151l-164 -221h-118z" />
    <glyph glyph-name="Obreve.1" unicode="&#xe062;" horiz-adv-x="706" 
d="M353 -12q-71 0 -128 28t-97.5 77t-62 115t-21.5 142t21.5 142t62 115t97.5 77t128 28t128 -28t97.5 -77t62 -115t21.5 -142t-21.5 -142t-62 -115t-97.5 -77t-128 -28zM353 102q77 0 119 64.5t42 183.5t-42 183.5t-119 64.5t-119 -64.5t-42 -183.5t42 -183.5t119 -64.5z
M507 957q1 -12 1.5 -23t0.5 -22q0 -53 -13.5 -87.5t-36 -54t-50.5 -27t-56 -7.5q-29 0 -56.5 7.5t-50 27t-36 54t-13.5 87.5q0 11 0.5 22t1.5 23h105q-6 -18 -8.5 -33t-2.5 -28q0 -21 5.5 -36t14.5 -24t19.5 -13.5t20.5 -4.5t20.5 4.5t19.5 13.5t14.5 24t5.5 36
q0 13 -2.5 28t-8.5 33h105z" />
    <glyph glyph-name="Ocircumflex.1" unicode="&#xe063;" horiz-adv-x="706" 
d="M353 -12q-71 0 -128 28t-97.5 77t-62 115t-21.5 142t21.5 142t62 115t97.5 77t128 28t128 -28t97.5 -77t62 -115t21.5 -142t-21.5 -142t-62 -115t-97.5 -77t-128 -28zM353 102q77 0 119 64.5t42 183.5t-42 183.5t-119 64.5t-119 -64.5t-42 -183.5t42 -183.5t119 -64.5z
M451 736l-99 139l-98 -139h-108l131 221h151l131 -221h-108z" />
    <glyph glyph-name="Odieresis.1" unicode="&#xe064;" horiz-adv-x="706" 
d="M353 -12q-71 0 -128 28t-97.5 77t-62 115t-21.5 142t21.5 142t62 115t97.5 77t128 28t128 -28t97.5 -77t62 -115t21.5 -142t-21.5 -142t-62 -115t-97.5 -77t-128 -28zM353 102q77 0 119 64.5t42 183.5t-42 183.5t-119 64.5t-119 -64.5t-42 -183.5t42 -183.5t119 -64.5z
M459 756q-34 0 -55 24.5t-21 59.5t21 58.5t56 23.5q34 0 55 -23.5t21 -58.5t-21 -59.5t-56 -24.5zM246 756q-34 0 -55 24.5t-21 59.5t21 58.5t56 23.5q34 0 55 -23.5t21 -58.5t-21 -59.5t-56 -24.5z" />
    <glyph glyph-name="Ograve.1" unicode="&#xe065;" horiz-adv-x="706" 
d="M353 -12q-71 0 -128 28t-97.5 77t-62 115t-21.5 142t21.5 142t62 115t97.5 77t128 28t128 -28t97.5 -77t62 -115t21.5 -142t-21.5 -142t-62 -115t-97.5 -77t-128 -28zM353 102q77 0 119 64.5t42 183.5t-42 183.5t-119 64.5t-119 -64.5t-42 -183.5t42 -183.5t119 -64.5z
M326 736l-164 221h151l131 -221h-118z" />
    <glyph glyph-name="Omacron.1" unicode="&#xe066;" horiz-adv-x="706" 
d="M353 -12q-71 0 -128 28t-97.5 77t-62 115t-21.5 142t21.5 142t62 115t97.5 77t128 28t128 -28t97.5 -77t62 -115t21.5 -142t-21.5 -142t-62 -115t-97.5 -77t-128 -28zM353 102q77 0 119 64.5t42 183.5t-42 183.5t-119 64.5t-119 -64.5t-42 -183.5t42 -183.5t119 -64.5z
M157 781v106h391v-106h-391z" />
    <glyph glyph-name="Otilde.1" unicode="&#xe067;" horiz-adv-x="706" 
d="M353 -12q-71 0 -128 28t-97.5 77t-62 115t-21.5 142t21.5 142t62 115t97.5 77t128 28t128 -28t97.5 -77t62 -115t21.5 -142t-21.5 -142t-62 -115t-97.5 -77t-128 -28zM353 102q77 0 119 64.5t42 183.5t-42 183.5t-119 64.5t-119 -64.5t-42 -183.5t42 -183.5t119 -64.5z
M548 808q-20 -22 -43.5 -32t-68.5 -10q-23 0 -45 6t-43.5 13.5t-43 14t-43.5 6.5q-38 0 -61 -9.5t-43 -29.5v97q20 22 43.5 32t68.5 10q22 0 44 -6.5t43.5 -14t43.5 -13.5t44 -6q38 0 61 9.5t43 29.5v-97z" />
    <glyph glyph-name="fi" unicode="&#xfb01;" horiz-adv-x="619" 
d="M75 0v373h-66v105h66v40q0 46 14 82.5t39.5 61t61 37.5t78.5 13q24 0 45 -3t33 -8v-115q-14 5 -28.5 8t-35.5 3q-34 0 -52.5 -22.5t-18.5 -56.5v-40h89v-105h-89v-373h-136zM413 0v478h136v-478h-136zM482 534q-34 0 -55 24.5t-21 59.5t21 58.5t56 23.5q34 0 55 -23.5
t21 -58.5t-21 -59.5t-56 -24.5z" />
    <glyph glyph-name="fl" unicode="&#xfb02;" horiz-adv-x="602" 
d="M75 0v373h-66v105h66v40q0 46 14 82.5t39.5 61t61 37.5t78.5 13q24 0 45 -3t33 -8v-115q-14 5 -28.5 8t-35.5 3q-34 0 -52.5 -22.5t-18.5 -56.5v-40h89v-105h-89v-373h-136zM406 0v700h136v-700h-136z" />
    <glyph glyph-name=".null" horiz-adv-x="0" 
 />
    <glyph glyph-name="nonmarkingreturn" horiz-adv-x="252" 
 />
    </font>
</defs>
</svg>
